<svg xmlns="http://www.w3.org/2000/svg" viewBox="0 0 100 100" width="100" height="100" style="fill: rgb(0, 0, 0);"><defs><style>.cls-1{isolation:isolate;}.cls-2{fill:#fff;}.cls-3{fill:#f1bc19;}.cls-4{fill:#c0e5e4;}.cls-5{fill:#00a5a5;}.cls-6{fill:#fbcd59;}.cls-7{fill:#b28c72;stroke-miterlimit:10;}.cls-13,.cls-20,.cls-21,.cls-22,.cls-7{stroke:#472b29;}.cls-21,.cls-22,.cls-7{stroke-width:0.5px;}.cls-8{fill:#d8ad8f;}.cls-9{fill:#b2876b;}.cls-10{opacity:0.3;}.cls-11{opacity:0.8;mix-blend-mode:multiply;}.cls-12{fill:#f4989e;}.cls-13,.cls-20,.cls-21{fill:none;stroke-linecap:round;}.cls-13,.cls-20,.cls-21,.cls-22{stroke-linejoin:round;}.cls-13{stroke-width:0.4px;}.cls-14{fill:#6d1b18;}.cls-15{fill:#ee3e54;}.cls-16{fill:#fdfcef;}.cls-17,.cls-19{fill:#472b29;}.cls-17{opacity:0.41;}.cls-18{fill:#512c2b;}.cls-22{fill:#bd977c;}.cls-23{fill:#9f8066;}.cls-24{fill:#d12642;}.cls-25{fill:#e6e7e8;}</style></defs><title>Artboard 72</title><g class="cls-1"><g id="line8"><g id="background_round" data-name="background round"><circle class="cls-2" cx="20.76" cy="56.38" r="0.89"/><circle class="cls-2" cx="79.81" cy="31.51" r="0.68"/><circle class="cls-3" cx="21.25" cy="64.06" r="0.89"/><circle class="cls-4" cx="50.34" cy="49.88" r="37.45"/><circle class="cls-3" cx="82.62" cy="14.63" r="4.01"/><circle class="cls-5" cx="86.61" cy="24.7" r="1.88"/><circle class="cls-6" cx="77.64" cy="76.12" r="1.88"/><circle class="cls-6" cx="14.48" cy="63.17" r="4.01"/><circle class="cls-5" cx="24.72" cy="87.31" r="1.88"/><circle class="cls-2" cx="76.29" cy="30" r="1.8"/><circle class="cls-2" cx="18.22" cy="51.06" r="2.54"/><path class="cls-7" d="M44.1,61.69a101.47,101.47,0,0,0,10.29,0c2.73-.24,5.51-1.21,7.11-3.19,10.17-12.67-4-31.08-18.55-30.69C32.13,28.1,29.41,61.81,44.1,61.69Z"/><path class="cls-8" d="M61.47,41.89c.13-1.52-.32-2.82-.22-3.58h0c-1.33-1.65-2.17-3.59-4-4.77a23.65,23.65,0,0,0-6.78-2.83c-5.7-1.43-11.3,2.74-13.06,8.13l-.06.1a20.1,20.1,0,0,1,.37,2.94c-1.54,0-2.32.81-1.79,2.43,0,0,.6,2.63,1,3.89a1.49,1.49,0,0,0,1.48,1.2c0,.84,0,1.67,0,2.51a4.49,4.49,0,0,0,.85,2.81c1.51,2.18,9.23,7.2,11.1,7,3,0,9-5.14,10.59-7.7a4,4,0,0,0,.47-1.69c0-1,0-2,0-3a1.51,1.51,0,0,0,1.27-1.19c.4-1.26,1-3.86,1-3.89C64.18,42.69,63,41.86,61.47,41.89Z"/><path class="cls-9" d="M66.09,67.46l-.34-.12-.58-.24c-1.23-.53-9.26-3.27-9.26-3.27a1.86,1.86,0,0,1-1.22-1.08,9,9,0,0,1-.23-2.92,22.05,22.05,0,0,1-4.23,1.43c-1.86.18-5.15-2.27-5.15-2.27s-.09,3-.22,3.71a1.66,1.66,0,0,1-1.26,1.13l-7.74,2.58a7.91,7.91,0,0,0-2.17.91A7.78,7.78,0,0,0,30.41,72h-.05c0,.1-.05.32-.09.61A5.51,5.51,0,0,0,30.13,74c0,.47-.09,7-.13,7.52,13.43,10.41,35.89,2.93,40,1.4C69.54,73.49,70.35,68.77,66.09,67.46Z"/><g class="cls-10"><g class="cls-11"><ellipse class="cls-12" cx="42.69" cy="50.55" rx="1.97" ry="2"/></g><g class="cls-11"><ellipse class="cls-12" cx="57.81" cy="50.55" rx="1.97" ry="2"/></g></g><line class="cls-13" x1="37.84" y1="41.88" x2="38.66" y2="49.92"/><line class="cls-13" x1="61.66" y1="41.42" x2="61.17" y2="49.49"/><path class="cls-14" d="M46.64,54.63a1.91,1.91,0,0,0-.06.48c0,1.39,1.54,2.53,3.45,2.53s3.45-1.14,3.45-2.53a1.91,1.91,0,0,0-.06-.48Z"/><path class="cls-15" d="M51.85,57.25a3.06,3.06,0,0,0-3.64,0,4.44,4.44,0,0,0,3.64,0Z"/><path class="cls-16" d="M47.63,54.63s0,0,0,0v.42c0,.38.5.68,1.1.68h2.62c.6,0,1.1-.3,1.1-.68v-.42s0,0,0,0Z"/><path class="cls-13" d="M46.64,54.63a1.91,1.91,0,0,0-.06.48c0,1.39,1.54,2.53,3.45,2.53s3.45-1.14,3.45-2.53a1.91,1.91,0,0,0-.06-.48Z"/><path class="cls-3" d="M41.08,64.67c-.22,9,17.4,9.57,16.18-.66l4.88,1.69,1.52,19.64s-15.45,5.42-28.5-.86l.7-18.07Z"/><path class="cls-17" d="M50,52.76a2.66,2.66,0,0,0,2-.9.14.14,0,0,0,0-.2h0a.14.14,0,0,0-.19,0,2.64,2.64,0,0,1-3.58,0,.16.16,0,0,0-.11,0,.11.11,0,0,0-.08,0,.14.14,0,0,0,0,.2A2.66,2.66,0,0,0,50,52.76Z"/><path class="cls-17" d="M50.92,59.48a.09.09,0,0,0,0-.18H49.14a.09.09,0,0,0,0,.18Z"/><path class="cls-18" d="M48,39.82A20.75,20.75,0,0,0,40.56,39a.21.21,0,0,0-.21.19.22.22,0,0,0,.19.2s5.08.88,6.64,1.43l.09,0a.24.24,0,0,0,.2-.08l.62-.67a.17.17,0,0,0,0-.18A.2.2,0,0,0,48,39.82Z"/><path class="cls-18" d="M52,39.62a21,21,0,0,1,7.45-.39.21.21,0,0,1,.2.2.22.22,0,0,1-.2.2s-5.12.61-6.71,1.08h-.08a.27.27,0,0,1-.21-.09l-.57-.71a.14.14,0,0,1,0-.17A.22.22,0,0,1,52,39.62Z"/><path class="cls-19" d="M44.44,42.78a1.4,1.4,0,0,0-1.21.83.69.69,0,0,1,.2,0,.83.83,0,0,1,0,1.65.67.67,0,0,1-.37-.11,1.54,1.54,0,0,0,1.38,1.3,1.87,1.87,0,0,0,0-3.64Z"/><path class="cls-19" d="M55.43,42.78a1.34,1.34,0,0,0-1.08.63.58.58,0,0,1,.26-.06.83.83,0,0,1,0,1.65.74.74,0,0,1-.62-.36,1.48,1.48,0,1,0,1.44-1.86Z"/><path class="cls-20" d="M54.73,62.9a8.21,8.21,0,0,1-.24-2.69,24.41,24.41,0,0,0,6.45-6,4,4,0,0,0,.47-1.69c0-1,0-2,0-3a1.49,1.49,0,0,0,1.27-1.19c.4-1.25,1-3.86,1-3.88.53-1.62-.64-2.46-2.18-2.43,0-.42.05-1.08.07-1A4.7,4.7,0,0,0,62,39.31C62,33.08,56.45,28,49.6,28S37.19,33.08,37.19,39.31A4.5,4.5,0,0,0,37.66,41,10.18,10.18,0,0,1,37.74,42c-1.54,0-2.32.82-1.79,2.44,0,0,.6,2.63,1,3.88a1.5,1.5,0,0,0,1.48,1.21c0,.83,0,1.67,0,2.5a4.47,4.47,0,0,0,.85,2.81c.81,1.17,3.4,3.15,5.93,4.72,0,.73-.18,2.72-.28,3.26"/><path class="cls-21" d="M45.35,59.46s3.43,1.86,5.25,1.71A14,14,0,0,0,55,59.54"/><path class="cls-19" d="M48.32,42.35c-2.25-2.74-10.72-.8-10.73-.8.16.62.29,1.23.41,1.83.63.07.67,1.48.73,2,.31,2.49,2,4.34,5.49,4.25a4.42,4.42,0,0,0,4.5-4.34A6.12,6.12,0,0,0,48.32,42.35Zm-.4,3.06a3.68,3.68,0,0,1-3.78,3.66h-.65c-3.5,0-4.1-3.07-4.17-5a2.07,2.07,0,0,1,1.86-2.17,21.27,21.27,0,0,1,2.2-.07c2.62,0,3.76.63,4.06,1.13A4.42,4.42,0,0,1,47.92,45.41Z"/><path class="cls-19" d="M50.8,45.29a4.41,4.41,0,0,0,4.49,4.34c3.52.09,5.19-1.76,5.5-4.25.06-.52.1-1.93.73-2,.12-.6.25-1.21.41-1.83,0,0-8.48-1.94-10.73.8A6.12,6.12,0,0,0,50.8,45.29ZM52.08,43c.3-.5,1.44-1.13,4.05-1.13a21.38,21.38,0,0,1,2.21.07,2.07,2.07,0,0,1,1.86,2.17c-.07,1.93-.67,5-4.17,5h-.65a3.68,3.68,0,0,1-3.78-3.66A4.42,4.42,0,0,1,52.08,43Z"/><path class="cls-19" d="M51.28,44.5A2.69,2.69,0,0,0,49.7,44a2.31,2.31,0,0,0-1.46.46c-.15-.43-.31-.85-.46-1.27h4C51.59,43.65,51.43,44.07,51.28,44.5Z"/><path class="cls-22" d="M66.64,42.62c-4.11-.2-1.83-17-18.23-16.28C31.79,27.11,37,42.24,37.93,44.07c.65-.19,4.51-5,6.15-8.29C48.12,41.73,61.93,46,66.64,42.62Z"/><path class="cls-23" d="M48.2,26.1c9.57,3.63,8.62,12.2,9,16.91,3.62.82,7.16.87,9.08-.52C62.19,42.3,64.4,25.48,48.2,26.1Z"/><path class="cls-24" d="M47.62,87.19c1.51.4,2.93-.7,4.3-.5l-.44-14.15H48Z"/><polygon class="cls-15" points="52.61 71.03 51.47 73.22 47.98 73.22 46.87 71.03 49.74 68.68 52.61 71.03"/><path class="cls-20" d="M66.11,67.47a2.87,2.87,0,0,1-.34-.12l-.58-.24c-.6-.25-2.81-1-4.92-1.77l.26-.26L55.75,63l-.53.49a2.07,2.07,0,0,1-.51-.7,3.7,3.7,0,0,1-.22-1.22c2.69-.25,5.42-1.22,7-3.18A15.41,15.41,0,0,0,64.2,43.88a6.25,6.25,0,0,0,2.42-1c-4.11-.2-1.83-17.45-18.23-16.67a15.78,15.78,0,0,0-7.34,1.89c-9.21,3.86-10.76,33.58,3,33.47H45c0,.49-.09.93-.13,1.14a1.34,1.34,0,0,1-.59.81l-.6-.55-4.78,2.11.25.25-3.28,1.1a11,11,0,0,0-2.17.91C29.2,69.64,30.06,81,30,81.48c10.7,9.53,34.35,5,40,1.4C69.56,73.51,70.37,68.78,66.11,67.47Z"/><path class="cls-25" d="M49.74,68.68l-3.67,3.86-7.14-7.33,4.78-2.1,1.48,1.36Z"/><path class="cls-25" d="M49.74,68.68l3.67,3.86,7.14-7.33-4.78-2.1L54.3,64.47Z"/></g></g></g></svg>