<svg xmlns="http://www.w3.org/2000/svg" viewBox="0 0 100 100" width="100" height="100" style="fill: rgb(0, 0, 0);"><defs><style>.cls-1{isolation:isolate;}.cls-2{fill:#fff;}.cls-3{fill:#f1bc19;}.cls-4{fill:#cee1f4;}.cls-5{fill:#ee3e54;}.cls-6{fill:#fbcd59;}.cls-15,.cls-7{fill:#472b29;}.cls-8{fill:#d8ad8f;}.cls-9{fill:#b2876b;}.cls-10,.cls-19{fill:#78a0cf;}.cls-11{opacity:0.3;}.cls-12{opacity:0.8;mix-blend-mode:multiply;}.cls-13{fill:#f4989e;}.cls-14,.cls-17,.cls-18{fill:none;stroke-linecap:round;stroke-linejoin:round;}.cls-14,.cls-17,.cls-18,.cls-19{stroke:#472b29;}.cls-14{stroke-width:0.4px;}.cls-15{opacity:0.41;}.cls-16{fill:#512c2b;}.cls-18{stroke-width:0.5px;}.cls-19{stroke-miterlimit:10;stroke-width:0.7px;}</style></defs><title>Artboard 74</title><g class="cls-1"><g id="line8"><g id="background_round" data-name="background round"><circle class="cls-2" cx="20.75" cy="56.38" r="0.89"/><circle class="cls-2" cx="79.8" cy="31.51" r="0.68"/><circle class="cls-3" cx="77.17" cy="12.48" r="0.89"/><circle class="cls-3" cx="21.24" cy="64.06" r="0.89"/><circle class="cls-4" cx="50.28" cy="49.71" r="37.45"/><circle class="cls-3" cx="82.61" cy="14.63" r="4.01"/><circle class="cls-5" cx="86.62" cy="23.7" r="1.88"/><circle class="cls-6" cx="77.63" cy="76.12" r="1.88"/><circle class="cls-6" cx="14.47" cy="63.17" r="4.01"/><circle class="cls-5" cx="24.71" cy="87.31" r="1.88"/><circle class="cls-2" cx="76.28" cy="30" r="1.8"/><circle class="cls-2" cx="18.21" cy="51.06" r="2.54"/><path class="cls-7" d="M33.23,75.79a1.9,1.9,0,0,0,1.44-.14l.11-.06.06.08a2.1,2.1,0,0,0,.69.73l.15.11A2.73,2.73,0,0,0,37,77l.64,0a2,2,0,0,0,0,.26,2.85,2.85,0,0,0,1.09,1.57l.15.11a2.69,2.69,0,0,0,1.25.44l.67,0a2.38,2.38,0,0,0,.38-.11v.24a2.11,2.11,0,0,0,.8,1.34,1.6,1.6,0,0,0,.73.35,1.63,1.63,0,0,0,.82.08,1.43,1.43,0,0,0,.73-.26,1.46,1.46,0,0,0,.59-.48l.11-.15,0,0a3,3,0,0,0,1.14,1.21,2.8,2.8,0,0,0,3.59-.77,1.37,1.37,0,0,0,.18.16,3,3,0,0,0,4.24-.42,3.19,3.19,0,0,0,.51-1.13,2.63,2.63,0,0,0,3-1.08,1.89,1.89,0,0,0,.33-1h.59A2.08,2.08,0,0,0,60,76.52a1.54,1.54,0,0,0,.36-.75,2,2,0,0,0-.09-1.35,1.7,1.7,0,0,0,.55,0,1.61,1.61,0,0,0,.75-.34,1.56,1.56,0,0,0,.58-.59,2,2,0,0,0,.24-1.56l-.2-.51s0,0,0,0a1.84,1.84,0,0,0,.81-.65,2.63,2.63,0,0,0,0-3.18,3.13,3.13,0,0,0,.89-.85,3.05,3.05,0,0,0-1-4.14l-.21-.12a2.8,2.8,0,0,0-.48-3.64,3.1,3.1,0,0,0-1.52-.67l0,0,.11-.15A1.57,1.57,0,0,0,61,57.2a1.88,1.88,0,0,0-.36-1.52,1.56,1.56,0,0,0-.57-.57,2.13,2.13,0,0,0-1.53-.31l-.23.07a2.55,2.55,0,0,0,0-.39l-.19-.64a2.69,2.69,0,0,0-.83-1l-.16-.11a1.93,1.93,0,0,0-.88-.41,2,2,0,0,0-1-.09l-.27,0-.19-.61A2.76,2.76,0,0,0,54,50.58l-.16-.1a2,2,0,0,0-.91-.41l-.1,0s0-.09,0-.14a1.92,1.92,0,0,0-.35-1.4,2,2,0,0,0-1.21-.75l-.41-.07a2,2,0,0,0-1.41.29,1.45,1.45,0,0,0-.4.42,1.45,1.45,0,0,0-.41-.1,1.31,1.31,0,0,0-.68,0,1.24,1.24,0,0,0-.58.27,1.2,1.2,0,0,0-.46.46.83.83,0,0,1-.07.13,2.21,2.21,0,0,0-.72-.89l-.16-.1a1.64,1.64,0,0,0-.78-.33,1.67,1.67,0,0,0-.83-.05,1.58,1.58,0,0,0-.73.3,1.5,1.5,0,0,0-.59.53l-.25.49,0,.17a1.69,1.69,0,0,0-.51-.23,1.9,1.9,0,0,0-.91-.17,2.65,2.65,0,0,0-1.69.77l-.35.51a2.27,2.27,0,0,0-.17.5,1.83,1.83,0,0,0-.47,0,1.64,1.64,0,0,0-.79.22,1.52,1.52,0,0,0-.67.48l-.3.47a2.13,2.13,0,0,0-.19.74,2.72,2.72,0,0,0-2.54,1.2,2.63,2.63,0,0,0-.51,1.91A2.63,2.63,0,0,0,32,56.76a2.74,2.74,0,0,0-.28,2.81,2,2,0,0,0-.63.42l-.34.45a1.48,1.48,0,0,0-.23.79,1.41,1.41,0,0,0,.06.81,1.7,1.7,0,0,0,.18.44,2.51,2.51,0,0,0-.41.32l-.36.5a1.74,1.74,0,0,0-.25.92,1.66,1.66,0,0,0,.09.93,1.82,1.82,0,0,0,.46.81,1.85,1.85,0,0,0,.39.4.71.71,0,0,0-.14.1l-.38.4a1.53,1.53,0,0,0-.31.73,1.62,1.62,0,0,0,0,.79,1.65,1.65,0,0,0,.32.77,1.71,1.71,0,0,0,.57.63l.16.11a2.13,2.13,0,0,0,1.08.38l-.11.11a1.29,1.29,0,0,0-.28.59,1.36,1.36,0,0,0-.06.64,1.3,1.3,0,0,0,.23.63,1.69,1.69,0,0,0,.23.36,1.32,1.32,0,0,0-.25.52,1.91,1.91,0,0,0,.19,1.42l.2.37A2,2,0,0,0,33.23,75.79Z"/><path class="cls-7" d="M31.08,35.35a2,2,0,0,0,1.05,1.09l.14.06a1,1,0,0,0,0,.1,1.84,1.84,0,0,0-.22,1v.18a2.37,2.37,0,0,0,.39,1.32l.43.51-.21.2a1.8,1.8,0,0,0-.53.84,1.83,1.83,0,0,0-.2.95v.19A2.45,2.45,0,0,0,32.3,43l.46.53a2.62,2.62,0,0,0,.34.24l-.21.15a2,2,0,0,0-.71,1.42,1.48,1.48,0,0,0,.16.8,1.62,1.62,0,0,0,.45.72,1.66,1.66,0,0,0,.71.45,1.74,1.74,0,0,0,.82.2h.26a2.81,2.81,0,0,0-.36,1.63,3,3,0,0,0,3,2.49l0,.24a3.21,3.21,0,0,0,3.12,3.22,4,4,0,0,0,1.36-.24,2.91,2.91,0,0,0,2.9,1.82,2.36,2.36,0,0,0,1.12-.29s0,0,0,0l.35.46a2.43,2.43,0,0,0,1.57.7,1.92,1.92,0,0,0,.92-.14,1.7,1.7,0,0,0,.78-.42,1.59,1.59,0,0,0,.39-.43,1.55,1.55,0,0,0,.38.43,1.73,1.73,0,0,0,.79.42,1.88,1.88,0,0,0,.91.14,2.45,2.45,0,0,0,1.58-.7l.34-.46,0,0a2.32,2.32,0,0,0,1.11.29,2.93,2.93,0,0,0,2.91-1.82,4,4,0,0,0,1.35.24,3.19,3.19,0,0,0,3.12-3.22,2,2,0,0,0,0-.24,3,3,0,0,0,3-2.49,2.66,2.66,0,0,0-.36-1.63h.26a1.82,1.82,0,0,0,.83-.2,1.72,1.72,0,0,0,.71-.45,1.62,1.62,0,0,0,.45-.72,1.57,1.57,0,0,0,.15-.8,2,2,0,0,0-.7-1.42l-.22-.15a2.62,2.62,0,0,0,.34-.24l.47-.53a2.44,2.44,0,0,0,.4-1.27v-.19a1.83,1.83,0,0,0-.19-.95,1.9,1.9,0,0,0-.54-.84,1.34,1.34,0,0,0-.21-.2l.43-.51a2.47,2.47,0,0,0,.4-1.32v-.18a1.93,1.93,0,0,0-.22-1,.69.69,0,0,1,0-.1l.13-.06a1.93,1.93,0,0,0,1-1.09,1.84,1.84,0,0,0-.08-1.42L68,33.55a2,2,0,0,0-1.17-1,1.77,1.77,0,0,0-.64-.09,1.55,1.55,0,0,0-.17-.4,1.36,1.36,0,0,0-.44-.55,1.47,1.47,0,0,0-.62-.32,1.56,1.56,0,0,0-.71-.11l-.17,0A2,2,0,0,0,64.46,30v-.19a1.5,1.5,0,0,0-.2-.83,1.69,1.69,0,0,0-.49-.7,2.69,2.69,0,0,0-1.61-.6l-.61.08-.18,0a1.69,1.69,0,0,0-.12-.54,1.77,1.77,0,0,0-.43-.85,1.93,1.93,0,0,0-.8-.61,2.16,2.16,0,0,0-1-.33l-.68,0a2.09,2.09,0,0,0-.56.14,2.13,2.13,0,0,0-1-.92,1.89,1.89,0,0,0-.88-.27l-.62,0a2.31,2.31,0,0,0-.79.27,3.42,3.42,0,0,0-4.8-.71,3.43,3.43,0,0,0-4.81.71,2.31,2.31,0,0,0-.79-.27l-.62,0a1.85,1.85,0,0,0-.87.27,1.81,1.81,0,0,0-.7.52,1.52,1.52,0,0,0-.28.4,2.19,2.19,0,0,0-.56-.14l-.69,0a2.16,2.16,0,0,0-1,.33,1.9,1.9,0,0,0-.79.61,1.78,1.78,0,0,0-.44.85,1.69,1.69,0,0,0-.12.54l-.18,0-.61-.08a1.82,1.82,0,0,0-.86.17,1.78,1.78,0,0,0-.74.43,1.6,1.6,0,0,0-.49.7,1.51,1.51,0,0,0-.21.83V30a2.1,2.1,0,0,0,.34,1.11l-.16,0a1.54,1.54,0,0,0-.71.11,1.45,1.45,0,0,0-.63.32,1.34,1.34,0,0,0-.43.55,1.08,1.08,0,0,0-.17.4,1.74,1.74,0,0,0-.64.09,2.06,2.06,0,0,0-1.18,1l-.2.38A1.8,1.8,0,0,0,31.08,35.35Z"/><path class="cls-8" d="M61.73,41.89c.13-1.52-.32-2.82-.22-3.58h0c-1.33-1.65-2.17-3.59-4-4.77a23.77,23.77,0,0,0-6.78-2.83c-5.7-1.43-11.3,2.74-13.07,8.13a.31.31,0,0,1,0,.1A21.6,21.6,0,0,1,38,41.88c-1.54,0-2.33.81-1.79,2.43,0,0,.59,2.63,1,3.89a1.49,1.49,0,0,0,1.48,1.2c0,.84,0,1.67,0,2.51a4.5,4.5,0,0,0,.86,2.81c1.5,2.18,9.23,7.2,11.1,7,3,0,9-5.14,10.58-7.7a3.87,3.87,0,0,0,.48-1.69c0-1,0-2,0-3a1.51,1.51,0,0,0,1.27-1.19c.39-1.26,1-3.86,1-3.89C64.43,42.69,63.27,41.86,61.73,41.89Z"/><path class="cls-9" d="M66.35,67.46,66,67.34l-.58-.24c-1.23-.53-9.26-3.27-9.26-3.27A1.82,1.82,0,0,1,55,62.75a8.72,8.72,0,0,1-.23-2.92,22.05,22.05,0,0,1-4.23,1.43c-1.87.18-5.15-2.27-5.15-2.27s-.09,3-.22,3.71a1.66,1.66,0,0,1-1.26,1.13l-7.74,2.58a8.1,8.1,0,0,0-2.18.91A7.8,7.8,0,0,0,30.67,72h-.05a4.34,4.34,0,0,0-.09.61A5.51,5.51,0,0,0,30.39,74c0,.47-.05,7.13-.09,7.67,6.79,7,16.3,5.48,26.83,5.48,4.63,0,10.41-2.34,13.15-5.08C69.84,72.64,70.61,68.77,66.35,67.46Z"/><path class="cls-10" d="M42,65.24c1.53,1.22,12.93,1.85,16.11-.55l4.85,1.65,1.43,19.08A48.35,48.35,0,0,1,36,84.9l.77-18Z"/><g class="cls-11"><g class="cls-12"><ellipse class="cls-13" cx="42.95" cy="50.55" rx="1.97" ry="2"/></g><g class="cls-12"><ellipse class="cls-13" cx="58.07" cy="50.55" rx="1.97" ry="2"/></g></g><line class="cls-14" x1="38.1" y1="41.88" x2="38.92" y2="49.92"/><line class="cls-14" x1="61.91" y1="41.42" x2="61.42" y2="49.49"/><path class="cls-15" d="M50.29,52.76a2.68,2.68,0,0,0,2-.9.15.15,0,0,0,0-.2h0a.14.14,0,0,0-.19,0,2.65,2.65,0,0,1-3.59,0,.12.12,0,0,0-.1,0l-.09,0a.15.15,0,0,0,0,.2A2.66,2.66,0,0,0,50.29,52.76Z"/><path class="cls-15" d="M51.18,59.48a.09.09,0,0,0,0-.18H49.4a.09.09,0,0,0,0,.18Z"/><path class="cls-16" d="M48.24,40.71a20.93,20.93,0,0,0-7.42-.78.22.22,0,0,0-.21.19.23.23,0,0,0,.19.21,66.18,66.18,0,0,1,6.65,1.43h.08a.23.23,0,0,0,.2-.07l.62-.68a.2.2,0,0,0,0-.18A.22.22,0,0,0,48.24,40.71Z"/><path class="cls-16" d="M52.24,40.51a21,21,0,0,1,7.45-.39.22.22,0,0,1,.2.2.21.21,0,0,1-.2.2s-5.11.61-6.71,1.08H52.9a.26.26,0,0,1-.2-.08l-.58-.71a.17.17,0,0,1,0-.18A.22.22,0,0,1,52.24,40.51Z"/><path class="cls-7" d="M44.69,42.78a1.38,1.38,0,0,0-1.2.83.64.64,0,0,1,.2,0,.83.83,0,0,1,0,1.65.67.67,0,0,1-.37-.11,1.52,1.52,0,0,0,1.37,1.3,1.87,1.87,0,0,0,0-3.64Z"/><path class="cls-7" d="M55.69,42.78a1.32,1.32,0,0,0-1.08.63.58.58,0,0,1,.26-.06.83.83,0,0,1,0,1.65.73.73,0,0,1-.62-.36,1.48,1.48,0,1,0,1.44-1.86Z"/><path class="cls-17" d="M66.39,67.61l-.34-.12-.58-.24C64.24,66.72,56.21,64,56.21,64A1.84,1.84,0,0,1,55,62.9a8.21,8.21,0,0,1-.24-2.69,24.41,24.41,0,0,0,6.45-6,4,4,0,0,0,.47-1.69c0-1,0-2,0-3A1.49,1.49,0,0,0,63,48.35c.39-1.25,1-3.86,1-3.88.53-1.62-.63-2.46-2.17-2.43,0-.42,0-1.08.06-1a4.43,4.43,0,0,0,.43-1.72c0-6.23-5.55-11.29-12.4-11.29S37.45,33.08,37.45,39.31A4.79,4.79,0,0,0,37.91,41,8.32,8.32,0,0,1,38,42c-1.54,0-2.32.82-1.79,2.44,0,0,.6,2.63,1,3.88a1.5,1.5,0,0,0,1.48,1.21c0,.83,0,1.67,0,2.5a4.48,4.48,0,0,0,.86,2.81c.81,1.17,3.4,3.15,5.92,4.72,0,.73-.17,2.72-.27,3.26A1.66,1.66,0,0,1,43.9,64l-7.74,2.59a10.78,10.78,0,0,0-2.18.91c-4.51,2.29-3.64,13.6-3.68,14.14,10.24,8.89,36.24,5.69,40,.4C69.84,72.64,70.65,68.92,66.39,67.61Z"/><path class="cls-18" d="M45.61,59.46s3.42,1.86,5.24,1.71a14,14,0,0,0,4.43-1.63"/><path class="cls-7" d="M56.43,28.84A3.76,3.76,0,0,1,56.12,32a3,3,0,0,1-3.32.72c.54,2.26-3.79,2.94-4.76,1.07.84,2-3.54,4-4.88,2A3,3,0,0,1,42,38.44a3.2,3.2,0,0,1-2.68.42,1.51,1.51,0,0,1,.4,1.69,1.38,1.38,0,0,1-1.33.83,2.35,2.35,0,0,1-1.49-.78,5.62,5.62,0,0,1-1.1-5.12,9.31,9.31,0,0,1,2.68-4.27,16.53,16.53,0,0,1,9.89-4.71,8.54,8.54,0,0,1,6,1.34,3.34,3.34,0,0,1,1.52,2.7"/><path class="cls-7" d="M62.46,33.09c-1.52-1.67-3.69-1.75-5.81-1.58a.49.49,0,0,0-.32.16.54.54,0,0,0-.32.11,1.84,1.84,0,0,0-.38,2.53,2.13,2.13,0,0,0,2.21.8,1.74,1.74,0,0,0,2,1.8,1.82,1.82,0,0,0,.73,1.93A1.41,1.41,0,0,0,61.09,41c1.52.8,2.51-.9,2.69-2.16C64.09,36.6,64.08,34.86,62.46,33.09Z"/><path class="cls-7" d="M56.76,55a.14.14,0,0,0,0-.2h0a.15.15,0,0,0-.21,0,10.39,10.39,0,0,1-6.32,1.74,10.43,10.43,0,0,1-6.33-1.74.14.14,0,0,0-.09,0,.14.14,0,0,0-.11.06.14.14,0,0,0,0,.2,11.36,11.36,0,0,0,13,0Z"/><path class="cls-19" d="M57,66.88a28,28,0,0,1-7,.71,28.07,28.07,0,0,1-7-.71,1.72,1.72,0,0,1-1.6-1.81h0a1.71,1.71,0,0,1,1.6-1.8s4.37.52,6.86.52S57,63.27,57,63.27a1.71,1.71,0,0,1,1.6,1.8h0A1.72,1.72,0,0,1,57,66.88Z"/></g></g></g></svg>