<svg xmlns="http://www.w3.org/2000/svg" viewBox="0 0 100 100" width="100" height="100" style="fill: rgb(0, 0, 0);"><defs><style>.cls-1{isolation:isolate;}.cls-2{fill:#f1bc19;}.cls-3{fill:#fff;}.cls-4{fill:#f9dbd2;}.cls-5{fill:#f8ab97;}.cls-6{fill:#fbcd59;}.cls-15,.cls-7{fill:#472b29;}.cls-8{fill:#d8ad8f;}.cls-9{fill:#b2876b;}.cls-10{opacity:0.3;}.cls-11{opacity:0.8;mix-blend-mode:multiply;}.cls-12{fill:#f4989e;}.cls-13,.cls-16,.cls-17{fill:none;stroke:#472b29;stroke-linecap:round;stroke-linejoin:round;}.cls-13{stroke-width:0.4px;}.cls-14{fill:#c0d078;}.cls-15{opacity:0.41;}.cls-16{stroke-width:0.5px;}.cls-18{fill:#6d1b18;}.cls-19{fill:#ee3e54;}.cls-20{fill:#fdfcef;}.cls-21{fill:#ee8670;}.cls-22{fill:#f94e32;}</style></defs><title>Artboard 47</title><g class="cls-1"><g id="line5"><circle class="cls-2" cx="46.62" cy="32.93" r="0.89"/><circle class="cls-3" cx="22.06" cy="58.47" r="0.89"/><circle class="cls-3" cx="81.11" cy="33.6" r="0.68"/><circle class="cls-2" cx="78.48" cy="14.57" r="0.89"/><circle class="cls-2" cx="22.56" cy="66.15" r="0.89"/><circle class="cls-4" cx="51.6" cy="51.8" r="37.45"/><circle class="cls-2" cx="83.93" cy="16.72" r="4.01"/><circle class="cls-5" cx="87.93" cy="25.79" r="1.88"/><circle class="cls-6" cx="78.95" cy="78.21" r="1.88"/><circle class="cls-6" cx="15.79" cy="65.26" r="4.01"/><circle class="cls-5" cx="26.02" cy="89.4" r="1.88"/><circle class="cls-3" cx="77.6" cy="32.09" r="1.8"/><circle class="cls-3" cx="19.53" cy="53.15" r="2.54"/><path class="cls-7" d="M70.78,49.24a2.3,2.3,0,0,0-1.17-1.3l-.15-.07,0-.12a2.43,2.43,0,0,0,.25-1.16v-.22a3.13,3.13,0,0,0-.44-1.58l-.48-.6.23-.23a3.35,3.35,0,0,0,.82-2.13V41.6a3,3,0,0,0-.46-1.51l-.52-.63a2.12,2.12,0,0,0-.38-.29l.25-.17a2.57,2.57,0,0,0,.78-1.7,1.81,1.81,0,0,0-.17-.95,2,2,0,0,0-.5-.86,1.91,1.91,0,0,0-.79-.53,1.86,1.86,0,0,0-.92-.24h-.3a3.49,3.49,0,0,0,.41-1.94,3.41,3.41,0,0,0-3.35-3,2.85,2.85,0,0,0,0-.29,3.71,3.71,0,0,0-3.48-3.84A4.22,4.22,0,0,0,59,26a3.26,3.26,0,0,0-3.24-2.17,2.48,2.48,0,0,0-1.25.35s0,0,0,0l-.39-.54a2.6,2.6,0,0,0-1.75-.84,2,2,0,0,0-1,.17,2.33,2.33,0,0,0-1.31,1,2.33,2.33,0,0,0-1.31-1,2,2,0,0,0-1-.17,2.6,2.6,0,0,0-1.75.84l-.39.54s0,0,0,0a2.48,2.48,0,0,0-1.25-.35A3.26,3.26,0,0,0,41,26a4.22,4.22,0,0,0-1.51-.29A3.71,3.71,0,0,0,36,29.53a2.85,2.85,0,0,0,0,.29,3.41,3.41,0,0,0-3.35,3,3.49,3.49,0,0,0,.41,1.94h-.3a1.86,1.86,0,0,0-.92.24,1.91,1.91,0,0,0-.79.53,2,2,0,0,0-.5.86,1.81,1.81,0,0,0-.17.95,2.57,2.57,0,0,0,.78,1.7l.25.17a2.12,2.12,0,0,0-.38.29l-.52.63a3,3,0,0,0-.46,1.51v.23A3.35,3.35,0,0,0,30.94,44l.23.23-.48.6a3.13,3.13,0,0,0-.44,1.58v.22a2.43,2.43,0,0,0,.25,1.16s0,.08,0,.12l-.15.07a2.23,2.23,0,0,0-1.07,3l.22.45a2.42,2.42,0,0,0,1.31,1.17,1.81,1.81,0,0,0,.72.11,1.72,1.72,0,0,0,.19.47,1.48,1.48,0,0,0,.48.65,1.62,1.62,0,0,0,.7.39,1.53,1.53,0,0,0,.79.12l.19,0a2.47,2.47,0,0,0-.38,1.31v.23a1.81,1.81,0,0,0,.23,1,1.9,1.9,0,0,0,.54.83,2.06,2.06,0,0,0,.83.51,2,2,0,0,0,1,.21l.68-.1.19-.06a2.44,2.44,0,0,0,.14.65,2.69,2.69,0,0,0,1.37,1.73,2.25,2.25,0,0,0,1.12.39l.76,0a2.66,2.66,0,0,0,.63-.17,1.72,1.72,0,0,0,.31.48,2.8,2.8,0,0,0,1.75.93l.7,0a2.67,2.67,0,0,0,.88-.33,3.44,3.44,0,0,0,3.06,1.65,3.34,3.34,0,0,0,2.3-.81,3.34,3.34,0,0,0,2.3.81,3.44,3.44,0,0,0,3.06-1.65,2.67,2.67,0,0,0,.88.33l.7,0a2.8,2.8,0,0,0,1.75-.93,1.72,1.72,0,0,0,.31-.48,2.66,2.66,0,0,0,.63.17l.76,0a2.25,2.25,0,0,0,1.12-.39,2.69,2.69,0,0,0,1.37-1.73,2.44,2.44,0,0,0,.14-.65l.19.06.68.1a2,2,0,0,0,1-.21,2.06,2.06,0,0,0,.83-.51,1.9,1.9,0,0,0,.54-.83,1.81,1.81,0,0,0,.23-1v-.23a2.47,2.47,0,0,0-.38-1.31l.19,0a1.53,1.53,0,0,0,.79-.12,1.62,1.62,0,0,0,.7-.39,1.48,1.48,0,0,0,.48-.65,1.72,1.72,0,0,0,.19-.47,1.81,1.81,0,0,0,.72-.11,2.42,2.42,0,0,0,1.31-1.17l.22-.45A2.3,2.3,0,0,0,70.78,49.24Z"/><path class="cls-8" d="M61.5,44c.13-1.52-.32-2.82-.22-3.58h0c-1.33-1.65-2.17-3.59-4-4.77a23.77,23.77,0,0,0-6.78-2.83c-5.7-1.43-11.3,2.74-13.06,8.13l-.06.1A21.6,21.6,0,0,1,37.73,44c-1.54,0-2.32.81-1.79,2.43,0,0,.6,2.63,1,3.89a1.49,1.49,0,0,0,1.48,1.2c0,.84,0,1.67,0,2.51a4.5,4.5,0,0,0,.86,2.81c1.51,2.18,9.23,7.2,11.1,7,3,0,9-5.14,10.59-7.7a4,4,0,0,0,.47-1.69c0-1,0-2,0-3a1.51,1.51,0,0,0,1.27-1.19c.39-1.26,1-3.86,1-3.89C64.2,44.78,63,44,61.5,44Z"/><path class="cls-9" d="M66.12,69.55l-.34-.12-.58-.24c-1.23-.53-9.26-3.27-9.26-3.27a1.87,1.87,0,0,1-1.22-1.08,8.72,8.72,0,0,1-.23-2.92,22.05,22.05,0,0,1-4.23,1.43c-1.87.18-5.15-2.27-5.15-2.27s-.09,3-.22,3.71a1.68,1.68,0,0,1-1.26,1.13L35.89,68.5a8.1,8.1,0,0,0-2.18.91,7.8,7.8,0,0,0-3.27,4.68h-.05a4.34,4.34,0,0,0-.09.61A5.51,5.51,0,0,0,30.16,76c0,.47-.09,6-.13,6.52,7.2,5.53,16.08,6.22,26.61,6.22,4.63,0,9.22-2.79,13.31-4.32C69.52,75.08,70.38,70.86,66.12,69.55Z"/><g class="cls-10"><g class="cls-11"><ellipse class="cls-12" cx="42.72" cy="52.64" rx="1.97" ry="2"/></g><g class="cls-11"><ellipse class="cls-12" cx="57.84" cy="52.64" rx="1.97" ry="2"/></g></g><line class="cls-13" x1="37.87" y1="43.97" x2="38.69" y2="52.01"/><line class="cls-13" x1="61.69" y1="43.51" x2="61.19" y2="51.58"/><path class="cls-14" d="M63.14,68.17c.72,10-26.6,9.09-26.3.14l-.81.08L34.77,85.47C48.9,92.91,65.29,86.7,65.29,86.7L64,68.53A8.33,8.33,0,0,1,63.14,68.17Z"/><path class="cls-15" d="M51,61.57a.09.09,0,0,0,0-.18H49.17a.09.09,0,0,0,0,.18Z"/><path class="cls-16" d="M45.38,61.55s3.42,1.86,5.24,1.71a14,14,0,0,0,4.43-1.63"/><path class="cls-7" d="M62.31,36.14A1.67,1.67,0,0,0,62.8,35a1.63,1.63,0,0,0-.4-1,1.72,1.72,0,0,0,.54-1.22A2.14,2.14,0,0,0,61,30.83a2.77,2.77,0,0,0-.65-.22,1.41,1.41,0,0,0,.11-.54A2.25,2.25,0,0,0,58,28.15a2.87,2.87,0,0,0-1.6.46A2.91,2.91,0,0,0,53.62,27c-1.59,0-2.88,1-2.88,2.26a1.84,1.84,0,0,0,.29,1,2.82,2.82,0,0,0-.83.29s0,0,0-.06a1.92,1.92,0,0,0-1.05-1.63,1.54,1.54,0,0,0,0-.3c0-1.2-1.25-2.17-2.78-2.17h-.15a4.17,4.17,0,0,0-.71-.06,3.9,3.9,0,0,0-2.24.67,2.38,2.38,0,0,0-2.43,2.08,2.39,2.39,0,0,0-1.84,1,2.08,2.08,0,0,0-1.31,1.81,2,2,0,0,0-1.68,1.82,1.44,1.44,0,0,0,.08.46,2.19,2.19,0,0,0-1,1.74,2.33,2.33,0,0,0,1.36,2,1.47,1.47,0,0,0,0,.36c0,1.36,1.42,2.47,3.16,2.47a3.71,3.71,0,0,0,2.19-.69,2.15,2.15,0,0,0,1.8-1.37h0a2.22,2.22,0,0,0,2.43-1.9v0a2.39,2.39,0,0,0,1.67-1.2l.35-.08a3.26,3.26,0,0,0,3,1.59,2.26,2.26,0,0,0,2.4,1.7h.22a1.79,1.79,0,0,0,0,.23A2.27,2.27,0,0,0,56.2,41a2.66,2.66,0,0,0,2.16-1,3.6,3.6,0,0,0,2.26.74c1.76,0,3.18-1.11,3.18-2.48A2.44,2.44,0,0,0,62.31,36.14Z"/><path class="cls-17" d="M66.16,69.7l-.34-.12-.58-.24C64,68.81,56,66.07,56,66.07A1.84,1.84,0,0,1,54.76,65a8.21,8.21,0,0,1-.24-2.69,24.41,24.41,0,0,0,6.45-6,4,4,0,0,0,.47-1.69c0-1,0-2,0-3a1.49,1.49,0,0,0,1.27-1.19c.39-1.25,1-3.86,1-3.88.53-1.62-.63-2.46-2.17-2.43,0-.43,0-1.08.06-1A4.43,4.43,0,0,0,62,41.4c0-6.23-5.55-11.29-12.4-11.29S37.22,35.17,37.22,41.4a4.79,4.79,0,0,0,.46,1.65,8.32,8.32,0,0,1,.09,1.07c-1.54,0-2.32.82-1.79,2.44,0,0,.6,2.63,1,3.88a1.5,1.5,0,0,0,1.48,1.21c0,.83,0,1.67,0,2.5A4.48,4.48,0,0,0,39.28,57c.81,1.17,3.4,3.15,5.92,4.72,0,.73-.17,2.71-.27,3.26a1.66,1.66,0,0,1-1.26,1.13l-7.74,2.59a10.78,10.78,0,0,0-2.18.91c-4.34,2.21-3.69,11.86-3.68,13A37.41,37.41,0,0,0,70,84.46C69.72,76.48,70,70.88,66.16,69.7Z"/><path class="cls-7" d="M47.83,41a20.83,20.83,0,0,0-7.23,1.7.22.22,0,0,0-.14.25.23.23,0,0,0,.25.13s5.06-.84,6.71-.83l.09,0a.26.26,0,0,0,.17-.14l.35-.84a.15.15,0,0,0,0-.17A.23.23,0,0,0,47.83,41Z"/><path class="cls-7" d="M52,42a20.85,20.85,0,0,1,7.42-.39.21.21,0,0,1,.2.2.22.22,0,0,1-.2.2,67.52,67.52,0,0,0-6.68,1.07l-.08,0a.27.27,0,0,1-.2-.09l-.58-.71a.17.17,0,0,1,0-.17A.24.24,0,0,1,52,42Z"/><path class="cls-7" d="M44.53,44.26a1.38,1.38,0,0,0-1.2.83.65.65,0,0,1,.2,0,.83.83,0,0,1,0,1.65.67.67,0,0,1-.37-.11,1.53,1.53,0,0,0,1.37,1.29,1.86,1.86,0,0,0,0-3.62Z"/><path class="cls-7" d="M55.47,44.26a1.31,1.31,0,0,0-1.07.62.76.76,0,0,1,.26-.06.83.83,0,0,1,0,1.65.73.73,0,0,1-.62-.36,1.47,1.47,0,1,0,1.43-1.85Z"/><path class="cls-15" d="M50.19,54.22a1.69,1.69,0,0,0,1.34-.74.3.3,0,0,0,0-.35.18.18,0,0,0-.29,0,1.34,1.34,0,0,1-2.07,0,.18.18,0,0,0-.29,0,.3.3,0,0,0,0,.35A1.69,1.69,0,0,0,50.19,54.22Z"/><path class="cls-18" d="M46.75,56.62a1.84,1.84,0,0,0-.06.47c0,1.39,1.54,2.52,3.44,2.52s3.43-1.13,3.43-2.52a1.84,1.84,0,0,0-.06-.47Z"/><path class="cls-19" d="M51.94,59.22a3,3,0,0,0-3.63,0,4.42,4.42,0,0,0,3.63,0Z"/><path class="cls-20" d="M47.74,56.62s0,0,0,0v.43c0,.37.49.67,1.09.67h2.61c.6,0,1.09-.3,1.09-.67v-.43s0,0,0,0Z"/><path class="cls-13" d="M46.75,56.62a1.84,1.84,0,0,0-.06.47c0,1.39,1.54,2.52,3.44,2.52s3.43-1.13,3.43-2.52a1.84,1.84,0,0,0-.06-.47Z"/><path class="cls-21" d="M49.67,27.38c-7.34,0-13.28,5.05-13.28,11.29a4.24,4.24,0,0,0,.47,1.72c1.62-5.54,9-8.19,12.81-8.19s11.12,2.3,12.81,8.19a4.36,4.36,0,0,0,.46-1.72C62.94,32.43,57,27.38,49.67,27.38Z"/><path class="cls-22" d="M61.23,43.36A6.44,6.44,0,0,0,59,43.05a29.62,29.62,0,0,0-3.47.26,17.84,17.84,0,0,0-4.39,1.37,3.55,3.55,0,0,1-1.67.42,3.59,3.59,0,0,1-1.68-.42,17.75,17.75,0,0,0-4.38-1.37,29.92,29.92,0,0,0-3.48-.26,6.52,6.52,0,0,0-2.22.31c-.29.18-.4.29-.14,1.32a9.71,9.71,0,0,0,1.09,2.58A7.8,7.8,0,0,0,42,50.14a4.5,4.5,0,0,0,3.39,0,6.11,6.11,0,0,0,2.53-2.33c.32-.59.75-1.56,1.23-1.6l.31,0,.3,0c.49,0,.92,1,1.24,1.6a6.08,6.08,0,0,0,2.52,2.33,4.52,4.52,0,0,0,3.4,0,7.69,7.69,0,0,0,3.34-2.88,9.62,9.62,0,0,0,1.1-2.58C61.63,43.65,61.53,43.54,61.23,43.36ZM47.81,46.89a5.13,5.13,0,0,1-1.69,2.25,4.09,4.09,0,0,1-3.42.62,6.24,6.24,0,0,1-2.94-1.94,3.61,3.61,0,0,1-.27-3.4c.35-.66,1.58-.78,2.25-.82a14.8,14.8,0,0,1,4,.61c1.8.48,2.1,1.42,2.1,1.42A1.9,1.9,0,0,1,47.81,46.89Zm11.38.93a6.26,6.26,0,0,1-2.93,1.94,4.08,4.08,0,0,1-3.42-.62,5.17,5.17,0,0,1-1.7-2.25,1.9,1.9,0,0,1,0-1.26s.3-.94,2.1-1.42a14.86,14.86,0,0,1,4-.61c.66,0,1.9.16,2.25.82A3.59,3.59,0,0,1,59.19,47.82Z"/></g></g></svg>