<svg xmlns="http://www.w3.org/2000/svg" viewBox="0 0 100 100" width="100" height="100" style="fill: rgb(0, 0, 0);"><defs><style>.cls-1{isolation:isolate;}.cls-2{fill:#fff;}.cls-3{fill:#f1bc19;}.cls-4{fill:#c0e5e4;}.cls-5{fill:#00a5a5;}.cls-6{fill:#fbcd59;}.cls-18,.cls-7{fill:#472b29;}.cls-8{fill:#d8ad8f;}.cls-9{fill:#b2876b;}.cls-10{opacity:0.3;}.cls-11{opacity:0.8;mix-blend-mode:multiply;}.cls-12{fill:#f4989e;}.cls-13,.cls-20,.cls-21{fill:none;stroke:#472b29;stroke-linecap:round;stroke-linejoin:round;}.cls-13{stroke-width:0.4px;}.cls-14{fill:#6d1b18;}.cls-15{fill:#ee3e54;}.cls-16{fill:#fdfcef;}.cls-17{fill:#83ccb7;}.cls-18{opacity:0.41;}.cls-19{fill:#512c2b;}.cls-20{stroke-width:0.5px;}</style></defs><title>Artboard 60</title><g class="cls-1"><g id="line6"><circle class="cls-2" cx="19.71" cy="56.65" r="0.89"/><circle class="cls-2" cx="78.76" cy="31.78" r="0.68"/><circle class="cls-3" cx="76.13" cy="12.74" r="0.89"/><circle class="cls-3" cx="20.21" cy="64.32" r="0.89"/><circle class="cls-4" cx="49.25" cy="49.97" r="37.45"/><circle class="cls-3" cx="81.58" cy="14.9" r="4.01"/><circle class="cls-5" cx="85.58" cy="23.97" r="1.88"/><circle class="cls-6" cx="76.6" cy="76.38" r="1.88"/><circle class="cls-6" cx="13.44" cy="63.44" r="4.01"/><circle class="cls-5" cx="23.67" cy="87.57" r="1.88"/><circle class="cls-2" cx="75.25" cy="30.26" r="1.8"/><circle class="cls-2" cx="17.18" cy="51.33" r="2.54"/><path class="cls-7" d="M43.83,28.11s-9.36-6.11-15,2.83S34.89,51.12,31,54.27c4.68-1.78,4.76-9.06,2.84-15-1.69-5.22,1.89-8.07,6-6.76C41.6,33.09,43.83,28.11,43.83,28.11Z"/><path class="cls-7" d="M56.17,28s9.36-6.1,15,2.83S65.11,51,69,54.18c-4.68-1.78-4.76-9.06-2.84-15,1.69-5.22-1.89-8.07-6-6.76C58.4,33,56.17,28,56.17,28Z"/><path class="cls-8" d="M62,42.15c.13-1.51-.32-2.82-.22-3.57h0c-1.33-1.64-2.17-3.59-4-4.76A23.37,23.37,0,0,0,51,31c-5.7-1.44-11.3,2.74-13.06,8.13l-.06.1a19.78,19.78,0,0,1,.37,2.94c-1.54,0-2.32.81-1.79,2.43,0,0,.6,2.63,1,3.88a1.5,1.5,0,0,0,1.48,1.21c0,.83,0,1.67,0,2.5A4.52,4.52,0,0,0,39.76,55c1.51,2.17,9.23,7.2,11.1,7,3,0,9-5.14,10.59-7.7a4,4,0,0,0,.47-1.69c0-1,0-2,0-3a1.49,1.49,0,0,0,1.27-1.19c.4-1.25,1-3.86,1-3.88C64.73,43,63.56,42.12,62,42.15Z"/><path class="cls-9" d="M66.64,67.72a2.87,2.87,0,0,1-.34-.12l-.58-.24c-1.23-.53-9.26-3.26-9.26-3.26A1.9,1.9,0,0,1,55.24,63,8.94,8.94,0,0,1,55,60.1a22.35,22.35,0,0,1-4.23,1.42c-1.86.19-5.15-2.27-5.15-2.27s-.09,3-.22,3.71a1.69,1.69,0,0,1-1.26,1.14l-7.74,2.58a7.61,7.61,0,0,0-2.17.91A7.75,7.75,0,0,0,31,72.27h-.05c0,.1-.05.32-.09.6-.14.72-.16,7.23-.14,7.35,0,.46-.09,1.54-.13,2.07,9.67,5.13,12.16,5,22.69,5,4.63,0,13.15-4,17.19-6.44C70,71.43,70.9,69,66.64,67.72Z"/><g class="cls-10"><g class="cls-11"><ellipse class="cls-12" cx="43.24" cy="50.82" rx="1.97" ry="2"/></g><g class="cls-11"><ellipse class="cls-12" cx="58.36" cy="50.82" rx="1.97" ry="2"/></g></g><line class="cls-13" x1="38.39" y1="42.14" x2="39.22" y2="50.19"/><line class="cls-13" x1="62.21" y1="41.68" x2="61.72" y2="49.75"/><path class="cls-14" d="M47.19,54.9a1.84,1.84,0,0,0-.06.47c0,1.4,1.54,2.53,3.45,2.53S54,56.77,54,55.37A1.84,1.84,0,0,0,54,54.9Z"/><path class="cls-15" d="M52.4,57.51a3.06,3.06,0,0,0-3.64,0,4.44,4.44,0,0,0,3.64,0Z"/><path class="cls-16" d="M48.18,54.9s0,0,0,0v.43c0,.37.5.68,1.1.68h2.62c.6,0,1.1-.31,1.1-.68v-.43s0,0,0,0Z"/><path class="cls-13" d="M47.19,54.9a1.84,1.84,0,0,0-.06.47c0,1.4,1.54,2.53,3.45,2.53S54,56.77,54,55.37A1.84,1.84,0,0,0,54,54.9Z"/><path class="cls-17" d="M41.63,64.94c-.22,9,17.4,9.57,16.18-.67L62.69,66,64.1,84.3s-14.94,6.37-28.37.41l.68-18Z"/><path class="cls-18" d="M50.58,53a2.66,2.66,0,0,0,2-.9.13.13,0,0,0,0-.19h0a.14.14,0,0,0-.19,0,2.61,2.61,0,0,1-3.58,0,.15.15,0,0,0-.11,0,.11.11,0,0,0-.08,0,.13.13,0,0,0,0,.19A2.66,2.66,0,0,0,50.58,53Z"/><path class="cls-18" d="M51.47,59.75a.09.09,0,0,0,0-.18H49.69a.09.09,0,0,0,0,.18Z"/><path class="cls-19" d="M48.54,41a21,21,0,0,0-7.43-.77.2.2,0,1,0,0,.39s5.07.88,6.64,1.43l.08,0A.3.3,0,0,0,48,42l.61-.68a.16.16,0,0,0,0-.17A.24.24,0,0,0,48.54,41Z"/><path class="cls-19" d="M52.53,40.78A20.84,20.84,0,0,1,60,40.39a.21.21,0,0,1,.19.2.21.21,0,0,1-.2.19s-5.11.61-6.71,1.09h-.08a.25.25,0,0,1-.2-.09l-.58-.71a.19.19,0,0,1,0-.18A.26.26,0,0,1,52.53,40.78Z"/><path class="cls-7" d="M45,43.05a1.4,1.4,0,0,0-1.21.83.71.71,0,0,1,.2,0,.83.83,0,0,1,0,1.66.8.8,0,0,1-.37-.11A1.54,1.54,0,0,0,45,46.68a1.87,1.87,0,0,0,0-3.63Z"/><path class="cls-7" d="M56,43.05a1.33,1.33,0,0,0-1.08.62.76.76,0,0,1,.26-.06.83.83,0,0,1,0,1.66.74.74,0,0,1-.62-.36A1.48,1.48,0,1,0,56,43.05Z"/><path class="cls-20" d="M45.9,59.73s3.43,1.86,5.25,1.71a14.24,14.24,0,0,0,4.42-1.64"/><path class="cls-21" d="M66.68,67.88a3.19,3.19,0,0,1-.34-.13l-.58-.23c-1.23-.53-9.26-3.27-9.26-3.27a1.89,1.89,0,0,1-1.22-1.08,8.27,8.27,0,0,1-.24-2.7,24.25,24.25,0,0,0,6.45-6A4,4,0,0,0,62,52.77c0-1,0-2,0-3a1.48,1.48,0,0,0,1.27-1.19c.4-1.25,1-3.86,1-3.88.53-1.62-.64-2.45-2.18-2.42,0-.43,0-1.08.07-1a4.77,4.77,0,0,0,.42-1.72c0-6.24-5.55-11.29-12.4-11.29S37.74,33.34,37.74,39.58a4.42,4.42,0,0,0,.47,1.64,10.15,10.15,0,0,1,.08,1.08c-1.54,0-2.32.81-1.79,2.43,0,0,.6,2.63,1,3.88A1.5,1.5,0,0,0,39,49.82c0,.84,0,1.67,0,2.5a4.5,4.5,0,0,0,.85,2.82c.81,1.17,3.4,3.15,5.93,4.71,0,.74-.18,2.72-.28,3.27a1.69,1.69,0,0,1-1.26,1.13l-7.74,2.58a11,11,0,0,0-2.17.91c-4.51,2.3-3.69,14-3.73,14.55,2.38,2.17,12.4,5,18.75,5a37.27,37.27,0,0,0,21.13-6.53C70.26,73.81,70.22,69,66.68,67.88Z"/><path class="cls-19" d="M50.31,25.86c-11.09.24-14.12,9.67-14.65,11.63.29-.31.59-.62.9-.9-.67,3.52,1.36,6.4,2.89,9.33C37.93,43,45,35.31,50.33,33.56c-.32.55-.61,1.11-.88,1.67s-1.13,4-1.49,4.11a15.41,15.41,0,0,0,6.71-5.25,5.06,5.06,0,0,0,.77-1.62c-.49,6.45,6.46,9.86,6.23,13.65C67,36,59.35,25.66,50.31,25.86Z"/><path class="cls-5" d="M48.87,42.61c-2.25-2.74-10.72-.8-10.73-.8.16.62.29,1.23.41,1.84.63.06.67,1.47.73,2,.31,2.5,2,4.34,5.5,4.25a4.41,4.41,0,0,0,4.49-4.34A6.19,6.19,0,0,0,48.87,42.61Zm-.4,3.07a3.67,3.67,0,0,1-3.78,3.65,4.73,4.73,0,0,1-.65,0c-3.5,0-4.1-3.07-4.17-5a2.07,2.07,0,0,1,1.86-2.17c.65-.06,1.37-.06,2.21-.06,2.61,0,3.75.62,4.05,1.12A4.44,4.44,0,0,1,48.47,45.68Z"/><path class="cls-5" d="M51.35,45.55a4.4,4.4,0,0,0,4.49,4.34c3.52.09,5.19-1.75,5.5-4.25.06-.52.1-1.93.73-2,.12-.61.25-1.22.41-1.84,0,0-8.48-1.94-10.73.8A6.19,6.19,0,0,0,51.35,45.55Zm1.28-2.33c.3-.5,1.44-1.12,4-1.12.84,0,1.56,0,2.21.06a2.07,2.07,0,0,1,1.86,2.17c-.07,1.94-.67,5-4.17,5a4.73,4.73,0,0,1-.65,0,3.67,3.67,0,0,1-3.78-3.65A4.44,4.44,0,0,1,52.63,43.22Z"/><path class="cls-5" d="M51.83,44.76a2.69,2.69,0,0,0-1.58-.45,2.34,2.34,0,0,0-1.46.45l-.46-1.27h4Z"/></g></g></svg>