<svg xmlns="http://www.w3.org/2000/svg" viewBox="0 0 100 100" width="100" height="100" style="fill: rgb(0, 0, 0);"><defs><style>.cls-1{isolation:isolate;}.cls-2{fill:#fff;}.cls-3{fill:#f1bc19;}.cls-4{fill:#f9dbd2;}.cls-5{fill:#ee3e54;}.cls-6{fill:#fbcd59;}.cls-7{fill:#f6cca4;}.cls-8{fill:#edbc94;}.cls-9{opacity:0.3;}.cls-10{opacity:0.8;mix-blend-mode:multiply;}.cls-11{fill:#f4989e;}.cls-12,.cls-18,.cls-19{fill:none;stroke:#472b29;stroke-linecap:round;stroke-linejoin:round;}.cls-12{stroke-width:0.4px;}.cls-13{fill:#6d1b18;}.cls-14{fill:#fdfcef;}.cls-15,.cls-17{fill:#472b29;}.cls-15{opacity:0.41;}.cls-16{fill:#512c2b;}.cls-18{stroke-width:0.5px;}</style></defs><title>Artboard 45</title><g class="cls-1"><g id="line5"><circle class="cls-2" cx="22.06" cy="59.47" r="0.89"/><circle class="cls-2" cx="81.11" cy="34.6" r="0.68"/><circle class="cls-3" cx="78.48" cy="15.57" r="0.89"/><circle class="cls-3" cx="22.56" cy="67.15" r="0.89"/><circle class="cls-4" cx="51.38" cy="52.8" r="37.45"/><circle class="cls-3" cx="83.93" cy="17.72" r="4.01"/><circle class="cls-5" cx="87.93" cy="26.79" r="1.88"/><circle class="cls-6" cx="78.95" cy="79.21" r="1.88"/><circle class="cls-6" cx="15.79" cy="66.26" r="4.01"/><circle class="cls-5" cx="26.02" cy="90.4" r="1.88"/><circle class="cls-2" cx="77.6" cy="33.09" r="1.8"/><circle class="cls-2" cx="19.53" cy="54.15" r="2.54"/><path class="cls-7" d="M61.46,44.68c.13-1.52-.32-2.83-.22-3.58h0c-1.33-1.65-2.17-3.6-4-4.77a23.37,23.37,0,0,0-6.78-2.83c-5.7-1.43-11.3,2.74-13.06,8.13l-.06.1a19.78,19.78,0,0,1,.37,2.94c-1.54,0-2.32.81-1.79,2.43,0,0,.6,2.63,1,3.88a1.5,1.5,0,0,0,1.48,1.21c0,.84,0,1.67,0,2.5a4.5,4.5,0,0,0,.85,2.82c1.51,2.17,9.23,7.2,11.1,7,3,0,9-5.14,10.59-7.7a4,4,0,0,0,.47-1.68c0-1,0-2,0-3A1.48,1.48,0,0,0,62.64,51c.4-1.25,1-3.86,1-3.88C64.17,45.48,63,44.64,61.46,44.68Z"/><path class="cls-8" d="M66.08,70.25l-.34-.13-.58-.24c-1.23-.52-9.26-3.26-9.26-3.26a1.89,1.89,0,0,1-1.22-1.08,9,9,0,0,1-.23-2.92A22.35,22.35,0,0,1,50.22,64c-1.86.19-5.15-2.27-5.15-2.27s-.09,3-.22,3.71a1.69,1.69,0,0,1-1.26,1.14L35.85,69.2a7.91,7.91,0,0,0-2.17.91,7.78,7.78,0,0,0-3.28,4.68h0c0,.1-.05.32-.09.6-.14.72-.16,6.23-.14,6.35,0,.46-.09,1-.13,1.51,7.63,5.26,13.77,6.73,24.29,6.26,4.78-.21,11.9-2.61,15.63-4.52C69.47,75.61,70.34,71.55,66.08,70.25Z"/><g class="cls-9"><g class="cls-10"><ellipse class="cls-11" cx="42.68" cy="53.34" rx="1.97" ry="2"/></g><g class="cls-10"><ellipse class="cls-11" cx="57.8" cy="53.34" rx="1.97" ry="2"/></g></g><line class="cls-12" x1="37.83" y1="44.66" x2="38.65" y2="52.71"/><line class="cls-12" x1="61.65" y1="44.2" x2="61.16" y2="52.27"/><path class="cls-13" d="M46.79,57.45a2,2,0,0,0-.07.48c0,1.4,1.55,2.53,3.45,2.53s3.46-1.13,3.46-2.53a2,2,0,0,0-.07-.48Z"/><path class="cls-5" d="M52,60.07a2.56,2.56,0,0,0-1.83-.6,2.53,2.53,0,0,0-1.82.6,4.47,4.47,0,0,0,3.65,0Z"/><path class="cls-14" d="M47.78,57.45a.09.09,0,0,0,0,0v.43c0,.37.49.67,1.09.67h2.63c.6,0,1.09-.3,1.09-.67V57.5a.09.09,0,0,0,0,0Z"/><path class="cls-12" d="M46.79,57.45a2,2,0,0,0-.07.48c0,1.4,1.55,2.53,3.45,2.53s3.46-1.13,3.46-2.53a2,2,0,0,0-.07-.48Z"/><path class="cls-6" d="M41.07,67.46c-.22,9,17.4,9.57,16.18-.67l4.88,1.7,1.49,19.35a45.27,45.27,0,0,1-28.44-1.36l.67-17.28Z"/><path class="cls-15" d="M50.17,55.58a2.66,2.66,0,0,0,2-.9.14.14,0,0,0,0-.19h0a.13.13,0,0,0-.19,0,2.62,2.62,0,0,1-3.59,0,.14.14,0,0,0-.1,0,.18.18,0,0,0-.09,0,.13.13,0,0,0,0,.19A2.64,2.64,0,0,0,50.17,55.58Z"/><path class="cls-15" d="M51.06,62.3a.09.09,0,0,0,.08-.08.09.09,0,0,0-.08-.09H49.29a.08.08,0,0,0-.08.09.08.08,0,0,0,.08.08Z"/><path class="cls-16" d="M48.16,43.53a21.17,21.17,0,0,0-7.42-.78.22.22,0,0,0-.2.19.21.21,0,0,0,.19.21s5.07.88,6.64,1.43l.08,0a.3.3,0,0,0,.21-.08l.61-.68a.16.16,0,0,0,0-.17A.23.23,0,0,0,48.16,43.53Z"/><path class="cls-16" d="M52.16,43.34A20.83,20.83,0,0,1,59.62,43a.2.2,0,0,1,0,.39S54.5,44,52.9,44.42l-.08,0a.29.29,0,0,1-.2-.09L52,43.64a.19.19,0,0,1,0-.18A.23.23,0,0,1,52.16,43.34Z"/><path class="cls-17" d="M44.62,45.61a1.4,1.4,0,0,0-1.21.83.71.71,0,0,1,.2,0,.83.83,0,0,1,0,1.66.68.68,0,0,1-.37-.12,1.54,1.54,0,0,0,1.38,1.3,1.87,1.87,0,0,0,0-3.63Z"/><path class="cls-17" d="M55.61,45.61a1.33,1.33,0,0,0-1.08.62.58.58,0,0,1,.26-.06.83.83,0,0,1,0,1.66.77.77,0,0,1-.62-.36,1.48,1.48,0,1,0,1.44-1.86Z"/><path class="cls-18" d="M45.34,62.25s3.43,1.86,5.25,1.71A14,14,0,0,0,55,62.32"/><path class="cls-19" d="M66.12,70.4l-.34-.12L65.2,70c-1.23-.53-9.26-3.27-9.26-3.27a1.89,1.89,0,0,1-1.22-1.08,8.24,8.24,0,0,1-.24-2.7,24.39,24.39,0,0,0,6.45-6,4,4,0,0,0,.47-1.69c0-1,0-2,0-3a1.51,1.51,0,0,0,1.27-1.19c.4-1.26,1-3.86,1-3.89.53-1.62-.64-2.45-2.18-2.42,0-.43,0-1.08.07-1A4.7,4.7,0,0,0,62,42.1c0-6.24-5.55-11.29-12.4-11.29S37.18,35.86,37.18,42.1a4.57,4.57,0,0,0,.47,1.65,10.18,10.18,0,0,1,.08,1.07c-1.54,0-2.32.81-1.79,2.43,0,0,.6,2.63,1,3.89a1.49,1.49,0,0,0,1.48,1.2c0,.84,0,1.67,0,2.51a4.49,4.49,0,0,0,.85,2.81c.81,1.17,3.4,3.15,5.93,4.71-.05.74-.18,2.72-.28,3.27a1.68,1.68,0,0,1-1.26,1.13l-7.74,2.58a11,11,0,0,0-2.17.91C29.47,72.42,30,81.67,30,83.21A37.42,37.42,0,0,0,69.91,85C69.69,77.1,69.94,71.57,66.12,70.4Z"/><path class="cls-16" d="M62.65,36.38c-.45-1.9-2.61-5.51-4.86-5.23a6.51,6.51,0,0,0-2.53-3.4A9.1,9.1,0,0,0,49,26.53C45.51,27,41.3,28.22,39,31s-4.44,6.81-4.32,10.49a12.92,12.92,0,0,1,1.78-2,17.08,17.08,0,0,0,2.34,9.63,19.25,19.25,0,0,1,.9-6.53,11,11,0,0,0,.47,3c-.09-.31,4.58-7.38,9.84-9.13-.32.55-.61,1.11-.87,1.66s-1.11,4-1.46,4.12A15.13,15.13,0,0,0,54.29,37a4.88,4.88,0,0,0,.76-1.61l.4,0c0,.13.09.25.14.37a15.12,15.12,0,0,0,1.67,2.55c2.21,3.12,4.15,7,3.92,10.75C63.75,45.36,63.69,40.67,62.65,36.38Z"/></g></g></svg>