<svg xmlns="http://www.w3.org/2000/svg" viewBox="0 0 100 100" width="100" height="100" style="fill: rgb(0, 0, 0);"><defs><style>.cls-1{isolation:isolate;}.cls-2{fill:#fff;}.cls-3{fill:#f1bc19;}.cls-4{fill:#f9dbd2;}.cls-5{fill:#ee3e54;}.cls-6{fill:#fbcd59;}.cls-22,.cls-7{fill:#efa21b;}.cls-13,.cls-20,.cls-21,.cls-7{stroke:#472b29;}.cls-7{stroke-miterlimit:10;}.cls-8{fill:#f6cca4;}.cls-9{fill:#edbc94;}.cls-10{opacity:0.3;}.cls-11{opacity:0.8;}.cls-11,.cls-23{mix-blend-mode:multiply;}.cls-12{fill:#f4989e;}.cls-13,.cls-20,.cls-21{fill:none;stroke-linecap:round;stroke-linejoin:round;}.cls-13{stroke-width:0.4px;}.cls-14{fill:#6d1b18;}.cls-15{fill:#fdfcef;}.cls-16{fill:#836f61;}.cls-17,.cls-19{fill:#472b29;}.cls-17{opacity:0.41;}.cls-18{fill:#512c2b;}.cls-21{stroke-width:0.5px;}.cls-23{opacity:0.27;}</style></defs><title>Artboard 73</title><g class="cls-1"><g id="line8"><g id="background_round" data-name="background round"><circle class="cls-2" cx="20.75" cy="56.38" r="0.89"/><circle class="cls-2" cx="79.8" cy="31.51" r="0.68"/><circle class="cls-3" cx="77.17" cy="12.48" r="0.89"/><circle class="cls-3" cx="21.24" cy="64.06" r="0.89"/><circle class="cls-4" cx="50.28" cy="49.71" r="37.45"/><circle class="cls-3" cx="82.61" cy="14.63" r="4.01"/><circle class="cls-5" cx="86.62" cy="23.7" r="1.88"/><circle class="cls-6" cx="77.63" cy="76.12" r="1.88"/><circle class="cls-6" cx="14.47" cy="63.17" r="4.01"/><circle class="cls-5" cx="24.71" cy="87.31" r="1.88"/><circle class="cls-2" cx="76.28" cy="30" r="1.8"/><circle class="cls-2" cx="18.21" cy="51.06" r="2.54"/><path class="cls-7" d="M64.1,64c0,.1,0,.18-.06.26a22.5,22.5,0,0,1-.78,2.47,11.24,11.24,0,0,1-1.67,3.18,4.67,4.67,0,0,1-1,1,4.87,4.87,0,0,1-2.78.75h-17a4.77,4.77,0,0,1-2.88-.82,4.59,4.59,0,0,1-.93-.89,11.24,11.24,0,0,1-1.67-3.18,22.5,22.5,0,0,1-.78-2.47L34.43,64c-2.67-10.49-1.88-29.09,4.17-34.69A14.62,14.62,0,0,1,49.26,25a14.21,14.21,0,0,1,9,2.94,18.25,18.25,0,0,1,1.63,1.38,7,7,0,0,1,.6.62C66,36.19,66.68,53.89,64.1,64Z"/><path class="cls-8" d="M61.46,41.65c.13-1.52-.32-2.82-.22-3.58h0c-1.33-1.65-2.17-3.59-4-4.77a23.65,23.65,0,0,0-6.78-2.83c-5.7-1.43-11.3,2.74-13.06,8.13l-.06.1a20.1,20.1,0,0,1,.37,2.94c-1.54,0-2.32.81-1.79,2.43,0,0,.6,2.64,1,3.89a1.51,1.51,0,0,0,1.48,1.21c0,.83,0,1.66,0,2.5a4.49,4.49,0,0,0,.85,2.81c1.51,2.18,9.23,7.2,11.1,7,3,0,9-5.14,10.59-7.7a4,4,0,0,0,.47-1.69c0-1,0-2,0-3A1.51,1.51,0,0,0,62.64,48c.4-1.25,1-3.86,1-3.89C64.17,42.45,63,41.62,61.46,41.65Z"/><path class="cls-9" d="M66.08,67.22l-.34-.12-.58-.24c-1.23-.53-9.26-3.27-9.26-3.27a1.86,1.86,0,0,1-1.22-1.08,9,9,0,0,1-.23-2.92A22.05,22.05,0,0,1,50.22,61c-1.86.18-5.15-2.27-5.15-2.27s-.09,3-.22,3.71a1.66,1.66,0,0,1-1.26,1.13l-7.74,2.58a16.79,16.79,0,0,0-2.17.91c-4.36,1.86-3.61,13.76-3.65,14.3,6.8,7,16.3,5.48,26.83,5.48A25.23,25.23,0,0,0,70,82.78C69.57,73.4,70.34,68.53,66.08,67.22Z"/><g class="cls-10"><g class="cls-11"><ellipse class="cls-12" cx="42.68" cy="50.32" rx="1.97" ry="2"/></g><g class="cls-11"><ellipse class="cls-12" cx="57.8" cy="50.32" rx="1.97" ry="2"/></g></g><line class="cls-13" x1="37.83" y1="41.64" x2="38.65" y2="49.68"/><line class="cls-13" x1="61.65" y1="41.18" x2="61.16" y2="49.25"/><path class="cls-14" d="M46.8,53.43a1.84,1.84,0,0,0-.06.47c0,1.4,1.55,2.53,3.45,2.53s3.45-1.13,3.45-2.53a1.84,1.84,0,0,0-.06-.47Z"/><path class="cls-5" d="M52,56a3.06,3.06,0,0,0-3.64,0A4.44,4.44,0,0,0,52,56Z"/><path class="cls-15" d="M47.79,53.43v.47c0,.37.5.68,1.1.68H51.5c.6,0,1.1-.31,1.1-.68v-.47Z"/><path class="cls-13" d="M46.8,53.43a1.84,1.84,0,0,0-.06.47c0,1.4,1.55,2.53,3.45,2.53s3.45-1.13,3.45-2.53a1.84,1.84,0,0,0-.06-.47Z"/><path class="cls-16" d="M41.07,64.43l2.83-1,5.85,13.69,4.51-11.12,1.12-2.57,6.75,2L63.68,85.6s-14.38,4.22-28.8-1.34l1-18.09Z"/><polygon class="cls-15" points="39.55 66.71 44.39 68.52 42.49 71.13 49.75 77.17 44.65 63.59 39.55 66.71"/><polygon class="cls-15" points="59.95 66.71 54.85 63.59 49.75 77.17 57.01 71.13 55.11 68.52 59.95 66.71"/><path class="cls-17" d="M50.19,51.49a1.83,1.83,0,0,0,1.48-.83.15.15,0,0,0,0-.17h0a.09.09,0,0,0-.15,0,1.67,1.67,0,0,1-2.64,0,.09.09,0,0,0-.08,0,.09.09,0,0,0-.06,0,.14.14,0,0,0,0,.17A1.8,1.8,0,0,0,50.19,51.49Z"/><path class="cls-17" d="M51.08,58.28a.09.09,0,0,0,0-.18H49.3a.09.09,0,0,0,0,.18Z"/><path class="cls-18" d="M48.18,40.41a20.73,20.73,0,0,0-7.42-.78.22.22,0,0,0-.21.19.22.22,0,0,0,.19.2s5.08.88,6.65,1.43l.08,0a.23.23,0,0,0,.2-.08l.62-.68a.18.18,0,0,0,0-.17A.22.22,0,0,0,48.18,40.41Z"/><path class="cls-18" d="M52.18,40.21a21,21,0,0,1,7.45-.39.21.21,0,0,1,.2.2.22.22,0,0,1-.2.2s-5.11.61-6.71,1.08h-.08a.24.24,0,0,1-.2-.09l-.58-.71a.15.15,0,0,1,0-.17A.22.22,0,0,1,52.18,40.21Z"/><path class="cls-19" d="M44.63,42.48a1.38,1.38,0,0,0-1.2.83.64.64,0,0,1,.2,0,.83.83,0,0,1,0,1.65.67.67,0,0,1-.37-.11,1.51,1.51,0,0,0,1.37,1.29,1.86,1.86,0,0,0,0-3.63Z"/><path class="cls-19" d="M55.63,42.48a1.31,1.31,0,0,0-1.08.62.75.75,0,0,1,.26-.05.83.83,0,0,1,0,1.65.73.73,0,0,1-.62-.36,1.48,1.48,0,1,0,1.44-1.86Z"/><path class="cls-20" d="M66.12,67.37a2.87,2.87,0,0,1-.34-.12L65.2,67c-1.23-.53-9.26-3.27-9.26-3.27a1.86,1.86,0,0,1-1.22-1.08A8.18,8.18,0,0,1,54.48,60a24.25,24.25,0,0,0,6.45-6,4,4,0,0,0,.47-1.69c0-1,0-2,0-3a1.49,1.49,0,0,0,1.27-1.19c.4-1.25,1-3.86,1-3.88.53-1.62-.64-2.46-2.18-2.43,0-.42,0-1.08.07-1A4.69,4.69,0,0,0,62,39.08c0-6.24-5.55-11.3-12.4-11.3s-12.41,5.06-12.41,11.3a4.49,4.49,0,0,0,.47,1.64,10.15,10.15,0,0,1,.08,1.08c-1.54,0-2.32.81-1.79,2.43,0,0,.6,2.63,1,3.88a1.5,1.5,0,0,0,1.48,1.21c0,.83,0,1.67,0,2.5a4.47,4.47,0,0,0,.85,2.81c.81,1.17,3.4,3.15,5.93,4.72-.05.73-.18,2.72-.28,3.26a1.66,1.66,0,0,1-1.26,1.13l-7.74,2.59a10.46,10.46,0,0,0-2.17.91c-4.51,2.29-3.65,13.6-3.69,14.14,9.83,9.31,36.58,5.48,40,1.4C69.57,73.4,70.38,68.68,66.12,67.37Z"/><path class="cls-21" d="M45.34,59.22s3.43,1.86,5.25,1.71A14,14,0,0,0,55,59.3"/><path class="cls-22" d="M50,25.73c-10.9.24-13.83,11-13.52,10.73a17,17,0,0,0,2.34,9.63,19.19,19.19,0,0,1,.9-6.52,10.85,10.85,0,0,0,.47,3c-.09-.31,4.58-7.38,9.84-9.13-.32.55-.61,1.11-.87,1.67s-1.11,4-1.46,4.11A15.18,15.18,0,0,0,54.29,34a5,5,0,0,0,.76-1.62l.4,0c0,.13.09.26.14.38a15.12,15.12,0,0,0,1.67,2.55c2.21,3.11,4.15,7,3.92,10.75,2.5-3.56,1.75-7.75.79-11.94C62,34,58.89,25.53,50,25.73Z"/><g class="cls-23"><g class="cls-11"><circle class="cls-12" cx="46.74" cy="47.37" r="0.22" transform="translate(-2.67 2.79) rotate(-3.32)"/></g><g class="cls-11"><circle class="cls-12" cx="47.06" cy="49.07" r="0.22" transform="translate(-2.76 2.81) rotate(-3.32)"/></g><g class="cls-11"><circle class="cls-12" cx="48.52" cy="48.05" r="0.22" transform="matrix(1, -0.06, 0.06, 1, -2.7, 2.89)"/></g><g class="cls-11"><circle class="cls-12" cx="51.71" cy="47.83" r="0.22" transform="translate(-2.68 3.07) rotate(-3.32)"/></g><g class="cls-11"><circle class="cls-12" cx="52.66" cy="49.26" r="0.22" transform="translate(-2.76 3.13) rotate(-3.32)"/></g><g class="cls-11"><circle class="cls-12" cx="53.61" cy="47.74" r="0.22" transform="translate(-2.67 3.18) rotate(-3.32)"/></g></g><path class="cls-21" d="M36.45,36.48a17,17,0,0,0,2.34,9.63,19,19,0,0,1,.91-6.52,10.6,10.6,0,0,0,.46,3c-.09-.32,4.58-7.38,9.84-9.14-.32.55-.61,1.11-.87,1.67s-1.11,4-1.46,4.11A15.11,15.11,0,0,0,54.26,34,4.84,4.84,0,0,0,55,32.36l.4,0c0,.12.09.25.14.37a15.12,15.12,0,0,0,1.67,2.55c2.21,3.11,4.35,7,4.12,10.73"/></g></g></g></svg>