<svg xmlns="http://www.w3.org/2000/svg" viewBox="0 0 100 100" width="100" height="100" style="fill: rgb(0, 0, 0);"><defs><style>.cls-1{fill:#fff;}.cls-2{fill:#f1bc19;}.cls-3{fill:#f9dbd2;}.cls-4{fill:#ee3e54;}.cls-5{fill:#fbcd59;}.cls-6{fill:#895f3f;}.cls-7{fill:#fdfcef;}.cls-11,.cls-12,.cls-13,.cls-15,.cls-8{fill:none;stroke-linejoin:round;}.cls-8{stroke:#cbc9bc;}.cls-11,.cls-13,.cls-15,.cls-8{stroke-linecap:round;}.cls-12,.cls-8{stroke-width:0.6px;}.cls-9{fill:#512c2b;}.cls-10{fill:#a3754f;}.cls-11,.cls-13,.cls-15{stroke:#472b29;}.cls-12{stroke:#895d3d;}.cls-13{stroke-width:0.4px;}.cls-14{fill:#e0a825;}.cls-15{stroke-width:0.5px;}</style></defs><title>target</title><g id="line1"><g id="_grupa_" data-name="&lt;grupa&gt;"><circle class="cls-1" cx="20.16" cy="56.87" r="0.89"/><circle class="cls-1" cx="79.21" cy="31.99" r="0.68"/><circle class="cls-2" cx="76.58" cy="12.96" r="0.89"/><circle class="cls-2" cx="20.66" cy="64.54" r="0.89"/><circle class="cls-3" cx="49.48" cy="50.19" r="37.45"/><circle class="cls-2" cx="82.02" cy="15.12" r="4.01"/><circle class="cls-4" cx="86.03" cy="24.19" r="1.88"/><circle class="cls-5" cx="77.05" cy="76.6" r="1.88"/><circle class="cls-5" cx="13.89" cy="63.65" r="4.01"/><circle class="cls-4" cx="24.12" cy="87.79" r="1.88"/><circle class="cls-1" cx="75.7" cy="30.48" r="1.8"/><circle class="cls-1" cx="17.63" cy="51.54" r="2.54"/><path class="cls-6" d="M68,71.4c-.41-2.14-1.28-3.4-3.35-4a3.19,3.19,0,0,1-.34-.13L63.69,67C62.44,66.49,55,63.75,55,63.75a1.9,1.9,0,0,1-1.24-1.08,8.72,8.72,0,0,1-.23-2.92,49.38,49.38,0,0,1-5,1.43c-1.9.18-6-2.28-6-2.28s-.09,3-.22,3.72A1.71,1.71,0,0,1,41,63.75l-7.12,2.58a8.16,8.16,0,0,0-2.21.91,7.59,7.59,0,0,0-3.16,4.16s-.47,3.32-.45,3.44c-.05.46-.09,1-.14,1.51,7.76,5.26,14,6.73,24.7,6.26,4.86-.21,12.1-2.61,15.89-4.53C68.32,73.86,68,71.4,68,71.4Z"/><path class="cls-7" d="M64.62,67.42a3.19,3.19,0,0,1-.34-.13l-.59-.23c-.77-.33-3.9-1.5-6.18-2.35l-.11,0C54.89,66,51.31,67.91,48,67.91s-6.59-1.75-9.39-3.23l-.31.09-4.43,1.6a8.16,8.16,0,0,0-2.21.91,7.59,7.59,0,0,0-3.16,4.16s-.47,3.32-.45,3.44c-.05.46-.09,5.44-.14,6,7.76,5.26,14,6.73,24.7,6.26,4.86-.21,12.1-2.61,15.89-4.53-.2-4.22-.55-11.15-.55-11.15C67.56,69.3,66.69,68,64.62,67.42Z"/><line class="cls-8" x1="34.75" y1="80.84" x2="34.75" y2="84.79"/><line class="cls-8" x1="61.08" y1="80.84" x2="61.08" y2="85.48"/><path class="cls-9" d="M63.6,45.3a1.61,1.61,0,0,0-.87-.92l-.11-.05,0-.09a1.64,1.64,0,0,0,.18-.82v-.16a2.08,2.08,0,0,0-.32-1.11l-.36-.42.18-.17a1.61,1.61,0,0,0,.44-.71,1.56,1.56,0,0,0,.16-.8v-.16a2.08,2.08,0,0,0-.34-1.07l-.38-.44a2.55,2.55,0,0,0-.28-.21l.17-.12a1.77,1.77,0,0,0,.59-1.2,1.28,1.28,0,0,0-.13-.67A1.91,1.91,0,0,0,60.92,35H60.7a2.35,2.35,0,0,0,.3-1.37,2.49,2.49,0,0,0-2.48-2.1c0-.07,0-.13,0-.2A2.67,2.67,0,0,0,56,28.65a3.14,3.14,0,0,0-1.12.2,2.43,2.43,0,0,0-2.41-1.54,1.92,1.92,0,0,0-.92.25v0l-.29-.39a2,2,0,0,0-1.3-.59,1.41,1.41,0,0,0-.76.12,1.75,1.75,0,0,0-1,.71,1.22,1.22,0,0,0-.32-.36,1.33,1.33,0,0,0-.65-.35,1.39,1.39,0,0,0-.75-.12,2,2,0,0,0-1.31.59l-.28.39v0a2,2,0,0,0-.93-.25,2.42,2.42,0,0,0-2.4,1.54,3.22,3.22,0,0,0-1.12-.2,2.68,2.68,0,0,0-2.59,2.71l0,.2a2.5,2.5,0,0,0-2.49,2.1,2.43,2.43,0,0,0,.3,1.37h-.21a1.3,1.3,0,0,0-.68.17,1.28,1.28,0,0,0-.59.38,1.26,1.26,0,0,0-.37.6,1.19,1.19,0,0,0-.13.67,1.72,1.72,0,0,0,.58,1.2l.18.12a1.86,1.86,0,0,0-.28.21l-.39.44a2.07,2.07,0,0,0-.33,1.07v.16a1.46,1.46,0,0,0,.16.8,1.61,1.61,0,0,0,.44.71l.17.17-.35.42a2.09,2.09,0,0,0-.33,1.11v.16a1.64,1.64,0,0,0,.18.82l0,.09-.11.05a1.61,1.61,0,0,0-.87.92,1.54,1.54,0,0,0,.07,1.19l.17.32a1.68,1.68,0,0,0,1,.82,1.2,1.2,0,0,0,.53.08,1,1,0,0,0,.14.33,1,1,0,0,0,.36.47,1.23,1.23,0,0,0,.52.27,1.44,1.44,0,0,0,.59.09l.13,0a1.69,1.69,0,0,0-.28.93v.16a2,2,0,0,0,.58,1.29,1.46,1.46,0,0,0,.61.36,1.44,1.44,0,0,0,.71.14l.51-.06.15-.05A2.49,2.49,0,0,0,39,52.79a1.61,1.61,0,0,0,.66.52,1.67,1.67,0,0,0,.82.27H41a2.39,2.39,0,0,0,.46-.12,1.85,1.85,0,0,0,.23.34,1.45,1.45,0,0,0,.58.43,1.53,1.53,0,0,0,.73.23l.51,0a2.07,2.07,0,0,0,.66-.23,2.81,2.81,0,0,0,4,.59,2.82,2.82,0,0,0,4-.59,2.1,2.1,0,0,0,.65.23l.52,0a1.53,1.53,0,0,0,.72-.23,1.68,1.68,0,0,0,.81-.77,2.31,2.31,0,0,0,.47.12h.56a1.7,1.7,0,0,0,.83-.27,1.76,1.76,0,0,0,.66-.52,1.65,1.65,0,0,0,.36-.71,1.46,1.46,0,0,0,.1-.46l.15.05.5.06a1.44,1.44,0,0,0,.71-.14,1.49,1.49,0,0,0,.62-.36,1.4,1.4,0,0,0,.41-.59,1.42,1.42,0,0,0,.17-.7v-.16a1.7,1.7,0,0,0-.29-.93l.14,0a1.46,1.46,0,0,0,.59-.09,1.3,1.3,0,0,0,.52-.27,1.19,1.19,0,0,0,.36-.47,1.22,1.22,0,0,0,.14-.33,1.23,1.23,0,0,0,.53-.08,1.71,1.71,0,0,0,1-.82l.17-.32A1.58,1.58,0,0,0,63.6,45.3Z"/><path class="cls-10" d="M60.26,44.88H59.9c-1,0-1.24.34-1.19-.26.07-1.06-.07-5.36-.07-5.58,0-4.46-4.66-8.09-10.47-8.29v0h-.23v0c-5.82.2-10.47,3.83-10.47,8.29,0,.22-.15,4.52-.07,5.58,0,.6-.23.21-1.2.26h-.36a2.22,2.22,0,0,0-2.09,1.57c.13.08.61,3.73,1.39,5.17.43.81,1.11.92,1.81,1.44a1.5,1.5,0,0,1,.57,1,8.85,8.85,0,0,0,2.68,4.09c.58.57,4.49,4.74,7.85,4.53s7.27-4,7.86-4.53a9,9,0,0,0,2.68-4.09,1.52,1.52,0,0,1,.56-1c.7-.52,1.38-.63,1.82-1.44.78-1.44,1.26-5.09,1.39-5.17A2.22,2.22,0,0,0,60.26,44.88Z"/><path class="cls-9" d="M48.11,51.93a2.32,2.32,0,0,0,1.77-.79.12.12,0,0,0,0-.17h0a.12.12,0,0,0-.17,0,2.05,2.05,0,0,1-1.59.62A2.08,2.08,0,0,1,46.52,51a.1.1,0,0,0-.09,0,.11.11,0,0,0-.07,0,.12.12,0,0,0,0,.17A2.35,2.35,0,0,0,48.11,51.93Z"/><path class="cls-9" d="M45.94,42.71l.43-.83a11.25,11.25,0,0,0-5.68.18l.54.81A8.94,8.94,0,0,1,45.94,42.71Z"/><path class="cls-9" d="M55.11,42.71l.43-.83a11.25,11.25,0,0,0-5.68.18l.55.81A8.91,8.91,0,0,1,55.11,42.71Z"/><path class="cls-9" d="M43.3,43.88a1.21,1.21,0,0,0-1,.73,1,1,0,0,1,.17,0,.73.73,0,0,1,0,1.46.55.55,0,0,1-.32-.1,1.33,1.33,0,0,0,1.2,1.15,1.66,1.66,0,0,0,0-3.21Z"/><path class="cls-9" d="M52.88,43.88a1.18,1.18,0,0,0-1,.55.64.64,0,0,1,.23,0,.73.73,0,0,1,0,1.46.6.6,0,0,1-.53-.32,1.44,1.44,0,0,0,1.25,1.57,1.66,1.66,0,0,0,0-3.21Z"/><path class="cls-9" d="M53.41,53.79a.12.12,0,0,0,0-.17h0a.11.11,0,0,0-.16,0A8.5,8.5,0,0,1,48.11,55,8.49,8.49,0,0,1,43,53.6l-.07,0a.13.13,0,0,0-.1,0,.12.12,0,0,0,0,.17,9.27,9.27,0,0,0,10.59,0Z"/><path class="cls-9" d="M38.22,41.31A23.86,23.86,0,0,1,40.5,35.1,1.36,1.36,0,0,0,39,34.62a16.89,16.89,0,0,0-2.1,8.45,15.5,15.5,0,0,0,.71,4C37.93,45.15,37.81,43.21,38.22,41.31Z"/><path class="cls-9" d="M58,41.31a23.53,23.53,0,0,0-2.29-6.21,1.37,1.37,0,0,1,1.51-.48,16.8,16.8,0,0,1,2.11,8.45,15.5,15.5,0,0,1-.71,4C58.3,45.15,58.42,43.21,58,41.31Z"/><path class="cls-9" d="M49.51,59.06a.15.15,0,0,0,.12-.16.14.14,0,0,0-.12-.15H46.94c-.06,0-.11.07-.11.15s.05.16.11.16Z"/><path class="cls-11" d="M68,71.58c-.41-2.15-1.28-3.4-3.35-4a2.87,2.87,0,0,1-.34-.12l-.59-.24C62.44,66.67,55,63.93,55,63.93a1.89,1.89,0,0,1-1.24-1.09,6.47,6.47,0,0,1-.26-2.29,27.8,27.8,0,0,0,2.39-1.87,9.15,9.15,0,0,0,2.68-4.14,1.57,1.57,0,0,1,.56-1c.7-.53,1.38-.64,1.82-1.45a15.47,15.47,0,0,0,1.39-5.23,2.24,2.24,0,0,0-2.1-1.6H59.9c-1,0-1.24.35-1.19-.26.07-1.07-.07-5.42-.07-5.64,0-4.51-4.66-8.18-10.47-8.38v0h-.23v0c-5.82.2-10.47,3.87-10.47,8.38,0,.22-.15,4.57-.07,5.64,0,.61-.23.22-1.2.26h-.36a2.23,2.23,0,0,0-2.09,1.6A15.83,15.83,0,0,0,35.14,52c.43.81,1.11.92,1.81,1.45a1.54,1.54,0,0,1,.57,1,9,9,0,0,0,2.68,4.14,25.92,25.92,0,0,0,2.27,1.73c0,.91-.1,2-.17,2.38A1.72,1.72,0,0,1,41,63.93l-7.12,2.58a8.16,8.16,0,0,0-2.21.91,6,6,0,0,0-3.16,4.16c-.59,2.17-.54,8.88-.59,9.42,7.76,5.25,14,6.73,24.7,6.26,4.86-.22,12.1-2.62,15.89-4.53C68.32,78.51,68,71.58,68,71.58Z"/><polyline class="cls-12" points="58.8 48.07 60.28 47.43 60.03 49.72"/><polyline class="cls-12" points="37.63 47.73 36.15 47.09 36.41 49.38"/><line class="cls-13" x1="37.61" y1="45.01" x2="37.45" y2="53.66"/><line class="cls-13" x1="58.66" y1="45.01" x2="58.83" y2="53.66"/><path class="cls-9" d="M59.47,41.77c.47-4.71-.93-7.4-2-8.72A15.22,15.22,0,0,0,48,29.81a15.48,15.48,0,0,0-8.21,2.31c-1.94,1.91-4.23,5.41-3.08,9.65a40,40,0,0,0,1,6.21c.19-1.95.21-6.07.62-7.9a22.28,22.28,0,0,1,1.26-3.91c2.74-2.91,14.09-2.78,17,0a22.28,22.28,0,0,1,1.26,3.91c.41,1.83.43,6,.76,7.81A37.75,37.75,0,0,0,59.47,41.77Z"/><path class="cls-14" d="M46.86,44.5c-2-2.4-9.37-.7-9.38-.7.14.54.26,1.07.36,1.6.55.06.59,1.29.64,1.74.27,2.19,1.73,3.79,4.8,3.72a3.86,3.86,0,0,0,3.93-3.8A5.62,5.62,0,0,0,46.86,44.5Zm-.36,2.68a3.2,3.2,0,0,1-3.3,3.19,5.42,5.42,0,0,1-.57,0c-3.05,0-3.58-2.68-3.64-4.37a1.82,1.82,0,0,1,1.63-1.9c.56-.05,1.2-.05,1.93-.05,2.28,0,3.28.54,3.54,1A3.84,3.84,0,0,1,46.5,47.18Z"/><path class="cls-14" d="M49,47.06A3.86,3.86,0,0,0,53,50.86c3.07.07,4.53-1.54,4.8-3.72,0-.45.08-1.68.63-1.74.11-.53.23-1.06.36-1.6,0,0-7.4-1.7-9.37.7A5.31,5.31,0,0,0,49,47.06Zm1.12-2c.26-.44,1.26-1,3.54-1,.73,0,1.36,0,1.93.05A1.81,1.81,0,0,1,57.23,46c-.06,1.69-.58,4.37-3.64,4.37a5.42,5.42,0,0,1-.57,0,3.22,3.22,0,0,1-3.3-3.19A3.91,3.91,0,0,1,50.14,45Z"/><path class="cls-14" d="M49.44,46.38a2.33,2.33,0,0,0-1.38-.4,2,2,0,0,0-1.27.4c-.14-.38-.27-.75-.41-1.12,1.16,0,2.31,0,3.46,0C49.71,45.63,49.58,46,49.44,46.38Z"/><path class="cls-15" d="M42.46,60s3.93,2.9,5.93,2.67,5.13-2.45,5.13-2.45"/></g></g></svg>