<svg xmlns="http://www.w3.org/2000/svg" xmlns:xlink="http://www.w3.org/1999/xlink" viewBox="0 0 100 100" width="100" height="100" style="fill: rgb(0, 0, 0);"><defs><style>.cls-1{fill:#ce9065;}.cls-2{fill:#fff;}.cls-3{fill:#f1bc19;}.cls-4{fill:#c0e5e4;}.cls-5{fill:#276fa0;}.cls-6{fill:#fbcd59;}.cls-7{fill:#195484;}.cls-8{fill:#fdfcef;}.cls-9{fill:#e5304f;}.cls-10{fill:#ee3e54;}.cls-11{fill:#e1e0d8;}.cls-12{fill:#1c658e;}.cls-13{opacity:0.49;}.cls-14,.cls-18,.cls-19{fill:none;stroke-linejoin:round;}.cls-14{stroke:#0b2e51;stroke-width:0.7px;}.cls-14,.cls-19{stroke-linecap:round;}.cls-15{clip-path:url(#clip-path);}.cls-16{fill:#512c2b;}.cls-17{fill:#603535;}.cls-18{stroke:#895d3d;stroke-width:0.6px;}.cls-19{stroke:#472b29;}</style><clipPath id="clip-path"><path class="cls-1" d="M48.78,63.35c2,0,7.67-2.66,9.77-5.5,1.43-1.94.77-4.62.77-8.15,0-8.72,3.28-19.35-10.54-19.35S38.24,41,38.24,49.7c0,3.59-.62,6.23.85,8.17,2.1,2.77,7.64,5.48,9.69,5.48Z"/></clipPath></defs><title>people man_21</title><g id="line3"><circle class="cls-2" cx="20.16" cy="56.6" r="0.89"/><circle class="cls-2" cx="79.21" cy="31.73" r="0.68"/><circle class="cls-3" cx="76.58" cy="12.7" r="0.89"/><circle class="cls-3" cx="20.66" cy="64.27" r="0.89"/><circle class="cls-4" cx="49.48" cy="49.93" r="37.45"/><circle class="cls-3" cx="82.02" cy="14.85" r="4.01"/><circle class="cls-5" cx="86.03" cy="23.92" r="1.88"/><circle class="cls-6" cx="77.05" cy="76.34" r="1.88"/><circle class="cls-6" cx="13.89" cy="63.39" r="4.01"/><circle class="cls-5" cx="24.12" cy="87.52" r="1.88"/><circle class="cls-2" cx="75.7" cy="30.22" r="1.8"/><circle class="cls-2" cx="17.63" cy="51.28" r="2.54"/><path class="cls-1" d="M68.65,71.05c-.4-2.15-1.28-3.41-3.34-4L65,66.9l-.58-.24c-1.25-.53-8.68-3.27-8.68-3.27a1.87,1.87,0,0,1-1.24-1.08,8.66,8.66,0,0,1-.23-2.91,46.9,46.9,0,0,1-5,1.42c-1.9.18-6-2.27-6-2.27s-.1,3-.23,3.71a1.67,1.67,0,0,1-1.28,1.13L34.57,66a8.11,8.11,0,0,0-2.21.91,7.52,7.52,0,0,0-3.16,4.16s-.47,3.31-.45,3.43c0,.47-.09,1-.14,1.51,7.77,5.26,14,6.73,24.7,6.26,4.87-.21,12.1-2.61,15.9-4.52C69,73.5,68.65,71.05,68.65,71.05Z"/><path class="cls-7" d="M29.81,69.5c.42-1,3.17-2.9,4.22-3.2l1.44-.53h0l5.73-2.21c1.49,3.83,5,19.61,6.73,23.33a33.2,33.2,0,0,1-9.3-1.11,51.83,51.83,0,0,1-10.05-5.19C28.75,79.79,28.5,72.61,29.81,69.5Z"/><path class="cls-8" d="M55.94,64.82l-.88-.29a1.54,1.54,0,0,1-.57-.29,15.52,15.52,0,0,1-5.63,1,3.52,3.52,0,0,1,2,.42c-2.94.33-6.42.94-8.28-1.27a1.94,1.94,0,0,1-.36.15l-.88.29-.27.09c1.48,4.06,3,8,4.46,12h7.93c1.75-3.71,3.06-7.6,4.56-11.43Z"/><path class="cls-7" d="M67.77,68.76c-.41-1-1.17-1.07-2.22-1.37l-1.44-.54h0l-5.72-2.21c-1.5,3.83-7.19,18.7-8.94,22.42a33.72,33.72,0,0,0,11.07-1.32c6.23-1.76,8.7-3.34,8.69-3.41C69,81.53,69.08,71.87,67.77,68.76Z"/><path class="cls-9" d="M46.85,69.42l-1.79-4h7.18l-1.79,4A2,2,0,0,1,46.85,69.42Z"/><path class="cls-10" d="M50.35,70.9l1.58,8.34H44.75l2-8.34A2.05,2.05,0,0,1,50.35,70.9Z"/><path class="cls-11" d="M43.33,62.62l-1.79,1.27,3.85,5.94L49,65.3S43.6,63.89,43.33,62.62Z"/><path class="cls-11" d="M54,62.62l1.8,1.27-3.85,5.94L48.34,65.3S53.71,63.89,54,62.62Z"/><path class="cls-12" d="M55.67,63.56,62,65.92S52.81,82.22,51,85.36H45.29Z"/><path class="cls-5" d="M42,63.26l-6.24,2.52s8.32,18.14,10.15,21.28h5.69Z"/><g class="cls-13"><line class="cls-14" x1="35.64" y1="80.39" x2="35.64" y2="84.27"/><line class="cls-14" x1="61.54" y1="80.39" x2="61.54" y2="84.95"/></g><path class="cls-1" d="M61,42.52h-.36c-1,0-1.24.34-1.2-.26.08-1.06-.07-5.36-.07-5.58,0-4.45-4.65-8.09-10.47-8.29h-.23c-5.81.2-10.47,3.84-10.47,8.29,0,.22-.14,4.52-.07,5.58.05.6-.23.21-1.19.26h-.36a2.22,2.22,0,0,0-2.1,1.58c.13.08.61,3.73,1.39,5.17.44.8,1.12.91,1.82,1.43a1.56,1.56,0,0,1,.57,1,9,9,0,0,0,2.67,4.1c.59.57,4.5,4.74,7.86,4.52s7.27-4,7.86-4.52a9,9,0,0,0,2.67-4.1,1.56,1.56,0,0,1,.57-1c.7-.52,1.38-.63,1.81-1.43.78-1.44,1.26-5.09,1.39-5.17A2.21,2.21,0,0,0,61,42.52Z"/><path class="cls-1" d="M48.78,63.35c2,0,7.67-2.66,9.77-5.5,1.43-1.94.77-4.62.77-8.15,0-8.72,3.28-19.35-10.54-19.35S38.24,41,38.24,49.7c0,3.59-.62,6.23.85,8.17,2.1,2.77,7.64,5.48,9.69,5.48Z"/><g class="cls-15"><path class="cls-16" d="M59.27,45.76s-.39,5.5-1.87,6.48a13.11,13.11,0,0,1-3.47,1.5H43.64a13.25,13.25,0,0,1-3.48-1.5c-1.48-1-1.87-6.48-1.87-6.48A44.09,44.09,0,0,0,38.08,55a6.45,6.45,0,0,0,1.16,3.07s5.88,6,6.34,6.3a12.91,12.91,0,0,0,3.2.11,12.89,12.89,0,0,0,3.2-.11c.46-.26,6.87-6.1,6.87-6.1a10.66,10.66,0,0,0,1.08-3.47,42.69,42.69,0,0,0-.66-9.05Z"/></g><path class="cls-17" d="M57.2,52.33c-2.14,1.11-2.33-1.13-4.59-1.7a3.64,3.64,0,0,0-3.83,1.47A4.35,4.35,0,0,0,45,50.63c-2.26.57-2.45,2.81-4.59,1.7-.2,0,5.69,5.88,8.42,1.78,2.74,4.1,8.63-1.78,8.42-1.78Z"/><path class="cls-16" d="M48.8,50.58a2.36,2.36,0,0,0,1.77-.8.12.12,0,0,0,0-.17h0a.12.12,0,0,0-.17,0,2.32,2.32,0,0,1-3.18,0,.15.15,0,0,0-.09,0,.11.11,0,0,0-.08,0,.12.12,0,0,0,0,.17A2.34,2.34,0,0,0,48.8,50.58Z"/><path class="cls-17" d="M46.62,41.35l.43-.83a11.25,11.25,0,0,0-5.68.18l.55.81A8.91,8.91,0,0,1,46.62,41.35Z"/><path class="cls-17" d="M55.79,41.35l.44-.83a11.29,11.29,0,0,0-5.69.18l.55.81A8.91,8.91,0,0,1,55.79,41.35Z"/><path class="cls-16" d="M44,42.53a1.22,1.22,0,0,0-1,.73l.18,0a.73.73,0,0,1,0,1.46.64.64,0,0,1-.33-.1A1.35,1.35,0,0,0,44,45.73a1.65,1.65,0,0,0,0-3.2Z"/><path class="cls-16" d="M53.56,42.53a1.15,1.15,0,0,0-.94.54.59.59,0,0,1,.23,0,.73.73,0,0,1,0,1.45.64.64,0,0,1-.54-.31,1.29,1.29,0,1,0,1.25-1.64Z"/><polyline class="cls-18" points="59.48 45.72 60.97 45.07 60.71 47.37"/><polyline class="cls-18" points="38.32 45.37 36.83 44.73 37.09 47.02"/><path class="cls-19" d="M68.65,71.31c-.4-2.15-1.28-3.4-3.34-4L65,67.16l-.58-.24c-1.25-.52-8.68-3.26-8.68-3.26a1.9,1.9,0,0,1-1.24-1.08,3.57,3.57,0,0,1-.21-1,14.31,14.31,0,0,0,4.3-3.48c1.19-1.61.94-3.75.82-6.46a1.23,1.23,0,0,1,.47-.68c.7-.52,1.38-.63,1.81-1.44A14.84,14.84,0,0,0,63,44.36,2.22,2.22,0,0,0,61,42.78h-.36a4.69,4.69,0,0,0-1,.08,23.89,23.89,0,0,0-.29-5.36c0-.3,0-.51,0-.55,0-4.46-4.65-8.09-10.47-8.29v0h-.23v0c-5.81.2-10.47,3.83-10.47,8.29,0,.06,0,.51,0,1.14a25.58,25.58,0,0,0-.19,4.77,8.59,8.59,0,0,0-1-.08h-.36a2.23,2.23,0,0,0-2.1,1.58,16.41,16.41,0,0,0,1.39,5.17c.44.81,1.12.92,1.82,1.44a1.48,1.48,0,0,1,.55,1c-.11,2.61-.29,4.64.9,6.21a14.45,14.45,0,0,0,4,3.28,10.11,10.11,0,0,1-.11,1.1,1.7,1.7,0,0,1-1.28,1.14l-7.13,2.58a8.44,8.44,0,0,0-2.21.91,7.59,7.59,0,0,0-3.16,4.16s-.55,9.09-.59,9.46c7.77,5.25,14,6.73,24.7,6.26,4.87-.21,12.1-2.61,15.9-4.53C69.14,81.2,68.65,71.31,68.65,71.31Z"/><path class="cls-17" d="M58.84,32.46A2.68,2.68,0,0,1,61,35.11c-.07,2.2-1.57,11.74-1.57,11.74l-3.08-9.8,2.52-4.59Z"/><path class="cls-16" d="M47.21,26.33l-1.16-1.62s13.06-1.44,13.05,5.75A11.63,11.63,0,0,1,50.57,42l.65-2.58-5.1,2.71.64-1.55L42.5,42.15l1.55-3.55L40.24,40a43.51,43.51,0,0,0-2,6.83s-3-10.12-1.06-10.9l-.71-.39.91-1.81L36,33.17l1.16-1.68-.51-.71,2.58-1.48-1.36-.71s4.33-3.62,9.36-2.26Z"/></g></svg>