<svg xmlns="http://www.w3.org/2000/svg" xmlns:xlink="http://www.w3.org/1999/xlink" viewBox="0 0 100 100" width="100" height="100" style="fill: rgb(0, 0, 0);"><defs><style>.cls-1,.cls-13,.cls-14,.cls-15,.cls-16{fill:none;}.cls-2{fill:#fff;}.cls-3{fill:#f1bc19;}.cls-4{fill:#fce0a2;}.cls-5{fill:#ee3e54;}.cls-6{fill:#fbcd59;}.cls-7{fill:#e5ac80;}.cls-8{fill:#fdfcef;}.cls-9{clip-path:url(#clip-path);}.cls-10{fill:#eae6d0;}.cls-11{fill:#edbc94;}.cls-12{fill:#512c2b;}.cls-13,.cls-15,.cls-16{stroke:#472b29;stroke-linecap:round;}.cls-13,.cls-14,.cls-15,.cls-16{stroke-linejoin:round;}.cls-14{stroke:#895d3d;stroke-width:0.6px;}.cls-15{stroke-width:0.4px;}.cls-16{stroke-width:0.5px;}</style><clipPath id="clip-path"><path class="cls-1" d="M68,70.93c-.41-2.15-1.28-3.41-3.35-4l-.34-.12-.59-.24c-.67-.29-3.76-1.3-5.9-2.1-2.83,2.25-6,6.1-9.56,6.1s-9.57-6.36-9.57-6.36h0l-.31.08-4.43,1.61a7.86,7.86,0,0,0-2.21.91,7.52,7.52,0,0,0-3.16,4.16s-.47,3.31-.45,3.43c-.05.47-.09,5.45-.14,6,7.76,5.26,14,6.73,24.7,6.26,4.86-.21,12.1-2.61,15.89-4.52C68.32,77.85,68,70.93,68,70.93Z"/></clipPath></defs><title>people man_19</title><g id="line3"><g id="_grupa_" data-name="&lt;grupa&gt;"><circle class="cls-2" cx="20.16" cy="56.35" r="0.89"/><circle class="cls-2" cx="79.21" cy="31.48" r="0.68"/><circle class="cls-3" cx="76.58" cy="12.44" r="0.89"/><circle class="cls-3" cx="20.66" cy="64.02" r="0.89"/><circle class="cls-4" cx="49.48" cy="49.67" r="37.45"/><circle class="cls-3" cx="82.02" cy="14.6" r="4.01"/><circle class="cls-5" cx="86.03" cy="23.67" r="1.88"/><circle class="cls-6" cx="77.05" cy="76.08" r="1.88"/><circle class="cls-6" cx="13.89" cy="63.14" r="4.01"/><circle class="cls-5" cx="24.12" cy="87.27" r="1.88"/><circle class="cls-2" cx="75.7" cy="29.96" r="1.8"/><circle class="cls-2" cx="17.63" cy="51.03" r="2.54"/><path class="cls-7" d="M68,70.89c-.41-2.15-1.28-3.41-3.35-4l-.34-.12-.59-.24C62.44,66,55,63.23,55,63.23a1.87,1.87,0,0,1-1.24-1.08,8.66,8.66,0,0,1-.23-2.91,47.65,47.65,0,0,1-5,1.42c-1.9.18-6-2.27-6-2.27s-.09,3-.22,3.71A1.69,1.69,0,0,1,41,63.23l-7.12,2.59a7.86,7.86,0,0,0-2.21.91,7.52,7.52,0,0,0-3.16,4.16s-.47,3.31-.45,3.43c-.05.47-.09,1-.14,1.51,7.76,5.26,14,6.73,24.7,6.26,4.86-.21,12.1-2.61,15.89-4.52C68.32,73.34,68,70.89,68,70.89Z"/><path class="cls-8" d="M64.62,66.9l-.34-.12-.59-.24c-.77-.33-3.9-1.5-6.18-2.35l-.11,0c-2.51,1.29-6.09,3.22-9.38,3.22s-6.59-1.75-9.39-3.22l-.31.08-4.43,1.61a7.86,7.86,0,0,0-2.21.91,7.52,7.52,0,0,0-3.16,4.16s-.47,3.31-.45,3.43c-.05.47-.09,5.45-.14,6,7.76,5.26,14,6.73,24.7,6.26,4.86-.21,12.1-2.61,15.89-4.52-.2-4.23-.55-11.15-.55-11.15C67.56,68.78,66.69,67.52,64.62,66.9Z"/><g class="cls-9"><path class="cls-10" d="M47.93,88.05A40.49,40.49,0,0,0,70.43,82c-.36-4.59-1-10.57-1.68-11.63a20.2,20.2,0,0,0-5.1-4.72,26.69,26.69,0,0,0-6.77-3.27L48.09,79.88l-7.83-18a26.63,26.63,0,0,0-7.13,3A20.28,20.28,0,0,0,28,69.25c-.77,1-1.68,6.9-2.28,11.46A40.55,40.55,0,0,0,47.93,88.05Z"/><path class="cls-3" d="M56.82,62.45l-.35.7,2.79.08c-.64-.27-1.31-.53-2-.76Z"/><path class="cls-3" d="M37.82,62.66l2.81.08L40.31,62l-.45,0Q38.8,62.3,37.82,62.66Z"/><path class="cls-3" d="M55.89,64.32l-.35.7,7.51.2c-.39-.25-.81-.5-1.25-.74Z"/><path class="cls-3" d="M33.92,64.45l7.54.2-.31-.72-5.94-.16C34.76,64,34.33,64.22,33.92,64.45Z"/><path class="cls-3" d="M64.82,66.45,55,66.19l-.35.7,11.14.3C65.45,66.94,65.14,66.7,64.82,66.45Z"/><path class="cls-3" d="M31.14,66.27l11.15.3L42,65.85l-9.89-.27C31.75,65.82,31.43,66,31.14,66.27Z"/><path class="cls-3" d="M53.66,68.76l14.12.37-.7-.72L54,68.06Z"/><path class="cls-3" d="M43.13,68.48l-.31-.72-13.09-.34c-.27.24-.51.47-.73.69Z"/><path class="cls-3" d="M68.76,70.34l-15.68-.41-.35.7,16.32.43A3.1,3.1,0,0,0,68.76,70.34Z"/><path class="cls-3" d="M27.63,70,44,70.4l-.31-.72L28,69.26A3.38,3.38,0,0,0,27.63,70Z"/><path class="cls-3" d="M69.33,72.25,52.14,71.8l-.35.7L69.45,73C69.41,72.71,69.37,72.48,69.33,72.25Z"/><path class="cls-3" d="M27.12,71.84l17.68.47-.32-.72-17.2-.45C27.23,71.36,27.17,71.59,27.12,71.84Z"/><path class="cls-3" d="M69.64,74.15,51.2,73.66l-.35.71,18.88.5Q69.69,74.5,69.64,74.15Z"/><path class="cls-3" d="M26.74,73.73l18.89.5-.31-.72L26.87,73C26.83,73.25,26.79,73.48,26.74,73.73Z"/><path class="cls-3" d="M69.87,76.05l-19.6-.52-.36.7,20,.53C69.93,76.52,69.9,76.29,69.87,76.05Z"/><path class="cls-3" d="M26.42,75.61l20,.53-.31-.72L26.53,74.9C26.49,75.14,26.46,75.37,26.42,75.61Z"/><path class="cls-3" d="M70.08,78,49.33,77.4l-.35.7,21.17.56C70.12,78.42,70.1,78.19,70.08,78Z"/><path class="cls-3" d="M26.13,77.5l21.17.56L47,77.34l-20.75-.55C26.2,77,26.16,77.26,26.13,77.5Z"/><path class="cls-3" d="M25.86,79.38l44.46,1.18c0-.24,0-.47-.07-.71l-21.86-.58-.3.61-.27-.63L26,78.67C25.92,78.91,25.89,79.15,25.86,79.38Z"/><path class="cls-3" d="M25.68,80.71l.86.58,43.11,1.15.78-.48c0-.07,0-.14,0-.21L25.7,80.56A.77.77,0,0,0,25.68,80.71Z"/><path class="cls-3" d="M29.86,83.27l36.37,1c.47-.22.93-.44,1.39-.68l-39.11-1C29,82.79,29.41,83,29.86,83.27Z"/><path class="cls-3" d="M34.22,85.28,61.77,86c.62-.2,1.24-.42,1.85-.66l-31.21-.82C33,84.79,33.61,85,34.22,85.28Z"/><path class="cls-3" d="M54.36,87.71c1.18-.15,2.34-.36,3.48-.62l-19.76-.52c1.14.31,2.28.58,3.45.8Z"/></g><path class="cls-11" d="M60.26,44.36H59.9c-1-.05-1.24.34-1.19-.26.07-1.06-.07-5.36-.07-5.58,0-4.45-4.66-8.09-10.47-8.29h-.23c-5.82.2-10.47,3.84-10.47,8.29,0,.22-.15,4.52-.07,5.58,0,.6-.23.21-1.2.26h-.36a2.22,2.22,0,0,0-2.09,1.58c.13.08.61,3.73,1.39,5.17.43.8,1.11.91,1.81,1.43a1.52,1.52,0,0,1,.57,1,8.93,8.93,0,0,0,2.68,4.1c.58.57,4.49,4.74,7.85,4.52s7.27-4,7.86-4.52a9.09,9.09,0,0,0,2.68-4.1,1.54,1.54,0,0,1,.56-1c.7-.52,1.38-.63,1.82-1.43.78-1.44,1.26-5.09,1.39-5.17A2.22,2.22,0,0,0,60.26,44.36Z"/><path class="cls-12" d="M48.11,51.42a2.32,2.32,0,0,0,1.77-.8.12.12,0,0,0,0-.17h0a.12.12,0,0,0-.17,0,2.06,2.06,0,0,1-1.59.63,2.09,2.09,0,0,1-1.59-.63.13.13,0,0,0-.09,0,.11.11,0,0,0-.07,0,.13.13,0,0,0,0,.17A2.36,2.36,0,0,0,48.11,51.42Z"/><path class="cls-12" d="M45.94,42.19l.43-.83a11.25,11.25,0,0,0-5.68.18l.54.81A8.94,8.94,0,0,1,45.94,42.19Z"/><path class="cls-12" d="M55.11,42.19l.43-.83a11.25,11.25,0,0,0-5.68.18l.55.81A8.91,8.91,0,0,1,55.11,42.19Z"/><path class="cls-12" d="M43.3,43.37a1.21,1.21,0,0,0-1,.73.51.51,0,0,1,.17,0,.73.73,0,0,1,0,1.46.63.63,0,0,1-.32-.1,1.33,1.33,0,0,0,1.2,1.14,1.65,1.65,0,0,0,0-3.2Z"/><path class="cls-12" d="M52.88,43.37a1.16,1.16,0,0,0-1,.55.48.48,0,0,1,.23-.05.73.73,0,0,1,0,1.46.62.62,0,0,1-.53-.32,1.44,1.44,0,0,0,1.25,1.56,1.65,1.65,0,0,0,0-3.2Z"/><path class="cls-12" d="M53.41,53.27a.1.1,0,0,0,0-.16h0a.11.11,0,0,0-.16,0,8.5,8.5,0,0,1-5.15,1.41A8.49,8.49,0,0,1,43,53.09a.11.11,0,0,0-.07,0,.14.14,0,0,0-.1,0,.11.11,0,0,0,0,.16,9.23,9.23,0,0,0,10.59,0Z"/><path class="cls-12" d="M49.51,58.54a.14.14,0,0,0,.12-.15.15.15,0,0,0-.12-.16H46.94c-.06,0-.11.07-.11.16s.05.15.11.15Z"/><path class="cls-13" d="M68,71.06c-.41-2.14-1.28-3.4-3.35-4l-.34-.12-.59-.24C62.44,66.15,55,63.41,55,63.41a1.9,1.9,0,0,1-1.24-1.08,6.5,6.5,0,0,1-.26-2.3,26.43,26.43,0,0,0,2.39-1.86A9.18,9.18,0,0,0,58.59,54,1.57,1.57,0,0,1,59.15,53c.7-.52,1.38-.64,1.82-1.45a15.35,15.35,0,0,0,1.39-5.23,2.23,2.23,0,0,0-2.1-1.59H59.9c-1,0-1.24.34-1.19-.26.07-1.08-.07-5.43-.07-5.65,0-4.5-4.66-8.18-10.47-8.38h-.23c-5.82.2-10.47,3.88-10.47,8.38,0,.22-.15,4.57-.07,5.65,0,.6-.23.21-1.2.26h-.36a2.22,2.22,0,0,0-2.09,1.59,15.71,15.71,0,0,0,1.39,5.23c.43.81,1.11.93,1.81,1.45A1.54,1.54,0,0,1,37.52,54a9,9,0,0,0,2.68,4.15,26.63,26.63,0,0,0,2.27,1.72c0,.91-.1,2-.17,2.39A1.71,1.71,0,0,1,41,63.41L33.89,66a8.16,8.16,0,0,0-2.21.91,6,6,0,0,0-3.16,4.16c-.59,2.17-.54,8.88-.59,9.42,7.76,5.26,14,6.73,24.7,6.26,4.86-.21,12.1-2.61,15.89-4.53C68.32,78,68,71.06,68,71.06Z"/><polyline class="cls-14" points="58.8 47.56 60.28 46.91 60.03 49.21"/><polyline class="cls-14" points="37.63 47.22 36.15 46.57 36.41 48.87"/><line class="cls-15" x1="37.61" y1="44.49" x2="37.45" y2="53.14"/><line class="cls-15" x1="58.66" y1="44.49" x2="58.83" y2="53.14"/><path class="cls-16" d="M42.46,59.53s3.93,2.89,5.93,2.66,5.13-2.44,5.13-2.44"/><path class="cls-12" d="M35.75,34.12a1.91,1.91,0,0,1,1.59-1s-1.06-1.34-.7-2,4.13-5,13.32-4,10.33,6.93,10.33,6.93L58.42,45s-3.67-10.82-18.48-8.78c0,0,.64,1.38-2.49,6.84l-1.7-8.91Z"/></g></g></svg>