<svg xmlns="http://www.w3.org/2000/svg" viewBox="0 0 100 100" width="100" height="100" style="fill: rgb(0, 0, 0);"><defs><style>.cls-1{fill:#fff;}.cls-2{fill:#f1bc19;}.cls-3{fill:#cee1f4;}.cls-4{fill:#78a0cf;}.cls-5{fill:#fbcd59;}.cls-6{fill:#895f3f;}.cls-7{fill:#a7c9ea;}.cls-13,.cls-14,.cls-15,.cls-8{fill:none;stroke-linejoin:round;}.cls-8{stroke:#78a0cf;}.cls-13,.cls-15,.cls-8{stroke-linecap:round;}.cls-14,.cls-8{stroke-width:0.6px;}.cls-9{fill:#a3754f;stroke-miterlimit:10;stroke-width:0.7px;}.cls-13,.cls-15,.cls-9{stroke:#472b29;}.cls-10{fill:#512c2b;}.cls-11{fill:#f5921e;}.cls-12{fill:#fdfcef;}.cls-14{stroke:#895d3d;}.cls-15{stroke-width:0.4px;}.cls-16{fill:#6d1b18;}.cls-17{fill:#ee3e54;}</style></defs><title>people man_1</title><g id="line1"><circle class="cls-1" cx="20.16" cy="57.12" r="0.89"/><circle class="cls-1" cx="79.21" cy="32.25" r="0.68"/><circle class="cls-2" cx="76.58" cy="13.21" r="0.89"/><circle class="cls-2" cx="20.66" cy="64.79" r="0.89"/><circle class="cls-3" cx="49.48" cy="50.44" r="37.45"/><circle class="cls-2" cx="82.02" cy="15.37" r="4.01"/><circle class="cls-4" cx="86.03" cy="24.44" r="1.88"/><circle class="cls-5" cx="77.05" cy="76.85" r="1.88"/><circle class="cls-5" cx="13.89" cy="63.91" r="4.01"/><circle class="cls-4" cx="24.12" cy="88.04" r="1.88"/><circle class="cls-1" cx="75.7" cy="30.73" r="1.8"/><circle class="cls-1" cx="17.63" cy="51.8" r="2.54"/><path class="cls-6" d="M68,71.65c-.41-2.14-1.28-3.4-3.35-4l-.34-.12-.59-.24C62.44,66.74,55,64,55,64a1.87,1.87,0,0,1-1.24-1.08A8.72,8.72,0,0,1,53.55,60a46.76,46.76,0,0,1-5,1.43c-1.9.18-6-2.27-6-2.27s-.09,3-.22,3.71A1.69,1.69,0,0,1,41,64l-7.12,2.58a8.16,8.16,0,0,0-2.21.91,7.59,7.59,0,0,0-3.16,4.16s-.47,3.32-.45,3.44c-.05.46-.09,1-.14,1.51,7.76,5.26,14,6.73,24.7,6.26,4.86-.21,12.1-2.61,15.89-4.52C68.32,74.11,68,71.65,68,71.65Z"/><path class="cls-7" d="M64.62,67.67l-.34-.12-.59-.24c-.77-.33-3.9-1.5-6.18-2.35l-.11,0c-2.51,1.29-6.09,3.22-9.38,3.22s-6.59-1.75-9.39-3.22l-.31.08-4.43,1.6a8.16,8.16,0,0,0-2.21.91,7.59,7.59,0,0,0-3.16,4.16s-.47,3.32-.45,3.44c-.05.46-.09,5.44-.14,6,7.76,5.26,14,6.73,24.7,6.26,4.86-.21,12.1-2.61,15.89-4.52-.2-4.23-.55-11.16-.55-11.16C67.56,69.55,66.69,68.29,64.62,67.67Z"/><line class="cls-8" x1="34.75" y1="81.09" x2="34.75" y2="85.04"/><line class="cls-8" x1="61.08" y1="81.09" x2="61.08" y2="85.74"/><path class="cls-9" d="M60.26,45.13H59.9c-1,0-1.24.34-1.19-.26.07-1.06-.07-5.36-.07-5.58,0-4.45-4.66-8.09-10.47-8.29h-.23c-5.82.2-10.47,3.84-10.47,8.29,0,.22-.15,4.52-.07,5.58,0,.6-.23.21-1.2.26h-.36a2.22,2.22,0,0,0-2.09,1.58c.13.07.61,3.73,1.39,5.17.43.8,1.11.91,1.81,1.43a1.52,1.52,0,0,1,.57,1,8.93,8.93,0,0,0,2.68,4.1c.58.57,4.49,4.73,7.85,4.52s7.27-3.95,7.86-4.52a9.09,9.09,0,0,0,2.68-4.1,1.54,1.54,0,0,1,.56-1c.7-.52,1.38-.63,1.82-1.43.78-1.44,1.26-5.1,1.39-5.17A2.22,2.22,0,0,0,60.26,45.13Z"/><path class="cls-10" d="M48.11,51.19a2.32,2.32,0,0,0,1.77-.8.12.12,0,0,0,0-.17h0a.12.12,0,0,0-.17,0,2.06,2.06,0,0,1-1.59.63,2.09,2.09,0,0,1-1.59-.63.13.13,0,0,0-.09,0,.11.11,0,0,0-.07,0,.12.12,0,0,0,0,.17A2.36,2.36,0,0,0,48.11,51.19Z"/><path class="cls-10" d="M45.94,43l.43-.83a11.25,11.25,0,0,0-5.68.18l.54.81A8.94,8.94,0,0,1,45.94,43Z"/><path class="cls-10" d="M55.11,43l.43-.83a11.25,11.25,0,0,0-5.68.18l.55.81A8.91,8.91,0,0,1,55.11,43Z"/><path class="cls-10" d="M43.3,44.14a1.21,1.21,0,0,0-1,.73.51.51,0,0,1,.17,0,.73.73,0,0,1,0,1.46.63.63,0,0,1-.32-.1,1.33,1.33,0,0,0,1.2,1.14,1.65,1.65,0,0,0,0-3.2Z"/><path class="cls-10" d="M52.88,44.14a1.17,1.17,0,0,0-1,.54.64.64,0,0,1,.23,0,.73.73,0,0,1,0,1.46.61.61,0,0,1-.53-.31,1.44,1.44,0,0,0,1.25,1.56,1.65,1.65,0,0,0,0-3.2Z"/><path class="cls-11" d="M49.89,73.78,52,87.45H43.56l2.11-13.67A2.38,2.38,0,0,1,49.89,73.78Z"/><path class="cls-11" d="M46.16,71.87l-1.95-4.25H52l-2,4.25A2.25,2.25,0,0,1,46.16,71.87Z"/><path class="cls-12" d="M40.9,63.67l-2.38,1.65L43.64,73l4.74-5.89S41.25,65.32,40.9,63.67Z"/><path class="cls-12" d="M55,63.67l2.39,1.65L52.3,73l-4.75-5.89S54.68,65.32,55,63.67Z"/><path class="cls-13" d="M68,71.83c-.41-2.14-1.28-3.4-3.35-4a3.19,3.19,0,0,1-.34-.13l-.59-.23C62.44,66.92,55,64.18,55,64.18a1.9,1.9,0,0,1-1.24-1.08,6.5,6.5,0,0,1-.26-2.3,25.82,25.82,0,0,0,2.39-1.87,9.1,9.1,0,0,0,2.68-4.14,1.57,1.57,0,0,1,.56-1c.7-.53,1.38-.64,1.82-1.45a15.41,15.41,0,0,0,1.39-5.23,2.23,2.23,0,0,0-2.1-1.59H59.9c-1-.05-1,.23-1-.38.08-1.07-.3-5.31-.3-5.53,0-4.5-4.66-8.18-10.47-8.38v0h-.23v0c-5.82.2-10.47,3.88-10.47,8.38,0,.22-.15,4.57-.07,5.64,0,.61-.23.22-1.2.27h-.36a2.22,2.22,0,0,0-2.09,1.59,15.83,15.83,0,0,0,1.39,5.23c.43.81,1.11.92,1.81,1.45a1.54,1.54,0,0,1,.57,1,8.94,8.94,0,0,0,2.68,4.14,25.92,25.92,0,0,0,2.27,1.73c0,.91-.1,2-.17,2.39A1.71,1.71,0,0,1,41,64.18l-7.12,2.58a8.16,8.16,0,0,0-2.21.91,6,6,0,0,0-3.16,4.16c-.59,2.17-.54,8.88-.59,9.42,7.76,5.26,14,6.73,24.7,6.26,4.86-.21,12.1-2.61,15.89-4.53C68.32,78.76,68,71.83,68,71.83Z"/><polyline class="cls-14" points="58.8 48.33 60.28 47.68 60.03 49.98"/><polyline class="cls-14" points="37.63 47.98 36.15 47.34 36.41 49.63"/><line class="cls-15" x1="37.61" y1="45.26" x2="37.45" y2="53.91"/><line class="cls-15" x1="58.66" y1="45.26" x2="58.83" y2="53.91"/><path class="cls-10" d="M50.26,60.22a3.53,3.53,0,0,1-2.34-2.44,3.52,3.52,0,0,1-2.33,2.44c-3,.59-5.9-2.2-8.06-5.11a7.62,7.62,0,0,0,1.36,2.69c2.4,2.52,6.16,7.51,9,7.51,2.61,0,6.64-5,9-7.51a7.79,7.79,0,0,0,1.36-2.69C56.16,58,53.22,60.81,50.26,60.22Z"/><path class="cls-16" d="M44.55,54.62a1.84,1.84,0,0,0-.06.47c0,1.39,1.54,2.52,3.43,2.52s3.44-1.13,3.44-2.52a1.84,1.84,0,0,0-.06-.47Z"/><path class="cls-17" d="M49.74,57.22a3,3,0,0,0-3.63,0,4.37,4.37,0,0,0,1.81.39A4.42,4.42,0,0,0,49.74,57.22Z"/><path class="cls-12" d="M45.53,54.62v.47c0,.37.49.67,1.09.67h2.61c.6,0,1.09-.3,1.09-.67v-.43s0,0,0,0Z"/><path class="cls-15" d="M44.55,54.62a1.84,1.84,0,0,0-.06.47c0,1.39,1.54,2.52,3.43,2.52s3.44-1.13,3.44-2.52a1.84,1.84,0,0,0-.06-.47Z"/><path class="cls-10" d="M48.18,26.32c-7.17,0-13,5.47-13,12.21a11.51,11.51,0,0,0,.94,4.58,12.25,12.25,0,0,0,1,1.82,21.63,21.63,0,0,0,.55,3.9A32.11,32.11,0,0,0,38,45.12a30.41,30.41,0,0,1,.35-4.21A23.29,23.29,0,0,1,39.57,37a23.42,23.42,0,0,0,8.58,1.51A23.41,23.41,0,0,0,56.72,37,22.42,22.42,0,0,1,58,40.91a30.41,30.41,0,0,1,.35,4.21,34.54,34.54,0,0,0,.27,3.71,22.51,22.51,0,0,0,.57-4.22c0,.12,0,.24,0,.36a11.89,11.89,0,0,0,1-1.86,11.51,11.51,0,0,0,.95-4.58C61.15,31.79,55.34,26.32,48.18,26.32Z"/></g></svg>