<svg xmlns="http://www.w3.org/2000/svg" viewBox="0 0 100 100" width="100" height="100" style="fill: rgb(0, 0, 0);"><defs><style>.cls-1{fill:#fff;}.cls-2{fill:#f1bc19;}.cls-3{fill:#e6edb7;}.cls-4{fill:#88ae45;}.cls-5{fill:#fbcd59;}.cls-6{fill:#e5ac80;}.cls-7{fill:#fdfcef;}.cls-13,.cls-14,.cls-15,.cls-8{fill:none;stroke-linejoin:round;}.cls-8{stroke:#e1e0d8;}.cls-13,.cls-15,.cls-8{stroke-linecap:round;}.cls-14,.cls-8{stroke-width:0.6px;}.cls-9{fill:#9abf4b;}.cls-10{fill:#eaeae8;}.cls-11{fill:#edbc94;}.cls-12{fill:#512c2b;}.cls-13,.cls-15{stroke:#472b29;}.cls-13{stroke-width:0.8px;}.cls-14{stroke:#d3a47d;}.cls-15{stroke-width:0.4px;}.cls-16{fill:#472b29;}.cls-17{fill:#8c9136;}</style></defs><title>people man_10</title><g id="line2"><g id="_grupa_" data-name="&lt;grupa&gt;"><circle class="cls-1" cx="20.32" cy="55.99" r="0.89"/><circle class="cls-1" cx="79.37" cy="31.12" r="0.68"/><circle class="cls-2" cx="76.74" cy="12.08" r="0.89"/><circle class="cls-2" cx="20.81" cy="63.66" r="0.89"/><circle class="cls-3" cx="49.63" cy="49.32" r="37.45"/><circle class="cls-2" cx="82.18" cy="14.24" r="4.01"/><circle class="cls-4" cx="86.19" cy="23.31" r="1.88"/><circle class="cls-5" cx="77.2" cy="75.73" r="1.88"/><circle class="cls-5" cx="14.04" cy="62.78" r="4.01"/><circle class="cls-4" cx="24.28" cy="86.91" r="1.88"/><circle class="cls-1" cx="75.85" cy="29.6" r="1.8"/><circle class="cls-1" cx="17.78" cy="50.67" r="2.54"/><path class="cls-6" d="M68.12,70.53c-.4-2.15-1.28-3.41-3.34-4l-.35-.12-.58-.24c-1.25-.53-8.68-3.27-8.68-3.27a1.87,1.87,0,0,1-1.24-1.08,8.66,8.66,0,0,1-.23-2.91,46.9,46.9,0,0,1-5,1.42c-1.9.18-6-2.27-6-2.27s-.1,3-.23,3.71a1.67,1.67,0,0,1-1.28,1.13L34,65.46a8.11,8.11,0,0,0-2.21.91,7.52,7.52,0,0,0-3.16,4.16s-.47,3.31-.45,3.43c0,.47-.09,1-.13,1.51,7.76,5.26,14,6.73,24.69,6.26,4.87-.21,12.1-2.61,15.9-4.52C68.47,73,68.12,70.53,68.12,70.53Z"/><path class="cls-7" d="M64.78,66.68l-.35-.12-.58-.24c-.77-.33-3.91-1.5-6.19-2.35l-.1,0c-2.52,1.29-6.1,3.23-9.39,3.23s-6.58-1.75-9.38-3.23l-.32.09L34,65.63a8.44,8.44,0,0,0-2.21.91,7.59,7.59,0,0,0-3.16,4.16s-.47,3.32-.45,3.44c0,.46-.09,5.44-.13,6,7.76,5.26,14,6.73,24.69,6.26,4.87-.21,12.1-2.61,15.9-4.53-.21-4.22-.56-11.15-.56-11.15C67.72,68.56,66.84,67.3,64.78,66.68Z"/><line class="cls-8" x1="34.9" y1="80.1" x2="34.9" y2="84.05"/><line class="cls-8" x1="61.23" y1="80.1" x2="61.23" y2="84.75"/><path class="cls-4" d="M50.11,72.79l2.11,13.67H43.78l2.11-13.67A2.38,2.38,0,0,1,50.11,72.79Z"/><path class="cls-9" d="M46.05,70.88,44.1,66.63h7.8L50,70.88A2.25,2.25,0,0,1,46.05,70.88Z"/><path class="cls-10" d="M40.94,62.68l-2.39,1.65,5.12,7.72,4.75-5.89S41.29,64.33,40.94,62.68Z"/><path class="cls-10" d="M55.06,62.68l2.39,1.65-5.12,7.72-4.75-5.89S54.71,64.33,55.06,62.68Z"/><path class="cls-11" d="M60.42,44.17h-.36c-1,0-1.24.34-1.2-.25.08-1-.07-5.29-.07-5.51,0-4.39-4.65-8-10.46-8.18h-.24c-5.81.2-10.46,3.79-10.46,8.18,0,.22-.15,4.46-.07,5.51,0,.59-.24.21-1.2.25H36a2.23,2.23,0,0,0-2.1,1.56c.13.08.61,3.68,1.39,5.1.44.79,1.12.91,1.82,1.42a1.51,1.51,0,0,1,.57,1,8.84,8.84,0,0,0,2.67,4c.59.56,4.5,4.67,7.86,4.46s7.27-3.9,7.86-4.46a8.84,8.84,0,0,0,2.67-4,1.51,1.51,0,0,1,.57-1c.7-.51,1.38-.63,1.81-1.42.78-1.42,1.26-5,1.39-5.1A2.21,2.21,0,0,0,60.42,44.17Z"/><path class="cls-12" d="M48.27,52.06a2.36,2.36,0,0,0,1.77-.8.12.12,0,0,0,0-.17h0a.12.12,0,0,0-.17,0,2.32,2.32,0,0,1-3.18,0,.15.15,0,0,0-.09,0,.11.11,0,0,0-.08,0,.12.12,0,0,0,0,.17A2.34,2.34,0,0,0,48.27,52.06Z"/><path class="cls-12" d="M46.09,41.83l.43-.83a11.25,11.25,0,0,0-5.68.18l.55.81A8.91,8.91,0,0,1,46.09,41.83Z"/><path class="cls-12" d="M55.26,41.83,55.7,41a11.29,11.29,0,0,0-5.69.18l.55.81A8.91,8.91,0,0,1,55.26,41.83Z"/><path class="cls-12" d="M43.45,43a1.22,1.22,0,0,0-1.05.73.57.57,0,0,1,.18,0,.73.73,0,0,1,0,1.46.58.58,0,0,1-.32-.1,1.33,1.33,0,0,0,1.19,1.14,1.65,1.65,0,0,0,0-3.2Z"/><path class="cls-12" d="M53,43a1.15,1.15,0,0,0-.94.55.59.59,0,0,1,.23-.05.73.73,0,0,1,0,1.46.65.65,0,0,1-.54-.32A1.29,1.29,0,1,0,53,43Z"/><path class="cls-12" d="M53.56,53.92a.13.13,0,0,0,0-.17h0a.12.12,0,0,0-.17,0,8.47,8.47,0,0,1-5.14,1.41,8.47,8.47,0,0,1-5.14-1.41.11.11,0,0,0-.08,0,.12.12,0,0,0-.09,0,.13.13,0,0,0,0,.17,9.26,9.26,0,0,0,10.58,0Z"/><path class="cls-13" d="M68.12,70.7c-.4-2.14-1.28-3.4-3.34-4l-.35-.12-.58-.24c-1.25-.53-8.68-3.27-8.68-3.27A1.87,1.87,0,0,1,53.93,62a6.51,6.51,0,0,1-.25-2.3,29.94,29.94,0,0,0,2.39-1.86,9.08,9.08,0,0,0,2.67-4.15,1.58,1.58,0,0,1,.57-1c.7-.52,1.38-.64,1.81-1.45a15.35,15.35,0,0,0,1.39-5.23,2.21,2.21,0,0,0-2.09-1.59h-.36c-1,0-1.24.34-1.2-.26.08-1.08-.07-5.43-.07-5.64,0-4.51-4.65-8.19-10.46-8.39h-.24c-5.81.2-10.46,3.88-10.46,8.39,0,.21-.15,4.56-.07,5.64,0,.6-.24.21-1.2.26H36a2.23,2.23,0,0,0-2.1,1.59,15.71,15.71,0,0,0,1.39,5.23c.44.81,1.12.93,1.82,1.45a1.58,1.58,0,0,1,.57,1,9.08,9.08,0,0,0,2.67,4.15,25.73,25.73,0,0,0,2.28,1.72c-.05.91-.11,2-.18,2.39a1.67,1.67,0,0,1-1.28,1.13L34,65.63a8.44,8.44,0,0,0-2.21.91,6,6,0,0,0-3.16,4.16c-.58,2.17-.54,8.88-.58,9.42,7.76,5.26,14,6.73,24.69,6.26,4.87-.21,12.1-2.61,15.9-4.53C68.47,77.63,68.12,70.7,68.12,70.7Z"/><polyline class="cls-14" points="58.95 47.2 60.44 46.55 60.18 48.85"/><polyline class="cls-14" points="37.79 46.85 36.3 46.21 36.56 48.51"/><line class="cls-15" x1="37.77" y1="44.13" x2="37.6" y2="52.78"/><line class="cls-15" x1="58.82" y1="44.13" x2="58.98" y2="52.78"/><path class="cls-16" d="M54.73,58.4c-1.79,1.23-5.17,1.91-5.82.84-.48-.78-1.17-.78-1.65,0-.71,1.16-4.33,0-6.18-1.36-.52,0,0,.17-.42.54a38.44,38.44,0,0,0,7.41,4.82h0A43.31,43.31,0,0,0,55,58.85C54.61,58.42,55.3,58.41,54.73,58.4Z"/><path class="cls-16" d="M58.48,32.9a2.65,2.65,0,0,1,2.12,2.6C60.53,37.65,59,47,59,47L56,37.4l2.51-4.5Z"/><path class="cls-16" d="M46.92,26.89l-1.16-1.58s13-1.42,13,5.63a11.43,11.43,0,0,1-8.47,11.33l.64-2.53L45.82,42.4l.65-1.52L42.23,42.4l1.54-3.48L40,40.31A42.73,42.73,0,0,0,38,47s-3-9.91-1.05-10.68l-.71-.38.9-1.77-1.35-.57L36.9,32l-.52-.7L39,29.8l-1.35-.69s4.31-3.55,9.32-2.22Z"/><path class="cls-17" d="M46.89,43.48c-2-2.43-9.49-.71-9.5-.71q.21.82.36,1.62c.56.06.59,1.31.65,1.77.27,2.21,1.75,3.84,4.87,3.77a3.92,3.92,0,0,0,4-3.85A5.41,5.41,0,0,0,46.89,43.48Zm-.35,2.71a3.25,3.25,0,0,1-3.35,3.24h-.58c-3.1,0-3.63-2.72-3.69-4.44a1.83,1.83,0,0,1,1.65-1.92,19.39,19.39,0,0,1,2-.06c2.32,0,3.33.56,3.6,1A4,4,0,0,1,46.54,46.19Z"/><path class="cls-17" d="M49.09,46.08a3.92,3.92,0,0,0,4,3.85c3.12.07,4.6-1.56,4.87-3.77.05-.46.09-1.71.64-1.77.11-.53.23-1.07.37-1.62,0,0-7.51-1.72-9.5.71A5.41,5.41,0,0,0,49.09,46.08ZM50.22,44c.27-.44,1.28-1,3.6-1a19.39,19.39,0,0,1,2,.06A1.83,1.83,0,0,1,57.42,45c-.06,1.72-.59,4.43-3.69,4.44h-.58a3.25,3.25,0,0,1-3.35-3.24A3.9,3.9,0,0,1,50.22,44Z"/><path class="cls-17" d="M49.52,45.38a2.4,2.4,0,0,0-1.4-.4,2.08,2.08,0,0,0-1.3.4c-.13-.37-.27-.75-.41-1.12h3.51Z"/></g></g></svg>