<svg xmlns="http://www.w3.org/2000/svg" viewBox="0 0 100 100" width="100" height="100" style="fill: rgb(0, 0, 0);"><defs><style>.cls-1{fill:#fff;}.cls-2{fill:#f1bc19;}.cls-3{fill:#c0e5e4;}.cls-4{fill:#00a5a5;}.cls-5{fill:#fbcd59;}.cls-6{fill:#512c2b;}.cls-7{fill:#895f3f;}.cls-8{fill:#407990;}.cls-9{fill:#fdfcef;}.cls-10{fill:#b2cbcc;}.cls-11{fill:#e1e0d8;}.cls-12{fill:#038e8a;}.cls-13,.cls-15,.cls-16,.cls-17{fill:none;stroke-linejoin:round;}.cls-13{stroke:#2b6172;stroke-width:0.7px;}.cls-13,.cls-15,.cls-17{stroke-linecap:round;}.cls-14{fill:#a3754f;stroke-miterlimit:10;stroke-width:0.7px;}.cls-14,.cls-15,.cls-17{stroke:#472b29;}.cls-16{stroke:#895d3d;stroke-width:0.6px;}.cls-17{stroke-width:0.4px;}</style></defs><title>people man_5</title><g id="line1"><circle class="cls-1" cx="20.16" cy="56.87" r="0.89"/><circle class="cls-1" cx="79.21" cy="31.99" r="0.68"/><circle class="cls-2" cx="76.58" cy="12.96" r="0.89"/><circle class="cls-2" cx="20.66" cy="64.54" r="0.89"/><circle class="cls-3" cx="49.48" cy="50.19" r="37.45"/><circle class="cls-2" cx="82.02" cy="15.12" r="4.01"/><circle class="cls-4" cx="86.03" cy="24.19" r="1.88"/><circle class="cls-5" cx="77.05" cy="76.6" r="1.88"/><circle class="cls-5" cx="13.89" cy="63.65" r="4.01"/><circle class="cls-4" cx="24.12" cy="87.79" r="1.88"/><circle class="cls-1" cx="75.7" cy="30.48" r="1.8"/><circle class="cls-1" cx="17.63" cy="51.54" r="2.54"/><path class="cls-6" d="M65.42,43.46a1.11,1.11,0,0,0,.15-.74.6.6,0,0,0-.06-.47,1.54,1.54,0,0,0-.28-.34l.11-.18a1.76,1.76,0,0,0,.17-.77,1.78,1.78,0,0,0-.13-.78,3.24,3.24,0,0,0-.28-.47l0,0L65,39.56a.64.64,0,0,0-.08-.14.57.57,0,0,0-.33-.35L64.45,39a1.36,1.36,0,0,0-.12-.12,1.11,1.11,0,0,0-.43-.28,2.34,2.34,0,0,0,.76-.87c.59-1.2-.25-2.58-1.59-3.17a2.21,2.21,0,0,0-.15-.94c0-.11-.05-.22-.07-.31a2.39,2.39,0,0,0-.34-.7A3.17,3.17,0,0,0,62,32a2.85,2.85,0,0,0-1-.63l-.41-.16a1.89,1.89,0,0,0,.1-.89l-.15-.54a2.57,2.57,0,0,0-1.2-1.24,1.89,1.89,0,0,0-.87-.24,1.79,1.79,0,0,0-.89.05h0a2.13,2.13,0,0,0-1.32-.51,1.66,1.66,0,0,0-.94.25,1.43,1.43,0,0,0-.14-.2,1.76,1.76,0,0,0-.66-.48l-.66-.29a1.71,1.71,0,0,0-1.24,0l-.17.08a.61.61,0,0,0-.3-.27,1.87,1.87,0,0,0-.5-.51,1.91,1.91,0,0,0-1.75-.19,1.2,1.2,0,0,0-.61-.09,1.56,1.56,0,0,0-.37.1,1,1,0,0,0-.37-.5,1.32,1.32,0,0,0-.83-.23h-.29a1.17,1.17,0,0,0-.78.4,1.05,1.05,0,0,0-.22.45,1.94,1.94,0,0,0-2,.06,2,2,0,0,0-.49.51.57.57,0,0,0-.3.27l-.17-.08a1.79,1.79,0,0,0-1.25,0l-.65.29a1.76,1.76,0,0,0-.66.48,2.43,2.43,0,0,0-.14.2,1.77,1.77,0,0,0-1-.24,2.07,2.07,0,0,0-1.31.51h0a1.71,1.71,0,0,0-.9-.05,2,2,0,0,0-.87.24,2.58,2.58,0,0,0-1.19,1.23c0,.18-.1.37-.16.55a1.79,1.79,0,0,0,.11.89,3.12,3.12,0,0,0-.41.16A2.71,2.71,0,0,0,34,32a3.93,3.93,0,0,0-.53.63,2.7,2.7,0,0,0-.33.71c0,.09,0,.19-.08.3a2.42,2.42,0,0,0-.15,1c-1.33.58-2.17,2-1.58,3.16a2.25,2.25,0,0,0,.75.87,1.52,1.52,0,0,0-.43.28l-.11.12-.12.07a.53.53,0,0,0-.33.34,1.09,1.09,0,0,0-.08.15l-.11.11,0,0a2.13,2.13,0,0,0-.27.46,1.79,1.79,0,0,0-.14.78,1.88,1.88,0,0,0,.17.77l.11.18a1.6,1.6,0,0,0-.28.35.62.62,0,0,0-.05.46,1.05,1.05,0,0,0,.14.74,1.74,1.74,0,0,0-.92,1.77l.08.46a1.79,1.79,0,0,0,.67,1.07,2.29,2.29,0,0,0,.69.66,1.54,1.54,0,0,0-.46.89,1.47,1.47,0,0,0-.2.54A1.66,1.66,0,0,0,30.67,50a2,2,0,0,0,.86.74,1.57,1.57,0,0,0,.43.42,2.81,2.81,0,0,0,1,.42,2.25,2.25,0,0,0,1.19-.13c0,.06.09.11.13.18a1.74,1.74,0,0,0-.5.35,1.61,1.61,0,0,0,.1,2.38,1.14,1.14,0,0,0,.25.18c0,.19.07.38.1.57a2.7,2.7,0,0,0,.69,1.09l.15.15a2.09,2.09,0,0,0,.84.54,2.19,2.19,0,0,0,1,.26,1.91,1.91,0,0,0,1-.17,1.86,1.86,0,0,0,.81-.48l.18-.21A16.5,16.5,0,0,0,46,59.16a2.44,2.44,0,0,0,4.2.23,2.14,2.14,0,0,0,.17-.3,16.44,16.44,0,0,0,6.74-2.83,2,2,0,0,0,.18.21,1.6,1.6,0,0,0,.81.48,1.89,1.89,0,0,0,1,.17,2.14,2.14,0,0,0,1-.25,2.29,2.29,0,0,0,.85-.54l.14-.16a2.69,2.69,0,0,0,.7-1.08l.1-.57.25-.18a1.65,1.65,0,0,0,.55-1A1.63,1.63,0,0,0,62.2,52a1.92,1.92,0,0,0-.5-.36l.13-.18a2.25,2.25,0,0,0,1.19.13,2.61,2.61,0,0,0,1-.41,1.72,1.72,0,0,0,.43-.42,2,2,0,0,0,.86-.75,1.66,1.66,0,0,0,.28-1.13,1.54,1.54,0,0,0-.2-.54,1.49,1.49,0,0,0-.46-.88,2.42,2.42,0,0,0,.69-.66,1.92,1.92,0,0,0,.68-1.07c0-.16,0-.31.08-.46A1.75,1.75,0,0,0,65.42,43.46Z"/><path class="cls-7" d="M68,71.4c-.41-2.14-1.28-3.4-3.35-4a3.19,3.19,0,0,1-.34-.13L63.69,67C62.44,66.49,55,63.75,55,63.75a1.9,1.9,0,0,1-1.24-1.08,8.72,8.72,0,0,1-.23-2.92,49.38,49.38,0,0,1-5,1.43c-1.9.18-6-2.28-6-2.28s-.09,3-.22,3.72A1.71,1.71,0,0,1,41,63.75l-7.12,2.58a8.16,8.16,0,0,0-2.21.91,7.59,7.59,0,0,0-3.16,4.16s-.47,3.32-.45,3.44c-.05.46-.09,1-.14,1.51,7.76,5.26,14,6.73,24.7,6.26,4.86-.21,12.1-2.61,15.89-4.53C68.32,73.86,68,71.4,68,71.4Z"/><path class="cls-8" d="M28.83,69.75c.42-1,3.22-3,4.29-3.25L34.58,66h0L40.4,63.7c1.51,3.9,5.07,20,6.84,23.76a33.78,33.78,0,0,1-9.45-1.13A52.2,52.2,0,0,1,27.58,81C27.74,80.23,27.49,72.92,28.83,69.75Z"/><path class="cls-9" d="M55.39,65l-.9-.3a1.68,1.68,0,0,1-.58-.3,15.59,15.59,0,0,1-5.72,1,3.55,3.55,0,0,1,2.05.43c-3,.34-6.53,1-8.41-1.29a2,2,0,0,1-.37.15l-.9.3-.27.09c1.5,4.14,3.08,8.18,4.53,12.26h8.07C54.66,73.56,56,69.6,57.51,65.7Z"/><path class="cls-8" d="M67.41,69c-.42-1-1.19-1.09-2.26-1.4l-1.46-.54h0l-5.82-2.25c-1.51,3.89-7.3,19-9.08,22.83A34.39,34.39,0,0,0,60,86.29c6.33-1.79,8.84-3.4,8.83-3.48C68.71,82,68.74,72.17,67.41,69Z"/><path class="cls-10" d="M46.15,69.67l-1.83-4.1h7.31l-1.83,4.1A2.08,2.08,0,0,1,46.15,69.67Z"/><path class="cls-10" d="M49.7,71.18l1.61,8.49H44l2-8.49A2.08,2.08,0,0,1,49.7,71.18Z"/><path class="cls-11" d="M42.57,62.75,40.74,64l3.92,6,3.64-4.61S42.84,64,42.57,62.75Z"/><path class="cls-11" d="M53.39,62.75,55.22,64l-3.92,6-3.64-4.61S53.12,64,53.39,62.75Z"/><path class="cls-12" d="M54.87,63.7l6.47,2.41S52,82.7,50.11,85.9H44.32Z"/><path class="cls-4" d="M41,63.4,34.66,66S43.12,84.44,45,87.64h5.78Z"/><line class="cls-13" x1="34.75" y1="80.84" x2="34.75" y2="84.79"/><line class="cls-13" x1="61.08" y1="80.84" x2="61.08" y2="85.48"/><path class="cls-14" d="M60.26,44.88H59.9c-1,0-1.24.34-1.19-.26.07-1.06-.07-5.36-.07-5.58,0-4.46-4.66-8.09-10.47-8.29v0h-.23v0c-5.82.2-10.47,3.83-10.47,8.29,0,.22-.15,4.52-.07,5.58,0,.6-.23.21-1.2.26h-.36a2.22,2.22,0,0,0-2.09,1.57c.13.08.61,3.73,1.39,5.17.43.81,1.11.92,1.81,1.44a1.5,1.5,0,0,1,.57,1,8.85,8.85,0,0,0,2.68,4.09c.58.57,4.49,4.74,7.85,4.53s7.27-4,7.86-4.53a9,9,0,0,0,2.68-4.09,1.52,1.52,0,0,1,.56-1c.7-.52,1.38-.63,1.82-1.44.78-1.44,1.26-5.09,1.39-5.17A2.22,2.22,0,0,0,60.26,44.88Z"/><path class="cls-6" d="M48.11,51.93a2.32,2.32,0,0,0,1.77-.79.12.12,0,0,0,0-.17h0a.12.12,0,0,0-.17,0,2.05,2.05,0,0,1-1.59.62A2.08,2.08,0,0,1,46.52,51a.1.1,0,0,0-.09,0,.11.11,0,0,0-.07,0,.12.12,0,0,0,0,.17A2.35,2.35,0,0,0,48.11,51.93Z"/><path class="cls-6" d="M45.94,42.71l.43-.83a11.25,11.25,0,0,0-5.68.18l.54.81A8.94,8.94,0,0,1,45.94,42.71Z"/><path class="cls-6" d="M55.11,42.71l.43-.83a11.25,11.25,0,0,0-5.68.18l.55.81A8.91,8.91,0,0,1,55.11,42.71Z"/><path class="cls-6" d="M43.3,43.88a1.21,1.21,0,0,0-1,.73,1,1,0,0,1,.17,0,.73.73,0,0,1,0,1.46.55.55,0,0,1-.32-.1,1.33,1.33,0,0,0,1.2,1.15,1.66,1.66,0,0,0,0-3.21Z"/><path class="cls-6" d="M52.88,43.88a1.18,1.18,0,0,0-1,.55.64.64,0,0,1,.23,0,.73.73,0,0,1,0,1.46.6.6,0,0,1-.53-.32,1.44,1.44,0,0,0,1.25,1.57,1.66,1.66,0,0,0,0-3.21Z"/><path class="cls-6" d="M53.41,53.79a.12.12,0,0,0,0-.17h0a.11.11,0,0,0-.16,0A8.5,8.5,0,0,1,48.11,55,8.49,8.49,0,0,1,43,53.6l-.07,0a.13.13,0,0,0-.1,0,.12.12,0,0,0,0,.17,9.27,9.27,0,0,0,10.59,0Z"/><path class="cls-6" d="M38.22,41.31A23.86,23.86,0,0,1,40.5,35.1,1.36,1.36,0,0,0,39,34.62a16.89,16.89,0,0,0-2.1,8.45,15.5,15.5,0,0,0,.71,4C37.93,45.15,37.81,43.21,38.22,41.31Z"/><path class="cls-6" d="M58,41.31a23.53,23.53,0,0,0-2.29-6.21,1.37,1.37,0,0,1,1.51-.48,16.8,16.8,0,0,1,2.11,8.45,15.5,15.5,0,0,1-.71,4C58.3,45.15,58.42,43.21,58,41.31Z"/><path class="cls-6" d="M49.51,59.06a.15.15,0,0,0,.12-.16.14.14,0,0,0-.12-.15H46.94c-.06,0-.11.07-.11.15s.05.16.11.16Z"/><path class="cls-15" d="M68,71.58c-.41-2.15-1.28-3.4-3.35-4a2.87,2.87,0,0,1-.34-.12l-.59-.24C62.44,66.67,55,63.93,55,63.93a1.89,1.89,0,0,1-1.24-1.09,6.47,6.47,0,0,1-.26-2.29,27.8,27.8,0,0,0,2.39-1.87,9.15,9.15,0,0,0,2.68-4.14,1.57,1.57,0,0,1,.56-1c.7-.53,1.38-.64,1.82-1.45a15.47,15.47,0,0,0,1.39-5.23,2.24,2.24,0,0,0-2.1-1.6H59.9c-1,0-1.24.35-1.19-.26.07-1.07-.07-5.42-.07-5.64,0-4.51-4.66-8.18-10.47-8.38v0h-.23v0c-5.82.2-10.47,3.87-10.47,8.38,0,.22-.15,4.57-.07,5.64,0,.61-.23.22-1.2.26h-.36a2.23,2.23,0,0,0-2.09,1.6A15.83,15.83,0,0,0,35.14,52c.43.81,1.11.92,1.81,1.45a1.54,1.54,0,0,1,.57,1,9,9,0,0,0,2.68,4.14,25.92,25.92,0,0,0,2.27,1.73c0,.91-.1,2-.17,2.38A1.72,1.72,0,0,1,41,63.93l-7.12,2.58a8.16,8.16,0,0,0-2.21.91,6,6,0,0,0-3.16,4.16c-.59,2.17-.54,8.88-.59,9.42,7.76,5.25,14,6.73,24.7,6.26,4.86-.22,12.1-2.62,15.89-4.53C68.32,78.51,68,71.58,68,71.58Z"/><polyline class="cls-16" points="58.8 48.07 60.28 47.43 60.03 49.72"/><polyline class="cls-16" points="37.63 47.73 36.15 47.09 36.41 49.38"/><line class="cls-17" x1="37.61" y1="45.01" x2="37.45" y2="53.66"/><line class="cls-17" x1="58.66" y1="45.01" x2="58.83" y2="53.66"/><path class="cls-6" d="M59.47,42.46c.47-4.94-.93-7.75-2-9.14A14.71,14.71,0,0,0,48,29.92a14.94,14.94,0,0,0-8.21,2.41c-1.94,2-4.23,5.69-3.08,10.13a43.92,43.92,0,0,0,1,6.52c.19-2,.21-6.37.62-8.29a24.3,24.3,0,0,1,1.26-4.1c2.74-3.06,14.09-2.92,17,0a24.3,24.3,0,0,1,1.26,4.1c.41,1.92.43,6.29.76,8.19A41.23,41.23,0,0,0,59.47,42.46Z"/><path class="cls-2" d="M46.86,44.5c-2-2.4-9.37-.7-9.38-.7.14.54.26,1.07.36,1.6.55.06.59,1.29.64,1.74.27,2.19,1.73,3.79,4.8,3.72a3.86,3.86,0,0,0,3.93-3.8A5.62,5.62,0,0,0,46.86,44.5Zm-.36,2.68a3.2,3.2,0,0,1-3.3,3.19,5.42,5.42,0,0,1-.57,0c-3.05,0-3.58-2.68-3.64-4.37a1.82,1.82,0,0,1,1.63-1.9c.56-.05,1.2-.05,1.93-.05,2.28,0,3.28.54,3.54,1A3.84,3.84,0,0,1,46.5,47.18Z"/><path class="cls-2" d="M49,47.06A3.86,3.86,0,0,0,53,50.86c3.07.07,4.53-1.54,4.8-3.72,0-.45.08-1.68.63-1.74.11-.53.23-1.06.36-1.6,0,0-7.4-1.7-9.37.7A5.31,5.31,0,0,0,49,47.06Zm1.12-2c.26-.44,1.26-1,3.54-1,.73,0,1.36,0,1.93.05A1.81,1.81,0,0,1,57.23,46c-.06,1.69-.58,4.37-3.64,4.37a5.42,5.42,0,0,1-.57,0,3.22,3.22,0,0,1-3.3-3.19A3.91,3.91,0,0,1,50.14,45Z"/><path class="cls-2" d="M49.44,46.38a2.33,2.33,0,0,0-1.38-.4,2,2,0,0,0-1.27.4c-.14-.38-.27-.75-.41-1.12,1.16,0,2.31,0,3.46,0C49.71,45.63,49.58,46,49.44,46.38Z"/></g></svg>