<svg xmlns="http://www.w3.org/2000/svg" viewBox="0 0 100 100" width="100" height="100" style="fill: rgb(0, 0, 0);"><defs><style>.cls-1{fill:#fff;}.cls-2{fill:#f1bc19;}.cls-3{fill:#e6edb7;}.cls-4{fill:#88ae45;}.cls-5{fill:#fbcd59;}.cls-6{fill:#ce9065;}.cls-10,.cls-11,.cls-12,.cls-15,.cls-7{fill:none;stroke-linejoin:round;}.cls-7{stroke:#6f913d;stroke-width:0.7px;}.cls-10,.cls-12,.cls-15,.cls-7{stroke-linecap:round;}.cls-8{fill:#db9e71;}.cls-9{fill:#512c2b;}.cls-10,.cls-12,.cls-13,.cls-15{stroke:#472b29;}.cls-11{stroke:#895d3d;stroke-width:0.6px;}.cls-12{stroke-width:0.4px;}.cls-13{fill:#6f913d;stroke-miterlimit:10;stroke-width:0.7px;}.cls-14{fill:#c0d078;}.cls-15{stroke-width:0.5px;}</style></defs><title>people man_26</title><g id="line3"><circle class="cls-1" cx="20.16" cy="56.35" r="0.89"/><circle class="cls-1" cx="79.21" cy="31.48" r="0.68"/><circle class="cls-2" cx="76.58" cy="12.44" r="0.89"/><circle class="cls-2" cx="20.66" cy="64.02" r="0.89"/><circle class="cls-3" cx="49.48" cy="49.67" r="37.45"/><circle class="cls-2" cx="82.02" cy="14.6" r="4.01"/><circle class="cls-4" cx="86.03" cy="23.67" r="1.88"/><circle class="cls-5" cx="77.05" cy="76.08" r="1.88"/><circle class="cls-5" cx="13.89" cy="63.14" r="4.01"/><circle class="cls-4" cx="24.12" cy="87.27" r="1.88"/><circle class="cls-1" cx="75.7" cy="29.96" r="1.8"/><circle class="cls-1" cx="17.63" cy="51.03" r="2.54"/><path class="cls-6" d="M68,70.89c-.41-2.15-1.28-3.41-3.35-4l-.34-.12-.59-.24C62.44,66,55,63.23,55,63.23a1.87,1.87,0,0,1-1.24-1.08,8.66,8.66,0,0,1-.23-2.91,47.65,47.65,0,0,1-5,1.42c-1.9.18-6-2.27-6-2.27s-.09,3-.22,3.71A1.69,1.69,0,0,1,41,63.23l-7.12,2.59a7.86,7.86,0,0,0-2.21.91,7.52,7.52,0,0,0-3.16,4.16s-.47,3.31-.45,3.43c-.05.47-.09,1-.14,1.51,7.76,5.26,14,6.73,24.7,6.26,4.86-.21,12.1-2.61,15.89-4.52C68.32,73.34,68,70.89,68,70.89Z"/><path class="cls-4" d="M64.62,66.9l-.34-.12-.59-.24c-.77-.33-3.9-1.5-6.18-2.35l-.11,0c-2.51,1.29-6.09,3.22-9.38,3.22s-6.59-1.75-9.39-3.22l-.31.08-4.43,1.61a7.86,7.86,0,0,0-2.21.91,7.52,7.52,0,0,0-3.16,4.16s-.47,3.31-.45,3.43c-.05.47-.09,5.45-.14,6,7.76,5.26,14,6.73,24.7,6.26,4.86-.21,12.1-2.61,15.89-4.52-.2-4.23-.55-11.15-.55-11.15C67.56,68.78,66.69,67.52,64.62,66.9Z"/><line class="cls-7" x1="34.9" y1="80.34" x2="34.9" y2="84.25"/><line class="cls-7" x1="61.06" y1="80.34" x2="61.06" y2="84.94"/><path class="cls-8" d="M60.26,44.36H59.9c-1-.05-1.24.34-1.19-.26.07-1.06-.07-5.36-.07-5.58,0-4.45-4.66-8.09-10.47-8.29h-.23c-5.82.2-10.47,3.84-10.47,8.29,0,.22-.15,4.52-.07,5.58,0,.6-.23.21-1.2.26h-.36a2.22,2.22,0,0,0-2.09,1.58c.13.08.61,3.73,1.39,5.17.43.8,1.11.91,1.81,1.43a1.52,1.52,0,0,1,.57,1,8.93,8.93,0,0,0,2.68,4.1c.58.57,4.49,4.74,7.85,4.52s7.27-4,7.86-4.52a9.09,9.09,0,0,0,2.68-4.1,1.54,1.54,0,0,1,.56-1c.7-.52,1.38-.63,1.82-1.43.78-1.44,1.26-5.09,1.39-5.17A2.22,2.22,0,0,0,60.26,44.36Z"/><path class="cls-9" d="M48.11,51.42a2.32,2.32,0,0,0,1.77-.8.12.12,0,0,0,0-.17h0a.12.12,0,0,0-.17,0,2.06,2.06,0,0,1-1.59.63,2.09,2.09,0,0,1-1.59-.63.13.13,0,0,0-.09,0,.11.11,0,0,0-.07,0,.13.13,0,0,0,0,.17A2.36,2.36,0,0,0,48.11,51.42Z"/><path class="cls-9" d="M45.94,42.19l.43-.83a11.25,11.25,0,0,0-5.68.18l.54.81A8.94,8.94,0,0,1,45.94,42.19Z"/><path class="cls-9" d="M55.11,42.19l.43-.83a11.25,11.25,0,0,0-5.68.18l.55.81A8.91,8.91,0,0,1,55.11,42.19Z"/><path class="cls-9" d="M43.3,43.37a1.21,1.21,0,0,0-1,.73.51.51,0,0,1,.17,0,.73.73,0,0,1,0,1.46.63.63,0,0,1-.32-.1,1.33,1.33,0,0,0,1.2,1.14,1.65,1.65,0,0,0,0-3.2Z"/><path class="cls-9" d="M52.88,43.37a1.16,1.16,0,0,0-1,.55.48.48,0,0,1,.23-.05.73.73,0,0,1,0,1.46.62.62,0,0,1-.53-.32,1.44,1.44,0,0,0,1.25,1.56,1.65,1.65,0,0,0,0-3.2Z"/><path class="cls-9" d="M53.41,53.27a.1.1,0,0,0,0-.16h0a.11.11,0,0,0-.16,0,8.5,8.5,0,0,1-5.15,1.41A8.49,8.49,0,0,1,43,53.09a.11.11,0,0,0-.07,0,.14.14,0,0,0-.1,0,.11.11,0,0,0,0,.16,9.23,9.23,0,0,0,10.59,0Z"/><path class="cls-9" d="M38.22,40.8a23.6,23.6,0,0,1,2.28-6.21A1.35,1.35,0,0,0,39,34.1a16.91,16.91,0,0,0-2.1,8.45,15.34,15.34,0,0,0,.71,4C37.93,44.64,37.81,42.7,38.22,40.8Z"/><path class="cls-9" d="M58,40.8a23.27,23.27,0,0,0-2.29-6.21,1.36,1.36,0,0,1,1.51-.49,16.82,16.82,0,0,1,2.11,8.45,15.34,15.34,0,0,1-.71,4C58.3,44.64,58.42,42.7,58,40.8Z"/><path class="cls-9" d="M49.51,58.54a.14.14,0,0,0,.12-.15.15.15,0,0,0-.12-.16H46.94c-.06,0-.11.07-.11.16s.05.15.11.15Z"/><path class="cls-10" d="M68,71.06c-.41-2.14-1.28-3.4-3.35-4l-.34-.12-.59-.24C62.44,66.15,55,63.41,55,63.41a1.9,1.9,0,0,1-1.24-1.08,6.5,6.5,0,0,1-.26-2.3,26.43,26.43,0,0,0,2.39-1.86A9.18,9.18,0,0,0,58.59,54,1.57,1.57,0,0,1,59.15,53c.7-.52,1.38-.64,1.82-1.45a15.35,15.35,0,0,0,1.39-5.23,2.23,2.23,0,0,0-2.1-1.59H59.9c-1,0-1.24.34-1.19-.26.07-1.08-.07-5.43-.07-5.65,0-4.5-4.66-8.18-10.47-8.38h-.23c-5.82.2-10.47,3.88-10.47,8.38,0,.22-.15,4.57-.07,5.65,0,.6-.23.21-1.2.26h-.36a2.22,2.22,0,0,0-2.09,1.59,15.71,15.71,0,0,0,1.39,5.23c.43.81,1.11.93,1.81,1.45A1.54,1.54,0,0,1,37.52,54a9,9,0,0,0,2.68,4.15,26.63,26.63,0,0,0,2.27,1.72c0,.91-.1,2-.17,2.39A1.71,1.71,0,0,1,41,63.41L33.89,66a8.16,8.16,0,0,0-2.21.91,6,6,0,0,0-3.16,4.16c-.59,2.17-.54,8.88-.59,9.42,7.76,5.26,14,6.73,24.7,6.26,4.86-.21,12.1-2.61,15.89-4.53C68.32,78,68,71.06,68,71.06Z"/><polyline class="cls-11" points="58.8 47.56 60.28 46.91 60.03 49.21"/><polyline class="cls-11" points="37.63 47.22 36.15 46.57 36.41 48.87"/><line class="cls-12" x1="37.61" y1="44.49" x2="37.45" y2="53.14"/><line class="cls-12" x1="58.66" y1="44.49" x2="58.83" y2="53.14"/><path class="cls-9" d="M59.47,41.25c.47-4.71-.93-7.39-2-8.72A15.22,15.22,0,0,0,48,29.29a15.48,15.48,0,0,0-8.21,2.31c-1.94,1.91-4.23,5.41-3.08,9.65a39.65,39.65,0,0,0,1,6.21c.19-2,.21-6.07.62-7.89a22.39,22.39,0,0,1,1.26-3.92c2.74-2.91,14.09-2.78,17,0a22.39,22.39,0,0,1,1.26,3.92c.41,1.82.43,6,.76,7.8A37.6,37.6,0,0,0,59.47,41.25Z"/><path class="cls-13" d="M54.94,66.75A12.69,12.69,0,0,1,48,68.47a13.39,13.39,0,0,1-7-1.72c-1-.53-1.6-.82-1.6-1.81h0a1.71,1.71,0,0,1,1.6-1.8s4.43,1.54,6.91,1.54,7-1.54,7-1.54a1.71,1.71,0,0,1,1.6,1.8h0C56.54,65.93,56.05,66.13,54.94,66.75Z"/><rect class="cls-14" x="43.86" y="75.37" width="1.44" height="1.44"/><rect class="cls-14" x="45.3" y="76.8" width="1.44" height="1.44"/><rect class="cls-14" x="46.74" y="78.24" width="1.44" height="1.44"/><rect class="cls-14" x="48.17" y="79.67" width="1.44" height="1.44"/><rect class="cls-14" x="49.61" y="81.11" width="1.44" height="1.44"/><rect class="cls-14" x="51.04" y="82.54" width="1.44" height="1.44"/><rect class="cls-14" x="52.48" y="83.98" width="1.44" height="1.44"/><rect class="cls-14" x="52.48" y="75.37" width="1.44" height="1.44" transform="translate(129.28 22.89) rotate(90)"/><rect class="cls-14" x="51.04" y="76.8" width="1.44" height="1.44" transform="translate(129.28 25.76) rotate(90)"/><rect class="cls-14" x="49.61" y="78.24" width="1.44" height="1.44" transform="translate(129.28 28.63) rotate(90)"/><rect class="cls-14" x="48.17" y="79.67" width="1.44" height="1.44" transform="translate(129.28 31.5) rotate(90)"/><rect class="cls-14" x="46.74" y="81.11" width="1.44" height="1.44" transform="translate(129.28 34.37) rotate(90)"/><rect class="cls-14" x="45.3" y="82.54" width="1.44" height="1.44" transform="translate(129.28 37.24) rotate(90)"/><rect class="cls-14" x="43.86" y="83.98" width="1.44" height="1.44" transform="translate(129.28 40.11) rotate(90)"/><path class="cls-15" d="M42.58,59.73s3.77,2.9,5.68,2.67S53.17,60,53.17,60"/><path class="cls-9" d="M53.81,33.1a15.82,15.82,0,0,1,2.14.72c1-1.06,1.92-3.53,1.67-4.65A9.58,9.58,0,0,0,52,22.52c-.69,3.44-4.25,3.8-6.38,5.71-.39.35-2.36,2.93-2.06,4.61C47,32.71,50.38,32.19,53.81,33.1Z"/></g></svg>