<svg xmlns="http://www.w3.org/2000/svg" viewBox="0 0 100 100" width="100" height="100" style="fill: rgb(0, 0, 0);"><defs><style>.cls-1{fill:#fff;}.cls-2{fill:#f1bc19;}.cls-3{fill:#c0e5e4;}.cls-4{fill:#88ae45;}.cls-5{fill:#fbcd59;}.cls-6{fill:#ce9065;}.cls-7{fill:#fdfcef;}.cls-8{fill:#83ccb7;}.cls-10,.cls-13,.cls-14,.cls-15,.cls-9{fill:none;}.cls-9{stroke:#6fbca4;stroke-width:0.7px;}.cls-13,.cls-15,.cls-16,.cls-9{stroke-linecap:round;}.cls-10,.cls-13,.cls-14,.cls-15,.cls-16,.cls-9{stroke-linejoin:round;}.cls-10{stroke:#00a5a5;stroke-linecap:square;stroke-width:2px;}.cls-11{fill:#db9e71;}.cls-12{fill:#512c2b;}.cls-13,.cls-15{stroke:#472b29;}.cls-14{stroke:#895d3d;stroke-width:0.6px;}.cls-15{stroke-width:0.4px;}.cls-16,.cls-18{fill:#dd851d;}.cls-16{stroke:#dd851d;stroke-width:0.5px;}.cls-17{fill:#ef9922;}.cls-18{opacity:0.54;}</style></defs><title>people man_18</title><g id="line2"><circle class="cls-1" cx="20.32" cy="55.99" r="0.89"/><circle class="cls-1" cx="79.37" cy="31.12" r="0.68"/><circle class="cls-2" cx="76.74" cy="12.08" r="0.89"/><circle class="cls-2" cx="20.81" cy="63.66" r="0.89"/><circle class="cls-3" cx="49.63" cy="49.32" r="37.45"/><circle class="cls-2" cx="82.18" cy="14.24" r="4.01"/><circle class="cls-4" cx="86.19" cy="23.31" r="1.88"/><circle class="cls-5" cx="77.2" cy="75.73" r="1.88"/><circle class="cls-5" cx="14.04" cy="62.78" r="4.01"/><circle class="cls-4" cx="24.28" cy="86.91" r="1.88"/><circle class="cls-1" cx="75.85" cy="29.6" r="1.8"/><circle class="cls-1" cx="17.78" cy="50.67" r="2.54"/><path class="cls-6" d="M68,70.21c-.41-2.15-1.28-3.4-3.35-4a2.87,2.87,0,0,1-.34-.12l-.59-.24C62.44,65.29,55,62.56,55,62.56a1.91,1.91,0,0,1-1.24-1.09,8.66,8.66,0,0,1-.23-2.91,47.65,47.65,0,0,1-5,1.42c-1.9.19-6-2.27-6-2.27s-.09,3-.22,3.71A1.72,1.72,0,0,1,41,62.56l-7.12,2.58a8.16,8.16,0,0,0-2.21.91,7.59,7.59,0,0,0-3.16,4.16s-.47,3.32-.45,3.43c-.05.47-.09,1-.14,1.52,7.76,5.25,14,6.73,24.7,6.26,4.86-.21,12.1-2.61,15.89-4.53C68.32,72.67,68,70.21,68,70.21Z"/><path class="cls-7" d="M64.62,66.22a2.87,2.87,0,0,1-.34-.12l-.59-.24c-.77-.32-3.9-1.49-6.18-2.34l-.11,0c-2.51,1.29-6.09,3.23-9.38,3.23S41.43,65,38.63,63.49l-.31.08-4.43,1.61a8.16,8.16,0,0,0-2.21.91,7.59,7.59,0,0,0-3.16,4.16s-.47,3.32-.45,3.43c-.05.47-.09,5.45-.14,6,7.76,5.25,14,6.73,24.7,6.26,4.86-.22,12.1-2.62,15.89-4.53-.2-4.22-.55-11.15-.55-11.15C67.56,68.1,66.69,66.85,64.62,66.22Z"/><path class="cls-8" d="M29,68.67c.42-1,3.2-2.92,4.27-3.22l1.45-.54h0l5.78-2.23c1.51,3.86,5,19.79,6.81,23.54a33.66,33.66,0,0,1-9.4-1.12,52.25,52.25,0,0,1-10.15-5.24C27.93,79.06,27.69,71.81,29,68.67Z"/><path class="cls-8" d="M67.33,68.65a3.17,3.17,0,0,0-2.22-2.11L63.66,66h0l-7.94-3c-1.47,4.67-5.07,17.84-6.87,23.4A33.91,33.91,0,0,0,60,85.06c6.29-1.77,8.66-3.27,8.65-3.34C68.52,80.92,68.36,72.19,67.33,68.65Z"/><line class="cls-9" x1="34.9" y1="79.66" x2="34.9" y2="83.57"/><line class="cls-9" x1="61.06" y1="79.66" x2="61.06" y2="84.26"/><line class="cls-10" x1="40.79" y1="63.66" x2="46.93" y2="85.19"/><line class="cls-10" x1="55.34" y1="64.02" x2="49.3" y2="85.19"/><path class="cls-11" d="M60.26,43.68H59.9c-1,0-1,.23-.95-.37.08-1.06-.31-5.25-.31-5.46,0-4.46-4.66-8.09-10.47-8.3h-.23c-5.82.21-10.47,3.84-10.47,8.3,0,.21-.15,4.51-.07,5.57,0,.6-.23.22-1.2.26h-.36a2.23,2.23,0,0,0-2.09,1.58c.13.08.61,3.73,1.39,5.17.43.8,1.11.92,1.81,1.43a1.54,1.54,0,0,1,.57,1A8.85,8.85,0,0,0,40.2,57c.58.57,4.49,4.74,7.85,4.53s7.27-4,7.86-4.53a9,9,0,0,0,2.68-4.09,1.57,1.57,0,0,1,.56-1c.7-.51,1.38-.63,1.82-1.43.78-1.44,1.26-5.09,1.39-5.17A2.23,2.23,0,0,0,60.26,43.68Z"/><path class="cls-12" d="M48.11,50.74a2.32,2.32,0,0,0,1.77-.8.1.1,0,0,0,0-.16h0a.12.12,0,0,0-.17,0,2.09,2.09,0,0,1-1.59.62,2.12,2.12,0,0,1-1.59-.62.1.1,0,0,0-.09,0,.11.11,0,0,0-.07,0,.11.11,0,0,0,0,.16A2.36,2.36,0,0,0,48.11,50.74Z"/><path class="cls-12" d="M45.94,41.52l.43-.84a11.37,11.37,0,0,0-5.68.18l.54.81A8.84,8.84,0,0,1,45.94,41.52Z"/><path class="cls-12" d="M55.11,41.52l.43-.84a11.37,11.37,0,0,0-5.68.18l.55.81A8.81,8.81,0,0,1,55.11,41.52Z"/><path class="cls-12" d="M43.3,42.69a1.21,1.21,0,0,0-1,.73.51.51,0,0,1,.17,0,.73.73,0,0,1,0,1.46.63.63,0,0,1-.32-.1,1.33,1.33,0,0,0,1.2,1.14,1.65,1.65,0,0,0,0-3.2Z"/><path class="cls-12" d="M52.88,42.69a1.16,1.16,0,0,0-1,.55.64.64,0,0,1,.23-.05.73.73,0,0,1,0,1.46.62.62,0,0,1-.53-.32,1.43,1.43,0,0,0,1.25,1.56,1.65,1.65,0,0,0,0-3.2Z"/><path class="cls-12" d="M53.41,52.6a.12.12,0,0,0,0-.17h0a.11.11,0,0,0-.16,0,8.5,8.5,0,0,1-5.15,1.42A8.49,8.49,0,0,1,43,52.41a.1.1,0,0,0-.07,0,.13.13,0,0,0-.1,0,.12.12,0,0,0,0,.17,9.27,9.27,0,0,0,10.59,0Z"/><path class="cls-12" d="M38.22,40.12a23.86,23.86,0,0,1,2.28-6.21A1.33,1.33,0,0,0,39,33.43a16.89,16.89,0,0,0-2.1,8.45,15.34,15.34,0,0,0,.71,4C37.93,44,37.81,42,38.22,40.12Z"/><path class="cls-12" d="M58,40.12a23.53,23.53,0,0,0-2.29-6.21,1.34,1.34,0,0,1,1.51-.48,16.8,16.8,0,0,1,2.11,8.45,15.34,15.34,0,0,1-.71,4C58.3,44,58.42,42,58,40.12Z"/><path class="cls-12" d="M49.51,57.87a.15.15,0,0,0,.12-.16c0-.08-.06-.16-.12-.16H46.94c-.06,0-.11.08-.11.16s.05.16.11.16Z"/><path class="cls-13" d="M68,70.39c-.41-2.15-1.28-3.41-3.35-4l-.34-.12L63.69,66C62.44,65.47,55,62.73,55,62.73a1.87,1.87,0,0,1-1.24-1.08,6.5,6.5,0,0,1-.26-2.3,26.43,26.43,0,0,0,2.39-1.86,9.21,9.21,0,0,0,2.68-4.14,1.57,1.57,0,0,1,.56-1.06c.7-.52,1.38-.63,1.82-1.45a15.36,15.36,0,0,0,1.39-5.22,2.22,2.22,0,0,0-2.1-1.6H59.9c-1,0-1,.19-1-.41.08-1.08-.29-5.27-.29-5.49,0-4.51-4.66-8.18-10.47-8.39h-.23c-5.82.21-10.47,3.88-10.47,8.39,0,.22-.15,4.57-.07,5.64,0,.6-.23.21-1.2.26h-.36a2.22,2.22,0,0,0-2.09,1.6,15.72,15.72,0,0,0,1.39,5.22c.43.82,1.11.93,1.81,1.45a1.54,1.54,0,0,1,.57,1.06,9,9,0,0,0,2.68,4.14,25.92,25.92,0,0,0,2.27,1.73c0,.9-.1,2-.17,2.38A1.69,1.69,0,0,1,41,62.73l-7.12,2.59a7.86,7.86,0,0,0-2.21.91,6,6,0,0,0-3.16,4.16c-.59,2.16-.54,8.88-.59,9.41,7.76,5.26,14,6.73,24.7,6.26,4.86-.21,12.1-2.61,15.89-4.52C68.32,77.31,68,70.39,68,70.39Z"/><polyline class="cls-14" points="58.8 46.88 60.28 46.24 60.03 48.53"/><polyline class="cls-14" points="37.63 46.54 36.15 45.89 36.41 48.19"/><line class="cls-15" x1="37.61" y1="43.82" x2="37.45" y2="52.46"/><line class="cls-15" x1="58.66" y1="43.82" x2="58.83" y2="52.46"/><path class="cls-16" d="M58.48,44a2.48,2.48,0,0,1,.13.35l.19-.14a3.48,3.48,0,0,0,.38-.48c.15-1.1.25-2.21.29-2.82.47-4.42-.93-6.94-2-8.19a15.9,15.9,0,0,0-9.51-3,16.18,16.18,0,0,0-8.2,2.17c-1.94,1.8-3.2,3.35-3.07,9.06,0,.57.16,1.6.32,2.65a.5.5,0,0,1,.09.24.63.63,0,0,0,.18.12c.24.07.35-.22.48-.42a1.71,1.71,0,0,1,.13-.23,26,26,0,0,1,.4-3.94,19.89,19.89,0,0,1,1.26-3.67c2.73-2.74,14.08-2.62,17,0a19.89,19.89,0,0,1,1.26,3.67C58.11,40.38,58.44,44,58.48,44Z"/><path class="cls-17" d="M38.73,32.72a2.58,2.58,0,0,0,1,2.4,3.78,3.78,0,0,0,1.82.8,3.62,3.62,0,0,0,2.33-.37,5.51,5.51,0,0,0,6,2.72,6.49,6.49,0,0,0,2.82-1.16,3.29,3.29,0,0,0,3.24,1.41,3.37,3.37,0,0,0,.9-.28,2.5,2.5,0,0,0,2.11.64,2.43,2.43,0,0,0,1.33-.65c1.08-.3,2.06-1.3,2.07-3.66A2.33,2.33,0,0,1,61,35.68a2.66,2.66,0,0,0-.29-.64,2.4,2.4,0,0,0,.45-1.83,2.42,2.42,0,0,0-2.78-2h0a3,3,0,0,0,0-1,3.12,3.12,0,0,0-3.57-2.59,3,3,0,0,0-.83.25.49.49,0,0,0,0-.12,3.8,3.8,0,0,0-4.43-3,3.92,3.92,0,0,0-2.8,1.88,5.24,5.24,0,0,0-3-.37c-2.55.4-4.34,2.45-4,4.58"/><path class="cls-18" d="M61,35.69a2.24,2.24,0,0,0-.28-.63,2.41,2.41,0,0,0-2.32-3.82h0a3.3,3.3,0,0,0,0-.94A3.07,3.07,0,0,0,54,28s0-.08,0-.12a3.72,3.72,0,0,0-4-3,4.79,4.79,0,0,1,2.81,4.7l0,.16a3.87,3.87,0,0,1,1.13-.06A4,4,0,0,1,57.51,34a4,4,0,0,1-.29,1.2h0a3.15,3.15,0,0,1,2.87,3.15l.15-.12c1.07-.31,2-1.3,2.06-3.64A2.25,2.25,0,0,1,61,35.69Z"/><path class="cls-15" d="M38.73,32.72a3,3,0,0,0,2.83,3.2,3.62,3.62,0,0,0,2.33-.37,5.51,5.51,0,0,0,6,2.72,6.49,6.49,0,0,0,2.82-1.16,3.29,3.29,0,0,0,3.24,1.41,3.37,3.37,0,0,0,.9-.28,2.5,2.5,0,0,0,2.11.64,2.43,2.43,0,0,0,1.33-.65c1.08-.3,2.06-1.3,2.07-3.66"/><path class="cls-13" d="M59.72,44c.17-1.21.29-2.45.33-3.1a15.1,15.1,0,0,0,.07-2.39,2.49,2.49,0,0,0,.5-.35c1.11-.3,2.13-1.3,2.14-3.66a2.31,2.31,0,0,1-1.42,1.1A2.5,2.5,0,0,0,61,35a2.35,2.35,0,0,0,.47-1.83,2.51,2.51,0,0,0-2.88-2h0a3,3,0,0,0,0-.95,3.22,3.22,0,0,0-3.7-2.6,3.49,3.49,0,0,0-.85.26s0-.08,0-.12a3.94,3.94,0,0,0-4.59-3,4.14,4.14,0,0,0-2.9,1.88,5.58,5.58,0,0,0-3.07-.37c-2.64.41-4.5,2.46-4.15,4.58l-.86,1.61C36.86,34,35.86,35.91,36,40.93c0,.6.18,1.67.35,2.76"/></g></svg>