<svg xmlns="http://www.w3.org/2000/svg" viewBox="0 0 100 100" width="100" height="100" style="fill: rgb(0, 0, 0);"><defs><style>.cls-1{fill:#fff;}.cls-2{fill:#f1bc19;}.cls-3{fill:#e4e4f9;}.cls-4{fill:#e47d25;}.cls-5{fill:#fbcd59;}.cls-6{fill:#ce9065;}.cls-7{fill:#cacaea;}.cls-8{fill:#8889b9;}.cls-12,.cls-13,.cls-14,.cls-9{fill:none;stroke-linejoin:round;}.cls-9{stroke:#a1a1ca;}.cls-12,.cls-14,.cls-9{stroke-linecap:round;}.cls-13,.cls-9{stroke-width:0.6px;}.cls-10{fill:#db9e71;}.cls-11{fill:#512c2b;}.cls-12,.cls-14{stroke:#472b29;}.cls-13{stroke:#895d3d;}.cls-14{stroke-width:0.4px;}.cls-15{fill:#603535;}</style></defs><title>people man_23</title><g id="line3"><circle class="cls-1" cx="20.16" cy="56.35" r="0.89"/><circle class="cls-1" cx="79.21" cy="31.48" r="0.68"/><circle class="cls-2" cx="76.58" cy="12.44" r="0.89"/><circle class="cls-2" cx="20.66" cy="64.02" r="0.89"/><circle class="cls-3" cx="49.48" cy="49.67" r="37.45"/><circle class="cls-2" cx="82.02" cy="14.6" r="4.01"/><circle class="cls-4" cx="86.03" cy="23.67" r="1.88"/><circle class="cls-5" cx="77.05" cy="76.08" r="1.88"/><circle class="cls-5" cx="13.89" cy="63.14" r="4.01"/><circle class="cls-4" cx="24.12" cy="87.27" r="1.88"/><circle class="cls-1" cx="75.7" cy="29.96" r="1.8"/><circle class="cls-1" cx="17.63" cy="51.03" r="2.54"/><path class="cls-6" d="M68,70.89c-.41-2.15-1.28-3.41-3.35-4l-.34-.12-.59-.24C62.44,66,55,63.23,55,63.23a1.87,1.87,0,0,1-1.24-1.08,8.66,8.66,0,0,1-.23-2.91,47.65,47.65,0,0,1-5,1.42c-1.9.18-6-2.27-6-2.27s-.09,3-.22,3.71A1.69,1.69,0,0,1,41,63.23l-7.12,2.59a7.86,7.86,0,0,0-2.21.91,7.52,7.52,0,0,0-3.16,4.16s-.47,3.31-.45,3.43c-.05.47-.09,1-.14,1.51,7.76,5.26,14,6.73,24.7,6.26,4.86-.21,12.1-2.61,15.89-4.52C68.32,73.34,68,70.89,68,70.89Z"/><path class="cls-7" d="M64.62,66.9l-.34-.12-.59-.24c-.77-.33-3.9-1.5-6.18-2.35l-.11,0c-2.51,1.29-6.09,3.22-9.38,3.22s-6.59-1.75-9.39-3.22l-.31.08-4.43,1.61a7.86,7.86,0,0,0-2.21.91,7.52,7.52,0,0,0-3.16,4.16s-.47,3.31-.45,3.43c-.05.47-.09,5.45-.14,6,7.76,5.26,14,6.73,24.7,6.26,4.86-.21,12.1-2.61,15.89-4.52-.2-4.23-.55-11.15-.55-11.15C67.56,68.78,66.69,67.52,64.62,66.9Z"/><path class="cls-8" d="M40.52,63.84l-3,1.1,6,7.61,5.24-5.47S40.91,65.37,40.52,63.84Z"/><path class="cls-8" d="M56.11,63.84l2.63,1.53-5.65,7.18-5.24-5.47S55.72,65.37,56.11,63.84Z"/><line class="cls-9" x1="34.75" y1="80.32" x2="34.75" y2="84.27"/><line class="cls-9" x1="61.08" y1="80.32" x2="61.08" y2="84.97"/><path class="cls-10" d="M60.26,44.36H59.9c-1-.05-1.24.34-1.19-.26.07-1.06-.07-5.36-.07-5.58,0-4.45-4.66-8.09-10.47-8.29h-.23c-5.82.2-10.47,3.84-10.47,8.29,0,.22-.15,4.52-.07,5.58,0,.6-.23.21-1.2.26h-.36a2.22,2.22,0,0,0-2.09,1.58c.13.08.61,3.73,1.39,5.17.43.8,1.11.91,1.81,1.43a1.52,1.52,0,0,1,.57,1,8.93,8.93,0,0,0,2.68,4.1c.58.57,4.49,4.74,7.85,4.52s7.27-4,7.86-4.52a9.09,9.09,0,0,0,2.68-4.1,1.54,1.54,0,0,1,.56-1c.7-.52,1.38-.63,1.82-1.43.78-1.44,1.26-5.09,1.39-5.17A2.22,2.22,0,0,0,60.26,44.36Z"/><path class="cls-11" d="M48.11,51.42a2.32,2.32,0,0,0,1.77-.8.12.12,0,0,0,0-.17h0a.12.12,0,0,0-.17,0,2.06,2.06,0,0,1-1.59.63,2.09,2.09,0,0,1-1.59-.63.13.13,0,0,0-.09,0,.11.11,0,0,0-.07,0,.13.13,0,0,0,0,.17A2.36,2.36,0,0,0,48.11,51.42Z"/><path class="cls-11" d="M45.94,42.19l.43-.83a11.25,11.25,0,0,0-5.68.18l.54.81A8.94,8.94,0,0,1,45.94,42.19Z"/><path class="cls-11" d="M55.11,42.19l.43-.83a11.25,11.25,0,0,0-5.68.18l.55.81A8.91,8.91,0,0,1,55.11,42.19Z"/><path class="cls-11" d="M43.3,43.37a1.21,1.21,0,0,0-1,.73.51.51,0,0,1,.17,0,.73.73,0,0,1,0,1.46.63.63,0,0,1-.32-.1,1.33,1.33,0,0,0,1.2,1.14,1.65,1.65,0,0,0,0-3.2Z"/><path class="cls-11" d="M52.88,43.37a1.16,1.16,0,0,0-1,.55.48.48,0,0,1,.23-.05.73.73,0,0,1,0,1.46.62.62,0,0,1-.53-.32,1.44,1.44,0,0,0,1.25,1.56,1.65,1.65,0,0,0,0-3.2Z"/><path class="cls-11" d="M49.51,58.54a.14.14,0,0,0,.12-.15.15.15,0,0,0-.12-.16H46.94c-.06,0-.11.07-.11.16s.05.15.11.15Z"/><path class="cls-12" d="M68,71.06c-.41-2.14-1.28-3.4-3.35-4l-.34-.12-.59-.24C62.44,66.15,55,63.41,55,63.41a1.9,1.9,0,0,1-1.24-1.08,6.5,6.5,0,0,1-.26-2.3,26.43,26.43,0,0,0,2.39-1.86A9.18,9.18,0,0,0,58.59,54,1.57,1.57,0,0,1,59.15,53c.7-.52,1.38-.64,1.82-1.45a15.35,15.35,0,0,0,1.39-5.23,2.23,2.23,0,0,0-2.1-1.59H59.9c-1,0-1.24.34-1.19-.26.07-1.08-.07-5.43-.07-5.65,0-4.5-4.66-8.18-10.47-8.38h-.23c-5.82.2-10.47,3.88-10.47,8.38,0,.22-.15,4.57-.07,5.65,0,.6-.23.21-1.2.26h-.36a2.22,2.22,0,0,0-2.09,1.59,15.71,15.71,0,0,0,1.39,5.23c.43.81,1.11.93,1.81,1.45A1.54,1.54,0,0,1,37.52,54a9,9,0,0,0,2.68,4.15,26.63,26.63,0,0,0,2.27,1.72c0,.91-.1,2-.17,2.39A1.71,1.71,0,0,1,41,63.41L33.89,66a8.16,8.16,0,0,0-2.21.91,6,6,0,0,0-3.16,4.16c-.59,2.17-.54,8.88-.59,9.42,7.76,5.26,14,6.73,24.7,6.26,4.86-.21,12.1-2.61,15.89-4.53C68.32,78,68,71.06,68,71.06Z"/><polyline class="cls-13" points="58.8 47.56 60.28 46.91 60.03 49.21"/><polyline class="cls-13" points="37.63 47.22 36.15 46.57 36.41 48.87"/><line class="cls-14" x1="37.61" y1="44.49" x2="37.45" y2="53.14"/><line class="cls-14" x1="58.66" y1="44.49" x2="58.83" y2="53.14"/><path class="cls-11" d="M38.67,39.63a16.73,16.73,0,0,1,2.19-4.91,1.46,1.46,0,0,0-1.45-.39,11.59,11.59,0,0,0-2,6.69,10.53,10.53,0,0,0,.67,3.15C38.39,42.67,38.28,41.14,38.67,39.63Z"/><path class="cls-11" d="M57.52,39.63a16.47,16.47,0,0,0-2.19-4.91,1.47,1.47,0,0,1,1.45-.39,11.61,11.61,0,0,1,2,6.69,10.54,10.54,0,0,1-.68,3.15C57.81,42.67,57.92,41.14,57.52,39.63Z"/><path class="cls-11" d="M49.3,35.93a10.14,10.14,0,0,0,6,.11,6.75,6.75,0,0,0,4-4.6c-1.75.85-3.66-.51-5.4-1.37A11.32,11.32,0,0,0,40.8,32.63c-1.76,1.88-2.61,3.55.3,3.07A18.2,18.2,0,0,1,49.3,35.93Z"/><path class="cls-11" d="M58.73,47.49s-.39,5.16-1.89,6.09A13.76,13.76,0,0,1,53.34,55H43a13.9,13.9,0,0,1-3.51-1.41c-1.49-.93-1.89-6.09-1.89-6.09-.47,1.76-.4,7-.21,8.68S44.14,64,48.15,64,59.21,57.7,59.4,56a37.74,37.74,0,0,0-.67-8.5Z"/><path class="cls-15" d="M56,54c-2,1-2.14-.93-4.21-1.4a3.47,3.47,0,0,0-3.5,1.28,4.17,4.17,0,0,0-3.52-1.21c-2.07.51-2.23,2.41-4.19,1.48-.19,0,5.25,5,7.72,1.44C50.87,59.09,56.22,54,56,54Z"/></g></svg>