<svg xmlns="http://www.w3.org/2000/svg" viewBox="0 0 100 100" width="100" height="100" style="fill: rgb(0, 0, 0);"><defs><style>.cls-1{fill:#fff;}.cls-2{fill:#f1bc19;}.cls-3{fill:#fce0a2;}.cls-4{fill:#db2e4c;}.cls-5{fill:#fbcd59;}.cls-6{fill:#895f3f;}.cls-7{fill:#fdfcef;}.cls-8{fill:#e1e0d8;}.cls-9{fill:#836f61;}.cls-10{opacity:0.38;}.cls-11,.cls-14,.cls-15,.cls-16{fill:none;stroke-linejoin:round;}.cls-11,.cls-12,.cls-14,.cls-16{stroke:#472b29;}.cls-11,.cls-14,.cls-16{stroke-linecap:round;}.cls-11{stroke-width:0.7px;}.cls-12{fill:#a3754f;stroke-miterlimit:10;stroke-width:0.7px;}.cls-13{fill:#512c2b;}.cls-15{stroke:#895d3d;stroke-width:0.6px;}.cls-16{stroke-width:0.4px;}.cls-17{fill:#5e2e2e;}</style></defs><title>people man_25</title><g id="line3"><circle class="cls-1" cx="20.16" cy="56.35" r="0.89"/><circle class="cls-1" cx="79.21" cy="31.48" r="0.68"/><circle class="cls-2" cx="76.58" cy="12.44" r="0.89"/><circle class="cls-2" cx="20.66" cy="64.02" r="0.89"/><circle class="cls-3" cx="49.48" cy="49.67" r="37.45"/><circle class="cls-2" cx="82.02" cy="14.6" r="4.01"/><circle class="cls-4" cx="86.03" cy="23.67" r="1.88"/><circle class="cls-5" cx="77.05" cy="76.08" r="1.88"/><circle class="cls-5" cx="13.89" cy="63.14" r="4.01"/><circle class="cls-4" cx="24.12" cy="87.27" r="1.88"/><circle class="cls-1" cx="75.7" cy="29.96" r="1.8"/><circle class="cls-1" cx="17.63" cy="51.03" r="2.54"/><path class="cls-6" d="M68,70.89c-.41-2.15-1.28-3.41-3.35-4l-.34-.12-.59-.24C62.44,66,55,63.23,55,63.23a1.87,1.87,0,0,1-1.24-1.08,8.66,8.66,0,0,1-.23-2.91,47.65,47.65,0,0,1-5,1.42c-1.9.18-6-2.27-6-2.27s-.09,3-.22,3.71A1.69,1.69,0,0,1,41,63.23l-7.12,2.59a7.86,7.86,0,0,0-2.21.91,7.52,7.52,0,0,0-3.16,4.16s-.47,3.31-.45,3.43c-.05.47-.09,1-.14,1.51,7.76,5.26,14,6.73,24.7,6.26,4.86-.21,12.1-2.61,15.89-4.52C68.32,73.34,68,70.89,68,70.89Z"/><path class="cls-7" d="M55.09,63.94l-.9-.3a1.67,1.67,0,0,1-.58-.29c-1.74.67-1.59,1.43-3.67,1.43.83,0-.82-.42,0,0-3,.34-6.53,1-8.41-1.29a1.51,1.51,0,0,1-.37.15l-.9.3L40,64c1.5,4.14,4.94,18.83,6.4,22.92h3.38c1.77-3.79,5.93-18.39,7.45-22.29Z"/><path class="cls-5" d="M46.21,69.16l-1.83-4.1h7.31l-1.83,4.1A2.08,2.08,0,0,1,46.21,69.16Z"/><path class="cls-5" d="M49.58,70.66l1,15.87-5,.19,1.31-16.06C47.64,69.21,48.77,69.21,49.58,70.66Z"/><path class="cls-8" d="M42.63,62.23,40.8,63.52l3.92,6L48.36,65S42.9,63.52,42.63,62.23Z"/><path class="cls-8" d="M53.44,62.23l1.83,1.29-3.92,6L47.72,65S53.18,63.52,53.44,62.23Z"/><path class="cls-9" d="M28.83,69.23c.42-1,3.22-2.94,4.29-3.25l1.46-.54h0l5.82-2.25c1.51,3.89,5.07,20,6.84,23.75a33.59,33.59,0,0,1-9.45-1.12,52.2,52.2,0,0,1-10.21-5.29C27.74,79.72,27.49,72.4,28.83,69.23Z"/><path class="cls-9" d="M67.41,68.48c-.42-1-1.19-1.09-2.26-1.4l-1.46-.54h0L55.48,63.8C54,67.7,50.2,83,48.79,87.12A34.19,34.19,0,0,0,60,85.78c6.33-1.8,8.84-3.41,8.83-3.48C68.71,81.49,68.74,71.65,67.41,68.48Z"/><g class="cls-10"><line class="cls-11" x1="34.75" y1="80.32" x2="34.75" y2="84.27"/><line class="cls-11" x1="61.08" y1="80.32" x2="61.08" y2="84.97"/></g><path class="cls-12" d="M60.26,44.36H59.9c-1-.05-1.24.34-1.19-.26.07-1.06-.07-5.36-.07-5.58,0-4.45-4.66-8.09-10.47-8.29h-.23c-5.82.2-10.47,3.84-10.47,8.29,0,.22-.15,4.52-.07,5.58,0,.6-.23.21-1.2.26h-.36a2.22,2.22,0,0,0-2.09,1.58c.13.08.61,3.73,1.39,5.17.43.8,1.11.91,1.81,1.43a1.52,1.52,0,0,1,.57,1,8.93,8.93,0,0,0,2.68,4.1c.58.57,4.49,4.74,7.85,4.52s7.27-4,7.86-4.52a9.09,9.09,0,0,0,2.68-4.1,1.54,1.54,0,0,1,.56-1c.7-.52,1.38-.63,1.82-1.43.78-1.44,1.26-5.09,1.39-5.17A2.22,2.22,0,0,0,60.26,44.36Z"/><path class="cls-13" d="M48.11,51.42a2.32,2.32,0,0,0,1.77-.8.12.12,0,0,0,0-.17h0a.12.12,0,0,0-.17,0,2.06,2.06,0,0,1-1.59.63,2.09,2.09,0,0,1-1.59-.63.13.13,0,0,0-.09,0,.11.11,0,0,0-.07,0,.13.13,0,0,0,0,.17A2.36,2.36,0,0,0,48.11,51.42Z"/><path class="cls-13" d="M45.94,42.19l.43-.83a11.25,11.25,0,0,0-5.68.18l.54.81A8.94,8.94,0,0,1,45.94,42.19Z"/><path class="cls-13" d="M55.11,42.19l.43-.83a11.25,11.25,0,0,0-5.68.18l.55.81A8.91,8.91,0,0,1,55.11,42.19Z"/><path class="cls-13" d="M43.3,43.37a1.21,1.21,0,0,0-1,.73.51.51,0,0,1,.17,0,.73.73,0,0,1,0,1.46.63.63,0,0,1-.32-.1,1.33,1.33,0,0,0,1.2,1.14,1.65,1.65,0,0,0,0-3.2Z"/><path class="cls-13" d="M52.88,43.37a1.16,1.16,0,0,0-1,.55.48.48,0,0,1,.23-.05.73.73,0,0,1,0,1.46.62.62,0,0,1-.53-.32,1.44,1.44,0,0,0,1.25,1.56,1.65,1.65,0,0,0,0-3.2Z"/><path class="cls-13" d="M53.41,53.27a.1.1,0,0,0,0-.16h0a.11.11,0,0,0-.16,0,8.5,8.5,0,0,1-5.15,1.41A8.49,8.49,0,0,1,43,53.09a.11.11,0,0,0-.07,0,.14.14,0,0,0-.1,0,.11.11,0,0,0,0,.16,9.23,9.23,0,0,0,10.59,0Z"/><path class="cls-13" d="M38.22,40.8a23.6,23.6,0,0,1,2.28-6.21A1.35,1.35,0,0,0,39,34.1a16.91,16.91,0,0,0-2.1,8.45,15.34,15.34,0,0,0,.71,4C37.93,44.64,37.81,42.7,38.22,40.8Z"/><path class="cls-13" d="M58,40.8a23.27,23.27,0,0,0-2.29-6.21,1.36,1.36,0,0,1,1.51-.49,16.82,16.82,0,0,1,2.11,8.45,15.34,15.34,0,0,1-.71,4C58.3,44.64,58.42,42.7,58,40.8Z"/><path class="cls-13" d="M49.51,58.54a.14.14,0,0,0,.12-.15.15.15,0,0,0-.12-.16H46.94c-.06,0-.11.07-.11.16s.05.15.11.15Z"/><path class="cls-14" d="M68,71.06c-.41-2.14-1.28-3.4-3.35-4l-.34-.12-.59-.24C62.44,66.15,55,63.41,55,63.41a1.9,1.9,0,0,1-1.24-1.08,6.5,6.5,0,0,1-.26-2.3,26.43,26.43,0,0,0,2.39-1.86A9.18,9.18,0,0,0,58.59,54,1.57,1.57,0,0,1,59.15,53c.7-.52,1.38-.64,1.82-1.45a15.35,15.35,0,0,0,1.39-5.23,2.23,2.23,0,0,0-2.1-1.59H59.9c-1,0-1.24.34-1.19-.26.07-1.08-.07-5.43-.07-5.65,0-4.5-4.66-8.18-10.47-8.38h-.23c-5.82.2-10.47,3.88-10.47,8.38,0,.22-.15,4.57-.07,5.65,0,.6-.23.21-1.2.26h-.36a2.22,2.22,0,0,0-2.09,1.59,15.71,15.71,0,0,0,1.39,5.23c.43.81,1.11.93,1.81,1.45A1.54,1.54,0,0,1,37.52,54a9,9,0,0,0,2.68,4.15,26.63,26.63,0,0,0,2.27,1.72c0,.91-.1,2-.17,2.39A1.71,1.71,0,0,1,41,63.41L33.89,66a8.16,8.16,0,0,0-2.21.91,6,6,0,0,0-3.16,4.16c-.59,2.17-.54,8.88-.59,9.42,7.76,5.26,14,6.73,24.7,6.26,4.86-.21,12.1-2.61,15.89-4.53C68.32,78,68,71.06,68,71.06Z"/><polyline class="cls-15" points="58.8 47.56 60.28 46.91 60.03 49.21"/><polyline class="cls-15" points="37.63 47.22 36.15 46.57 36.41 48.87"/><line class="cls-16" x1="37.61" y1="44.49" x2="37.45" y2="53.14"/><line class="cls-16" x1="58.66" y1="44.49" x2="58.83" y2="53.14"/><path class="cls-13" d="M59.47,42c.47-4.94-.93-7.76-2-9.15A14.76,14.76,0,0,0,48,29.4a15,15,0,0,0-8.21,2.42c-1.94,2-4.23,5.68-3.08,10.13a43.58,43.58,0,0,0,1,6.51c.19-2.05.21-6.37.62-8.28a24.13,24.13,0,0,1,1.26-4.11c2.74-3,14.09-2.91,17,0a24.13,24.13,0,0,1,1.26,4.11c.41,1.91.43,6.28.76,8.19A41.39,41.39,0,0,0,59.47,42Z"/><path class="cls-17" d="M61.82,34.94A2.28,2.28,0,0,1,60.45,36a2.78,2.78,0,0,0-.29-.63,2.4,2.4,0,0,0,.45-1.83,2.42,2.42,0,0,0-2.78-2h0a3.36,3.36,0,0,0,0-.95,3.09,3.09,0,0,0-4.39-2.34s0-.08,0-.12a3.8,3.8,0,0,0-4.43-3A4,4,0,0,0,46.16,27a5.32,5.32,0,0,0-3-.37c-2.55.41-4.34,2.46-4,4.58a2.29,2.29,0,0,0,.07.28,2.4,2.4,0,0,0-1,1.62A3,3,0,0,0,41,36.29a3.68,3.68,0,0,0,2.33-.37,5.52,5.52,0,0,0,6,2.72,6.38,6.38,0,0,0,2.82-1.17,3.28,3.28,0,0,0,3.24,1.42,3.37,3.37,0,0,0,.9-.28,2.5,2.5,0,0,0,2.11.64,2.43,2.43,0,0,0,1.33-.65C60.83,38.3,61.81,37.3,61.82,34.94Z"/></g></svg>