<svg xmlns="http://www.w3.org/2000/svg" viewBox="0 0 100 100" width="100" height="100" style="fill: rgb(0, 0, 0);"><defs><style>.cls-1{fill:#fff;}.cls-2{fill:#f1bc19;}.cls-3{fill:#f9dbd2;}.cls-4{fill:#ee3e54;}.cls-5{fill:#fbcd59;}.cls-6{fill:#ce9065;}.cls-7{fill:#fdfcef;}.cls-8{fill:#ce942b;}.cls-9{fill:#e0a825;}.cls-10,.cls-13,.cls-14,.cls-15,.cls-16{fill:none;stroke-linejoin:round;}.cls-10{stroke:#d12845;stroke-width:0.7px;}.cls-10,.cls-13,.cls-15,.cls-16{stroke-linecap:round;}.cls-11{fill:#db9e71;}.cls-12{fill:#512c2b;}.cls-13,.cls-15,.cls-16{stroke:#472b29;}.cls-14{stroke:#895d3d;stroke-width:0.6px;}.cls-15{stroke-width:0.4px;}.cls-16{stroke-width:0.5px;}</style></defs><title>people man_36</title><g id="line4"><circle class="cls-1" cx="20.92" cy="56.96" r="0.89"/><circle class="cls-1" cx="79.97" cy="32.09" r="0.68"/><circle class="cls-2" cx="77.34" cy="13.06" r="0.89"/><circle class="cls-2" cx="21.41" cy="64.63" r="0.89"/><circle class="cls-3" cx="50.23" cy="50.29" r="37.45"/><circle class="cls-2" cx="82.78" cy="15.21" r="4.01"/><circle class="cls-4" cx="86.79" cy="24.28" r="1.88"/><circle class="cls-5" cx="77.8" cy="76.7" r="1.88"/><circle class="cls-5" cx="14.64" cy="63.75" r="4.01"/><circle class="cls-4" cx="24.88" cy="87.88" r="1.88"/><circle class="cls-1" cx="76.45" cy="30.58" r="1.8"/><circle class="cls-1" cx="18.38" cy="51.64" r="2.54"/><path class="cls-6" d="M68.72,71.5c-.4-2.15-1.28-3.41-3.34-4-.09,0-.21-.07-.35-.12l-.58-.24c-1.25-.53-8.68-3.27-8.68-3.27a1.87,1.87,0,0,1-1.24-1.08,8.66,8.66,0,0,1-.23-2.91,46.9,46.9,0,0,1-5,1.42c-1.9.19-6-2.27-6-2.27s-.1,3-.23,3.71a1.67,1.67,0,0,1-1.28,1.13l-7.13,2.59a8.11,8.11,0,0,0-2.21.91,7.55,7.55,0,0,0-3.16,4.16s-.47,3.31-.45,3.43c0,.47-.09,1-.14,1.51,7.77,5.26,14,6.73,24.7,6.27,4.87-.22,12.1-2.62,15.9-4.53C69.07,74,68.72,71.5,68.72,71.5Z"/><path class="cls-7" d="M65.38,67.51c-.09,0-.21-.07-.35-.12l-.58-.24c-.77-.32-3.91-1.5-6.19-2.34l-.1,0C55.64,66.07,52.06,68,48.77,68s-6.58-1.75-9.38-3.22l-.32.08-4.43,1.61a8.11,8.11,0,0,0-2.21.91,7.55,7.55,0,0,0-3.16,4.16s-.47,3.31-.45,3.43c0,.47-.09,5.45-.14,6,7.77,5.26,14,6.73,24.7,6.27,4.87-.22,12.1-2.62,15.9-4.53-.21-4.23-.56-11.15-.56-11.15C68.32,69.39,67.44,68.14,65.38,67.51Z"/><path class="cls-4" d="M29.77,70C30.19,69,33,67,34,66.73l1.45-.53s0,0,0,0L41.27,64c1.5,3.86,5,19.78,6.8,23.54a33.66,33.66,0,0,1-9.4-1.12,52.58,52.58,0,0,1-10.15-5.24C28.69,80.35,28.44,73.1,29.77,70Z"/><path class="cls-4" d="M68.08,69.94a3.15,3.15,0,0,0-2.21-2.11l-1.45-.54h0l-5.79-2.23c-1.5,3.86-7.25,18.87-9,22.62a33.84,33.84,0,0,0,11.17-1.33c6.3-1.78,8.67-3.27,8.66-3.34C69.27,82.21,69.12,73.48,68.08,69.94Z"/><path class="cls-8" d="M55.65,64l6.43,2.38S52.77,82.8,50.92,86H45.17Z"/><path class="cls-9" d="M41.87,63.67l-6.31,2.54S44,84.51,45.82,87.68h5.75Z"/><line class="cls-10" x1="35.65" y1="80.95" x2="35.65" y2="84.86"/><line class="cls-10" x1="61.82" y1="80.95" x2="61.82" y2="85.55"/><path class="cls-11" d="M61,45h-.36c-1,0-1.24.34-1.2-.26.08-1.06-.07-5.36-.07-5.57,0-4.46-4.65-8.1-10.46-8.3h-.24c-5.81.2-10.46,3.84-10.46,8.3,0,.21-.15,4.51-.07,5.57,0,.6-.24.22-1.2.26H36.6a2.23,2.23,0,0,0-2.1,1.58c.13.08.61,3.73,1.39,5.17.44.8,1.12.91,1.82,1.43a1.56,1.56,0,0,1,.57,1A8.93,8.93,0,0,0,41,58.29c.59.57,4.5,4.74,7.86,4.53s7.27-4,7.86-4.53a8.93,8.93,0,0,0,2.67-4.1,1.56,1.56,0,0,1,.57-1c.7-.52,1.38-.63,1.81-1.43.78-1.44,1.26-5.09,1.39-5.17A2.22,2.22,0,0,0,61,45Z"/><path class="cls-12" d="M48.87,52a2.36,2.36,0,0,0,1.77-.8.12.12,0,0,0,0-.17h0a.12.12,0,0,0-.17,0,2.35,2.35,0,0,1-3.18,0,.12.12,0,0,0-.09,0,.11.11,0,0,0-.08,0,.12.12,0,0,0,0,.17A2.34,2.34,0,0,0,48.87,52Z"/><path class="cls-12" d="M46.69,42.8l.43-.83a11.25,11.25,0,0,0-5.68.18L42,43A8.91,8.91,0,0,1,46.69,42.8Z"/><path class="cls-12" d="M55.86,42.8,56.3,42a11.29,11.29,0,0,0-5.69.18l.55.81A8.91,8.91,0,0,1,55.86,42.8Z"/><path class="cls-12" d="M44.05,44a1.22,1.22,0,0,0-1,.73.57.57,0,0,1,.18,0,.73.73,0,0,1,0,1.46.58.58,0,0,1-.32-.1,1.33,1.33,0,0,0,1.19,1.14,1.65,1.65,0,0,0,0-3.2Z"/><path class="cls-12" d="M53.63,44a1.15,1.15,0,0,0-.94.55.59.59,0,0,1,.23-.05.73.73,0,0,1,0,1.46.65.65,0,0,1-.54-.32A1.29,1.29,0,1,0,53.63,44Z"/><path class="cls-12" d="M54.16,53.89a.12.12,0,0,0,0-.17h0a.12.12,0,0,0-.17,0,8.47,8.47,0,0,1-5.14,1.42,8.47,8.47,0,0,1-5.14-1.42.11.11,0,0,0-.08,0,.12.12,0,0,0-.09,0,.12.12,0,0,0,0,.17,9.26,9.26,0,0,0,10.58,0Z"/><path class="cls-12" d="M50.27,59.16c.06,0,.11-.08.11-.16s-.05-.16-.11-.16H47.69c-.06,0-.11.07-.11.16s.05.16.11.16Z"/><path class="cls-13" d="M68.72,71.68c-.4-2.15-1.28-3.41-3.34-4L65,67.53l-.58-.24C63.2,66.76,55.77,64,55.77,64a1.87,1.87,0,0,1-1.24-1.08,6.51,6.51,0,0,1-.25-2.3,29.94,29.94,0,0,0,2.39-1.86,9.1,9.1,0,0,0,2.67-4.14,1.58,1.58,0,0,1,.57-1.06c.7-.52,1.38-.64,1.81-1.45a15.35,15.35,0,0,0,1.39-5.23A2.21,2.21,0,0,0,61,45.31h-.36c-1,0-1.24.34-1.2-.26.08-1.07-.07-5.42-.07-5.64,0-4.51-4.65-8.19-10.46-8.39h-.24c-5.81.2-10.46,3.88-10.46,8.39,0,.22-.15,4.57-.07,5.64,0,.6-.24.21-1.2.26H36.6a2.23,2.23,0,0,0-2.1,1.59,15.71,15.71,0,0,0,1.39,5.23c.44.81,1.12.93,1.82,1.45a1.58,1.58,0,0,1,.57,1.06A9.1,9.1,0,0,0,41,58.78a25.07,25.07,0,0,0,2.28,1.73c0,.9-.11,2-.18,2.38A1.67,1.67,0,0,1,41.77,64L34.64,66.6a8.46,8.46,0,0,0-2.21.92,6,6,0,0,0-3.16,4.16c-.59,2.16-.54,8.87-.59,9.41,7.77,5.26,14,6.73,24.7,6.26,4.87-.21,12.1-2.61,15.9-4.52C69.07,78.6,68.72,71.68,68.72,71.68Z"/><polyline class="cls-14" points="59.55 48.17 61.04 47.52 60.78 49.82"/><polyline class="cls-14" points="38.39 47.83 36.9 47.18 37.16 49.48"/><line class="cls-15" x1="38.37" y1="45.1" x2="38.2" y2="53.75"/><line class="cls-15" x1="59.42" y1="45.1" x2="59.58" y2="53.75"/><path class="cls-16" d="M43.34,60.35S47.1,63.24,49,63s4.91-2.45,4.91-2.45"/></g></svg>