<svg xmlns="http://www.w3.org/2000/svg" xmlns:xlink="http://www.w3.org/1999/xlink" viewBox="0 0 100 100" width="100" height="100" style="fill: rgb(0, 0, 0);"><defs><style>.cls-1,.cls-13,.cls-14,.cls-15,.cls-16{fill:none;}.cls-2{fill:#fff;}.cls-3{fill:#f1bc19;}.cls-4{fill:#c0e5e4;}.cls-5{fill:#9d9fce;}.cls-6{fill:#fbcd59;}.cls-7{fill:#ce9065;}.cls-8{fill:#fdfcef;}.cls-9{clip-path:url(#clip-path);}.cls-10{fill:#00a5a5;}.cls-11{fill:#db9e71;}.cls-12{fill:#512c2b;}.cls-13,.cls-15,.cls-16{stroke:#472b29;stroke-linecap:round;}.cls-13,.cls-14,.cls-15,.cls-16{stroke-linejoin:round;}.cls-14{stroke:#895d3d;stroke-width:0.6px;}.cls-15{stroke-width:0.4px;}.cls-16{stroke-width:0.5px;}</style><clipPath id="clip-path"><path class="cls-1" d="M67.59,68.69a15.69,15.69,0,0,0-1.32-1.23l-2-.93C63,66,57.51,64,57.51,64c-.22-.06-3.78,2.08-3.95,2-1.73.42-3.49,1.25-5.54,1.25s-3.9-.79-5.55-1.16c-.16.09-3.66-2.11-3.84-2.07l-6.17,2a8.37,8.37,0,0,0-2.11,1.69C27.11,70,27.91,77.89,27.93,78c0,.51.05,4.32,0,4.91l.55.4a63.91,63.91,0,0,0,19.78,3.1c7.15,0,14.34-2.29,20.62-4.39-.21-4.21-.46-7.48-.46-7.48C68,72.2,68.52,70.4,67.59,68.69Z"/></clipPath></defs><title>people man_24</title><g id="line3"><circle class="cls-2" cx="20.16" cy="56.35" r="0.89"/><circle class="cls-2" cx="79.21" cy="31.48" r="0.68"/><circle class="cls-3" cx="76.58" cy="12.44" r="0.89"/><circle class="cls-3" cx="20.66" cy="64.02" r="0.89"/><circle class="cls-4" cx="49.48" cy="49.67" r="37.45"/><circle class="cls-3" cx="82.02" cy="14.6" r="4.01"/><circle class="cls-5" cx="86.03" cy="23.67" r="1.88"/><circle class="cls-6" cx="77.05" cy="76.08" r="1.88"/><circle class="cls-6" cx="13.89" cy="63.14" r="4.01"/><circle class="cls-5" cx="24.12" cy="87.27" r="1.88"/><circle class="cls-2" cx="75.7" cy="29.96" r="1.8"/><circle class="cls-2" cx="17.63" cy="51.03" r="2.54"/><path class="cls-7" d="M68,70.64c-.41-2.14-1.28-3.4-3.35-4a3.19,3.19,0,0,1-.34-.13l-.59-.23C62.44,65.73,55,63,55,63a1.9,1.9,0,0,1-1.24-1.08A8.72,8.72,0,0,1,53.55,59a49.38,49.38,0,0,1-5,1.43c-1.9.18-6-2.28-6-2.28s-.09,3-.22,3.72A1.71,1.71,0,0,1,41,63l-7.12,2.58a8.16,8.16,0,0,0-2.21.91,7.59,7.59,0,0,0-3.16,4.16s-.47,3.32-.45,3.44c-.05.46-.09,1-.14,1.51,7.76,5.26,14,6.73,24.7,6.26,4.86-.21,12.1-2.61,15.89-4.53C68.32,73.1,68,70.64,68,70.64Z"/><path class="cls-8" d="M64.62,66.66a3.19,3.19,0,0,1-.34-.13l-.59-.23c-.77-.33-3.9-1.5-6.18-2.35l-.11,0c-2.51,1.29-6.09,3.23-9.38,3.23s-6.59-1.75-9.39-3.23l-.31.09-4.43,1.6a8.16,8.16,0,0,0-2.21.91,7.59,7.59,0,0,0-3.16,4.16s-.47,3.32-.45,3.44c-.05.46-.09,5.44-.14,6,7.76,5.26,14,6.73,24.7,6.26,4.86-.21,12.1-2.61,15.89-4.53-.2-4.22-.55-11.15-.55-11.15C67.56,68.54,66.69,67.28,64.62,66.66Z"/><g class="cls-9"><path class="cls-10" d="M47.67,75.06a56.49,56.49,0,0,1-20.88-4.45l1-1.43c.2.09,19.57,9.22,41.2.4L70,71.07A54.69,54.69,0,0,1,47.67,75.06Z"/><path class="cls-10" d="M48,79.57A60.72,60.72,0,0,1,26.2,75l1-1.45c.2.1,20.51,9.46,42.15.64l.93,1.49A54.73,54.73,0,0,1,48,79.57Z"/><path class="cls-10" d="M47.4,84.4a59.49,59.49,0,0,1-21.47-4.46L27,78.5c.2.1,20.12,9.24,42.35.43l1,1.5A57.57,57.57,0,0,1,47.4,84.4Z"/><path class="cls-10" d="M48.4,70.54a56.49,56.49,0,0,1-20.88-4.45l1-1.44c.19.1,19.57,9.22,41.2.4l.94,1.5A54.69,54.69,0,0,1,48.4,70.54Z"/></g><path class="cls-11" d="M60.26,44.12H59.9c-1,0-1.24.34-1.19-.26.07-1.06-.07-5.36-.07-5.58,0-4.46-4.66-8.09-10.47-8.29v0h-.23v0c-5.82.2-10.47,3.83-10.47,8.29,0,.22-.15,4.52-.07,5.58,0,.6-.23.21-1.2.26h-.36a2.22,2.22,0,0,0-2.09,1.57c.13.08.61,3.73,1.39,5.17.43.81,1.11.92,1.81,1.44a1.5,1.5,0,0,1,.57,1,8.85,8.85,0,0,0,2.68,4.09c.58.57,4.49,4.74,7.85,4.53s7.27-4,7.86-4.53a9,9,0,0,0,2.68-4.09,1.52,1.52,0,0,1,.56-1c.7-.52,1.38-.63,1.82-1.44.78-1.44,1.26-5.09,1.39-5.17A2.22,2.22,0,0,0,60.26,44.12Z"/><path class="cls-12" d="M48.11,52.18a2.32,2.32,0,0,0,1.77-.8.12.12,0,0,0,0-.17h0a.12.12,0,0,0-.17,0,2.06,2.06,0,0,1-1.59.63,2.09,2.09,0,0,1-1.59-.63.1.1,0,0,0-.09,0,.11.11,0,0,0-.07,0,.12.12,0,0,0,0,.17A2.36,2.36,0,0,0,48.11,52.18Z"/><path class="cls-12" d="M45.94,44l.43-.83a11.25,11.25,0,0,0-5.68.18l.54.81A8.94,8.94,0,0,1,45.94,44Z"/><path class="cls-12" d="M55.11,44l.43-.83a11.25,11.25,0,0,0-5.68.18l.55.81A8.91,8.91,0,0,1,55.11,44Z"/><path class="cls-12" d="M43.3,45.12a1.23,1.23,0,0,0-1,.73l.17,0a.73.73,0,0,1,0,1.45.55.55,0,0,1-.32-.1,1.33,1.33,0,0,0,1.2,1.15,1.66,1.66,0,0,0,0-3.21Z"/><path class="cls-12" d="M52.88,45.12a1.18,1.18,0,0,0-1,.55.64.64,0,0,1,.23-.05.73.73,0,0,1,0,1.46.6.6,0,0,1-.53-.32,1.44,1.44,0,0,0,1.25,1.57,1.66,1.66,0,0,0,0-3.21Z"/><path class="cls-13" d="M68,70.82c-.41-2.15-1.28-3.4-3.35-4a2.87,2.87,0,0,1-.34-.12l-.59-.24C62.44,65.91,55,63.17,55,63.17a1.89,1.89,0,0,1-1.24-1.09,6.47,6.47,0,0,1-.26-2.29,27.8,27.8,0,0,0,2.39-1.87,9.1,9.1,0,0,0,2.68-4.14,1.57,1.57,0,0,1,.56-1.05c.7-.53,1.38-.64,1.82-1.45a15.47,15.47,0,0,0,1.39-5.23,2.24,2.24,0,0,0-2.1-1.6H59.9c-1,0-1,.24-1-.37.08-1.07-.3-5.31-.3-5.53,0-4.51-4.66-8.18-10.47-8.38v0h-.23v0c-5.82.2-10.47,3.87-10.47,8.38,0,.22-.15,4.57-.07,5.64,0,.61-.23.22-1.2.26h-.36a2.23,2.23,0,0,0-2.09,1.6,15.83,15.83,0,0,0,1.39,5.23c.43.81,1.11.92,1.81,1.45a1.54,1.54,0,0,1,.57,1.05,8.94,8.94,0,0,0,2.68,4.14,25.92,25.92,0,0,0,2.27,1.73c0,.91-.1,2-.17,2.38A1.72,1.72,0,0,1,41,63.17l-7.12,2.58a8.16,8.16,0,0,0-2.21.91,6,6,0,0,0-3.16,4.16c-.59,2.17-.54,8.88-.59,9.42,7.76,5.25,14,6.73,24.7,6.26,4.86-.21,12.1-2.61,15.89-4.53C68.32,77.75,68,70.82,68,70.82Z"/><polyline class="cls-14" points="58.8 47.31 60.28 46.67 60.03 48.96"/><polyline class="cls-14" points="37.63 46.97 36.15 46.33 36.41 48.62"/><line class="cls-15" x1="37.61" y1="44.25" x2="37.45" y2="52.9"/><line class="cls-15" x1="58.66" y1="44.25" x2="58.83" y2="52.9"/><path class="cls-16" d="M42.64,59.53s3.8,2.65,5.74,2.43,5-2.31,5-2.31"/><path class="cls-12" d="M59.92,34.28A2.2,2.2,0,0,0,58,32.13a2.41,2.41,0,0,0-1.19-1.67c0-.08,0-.16,0-.24a2.59,2.59,0,0,0-2.61-2.58,2.33,2.33,0,0,0-.7.11A2.68,2.68,0,0,0,49.92,27a2.5,2.5,0,0,0-1.58-.52,2.57,2.57,0,0,0-1.66.64,2.33,2.33,0,0,0-1.33-.38A2.4,2.4,0,0,0,43.27,28a1.92,1.92,0,0,0-.89-.22,2,2,0,0,0-1.9,1.82l-.09.13a2.41,2.41,0,0,0-1.9,1.85h-.18a2.18,2.18,0,0,0-2.12,2.23,2.25,2.25,0,0,0,.58,1.47,39.44,39.44,0,0,0,.57,11.12.38.38,0,0,0,.76-.09c.07-3,.67-8.66,3.6-8.27a40.94,40.94,0,0,0,6.44.45,41.74,41.74,0,0,0,6.41-.64c2.92-.48,3.68,5.18,3.83,8.15a.38.38,0,0,0,.76.07,40.39,40.39,0,0,0,.36-10.48,2.37,2.37,0,0,0,.42-1.34Z"/><path class="cls-12" d="M52.84,56.15a.12.12,0,0,0,0-.16h0a.11.11,0,0,0-.16,0,7.93,7.93,0,0,1-4.83,1.33A7.93,7.93,0,0,1,43,56L43,56a.1.1,0,0,0-.09,0,.11.11,0,0,0,0,.16,8.71,8.71,0,0,0,10,0Z"/></g></svg>