<svg xmlns="http://www.w3.org/2000/svg" viewBox="0 0 100 100" width="100" height="100" style="fill: rgb(0, 0, 0);"><defs><style>.cls-1{fill:#fff;}.cls-2{fill:#f1bc19;}.cls-3{fill:#e6edb7;}.cls-4{fill:#ee3e54;}.cls-5{fill:#fbcd59;}.cls-14,.cls-6{fill:#472b29;}.cls-7{fill:#d8ad8f;}.cls-8{fill:#b2876b;}.cls-11,.cls-12,.cls-16,.cls-9{fill:none;stroke-linecap:round;stroke-linejoin:round;}.cls-11,.cls-12,.cls-9{stroke:#472b29;}.cls-9{stroke-width:0.4px;}.cls-10{fill:#9daa39;}.cls-12,.cls-16{stroke-width:0.5px;}.cls-13{fill:#033b55;}.cls-14{opacity:0.41;}.cls-15{fill:#cd9480;}.cls-16{stroke:#f1bc19;}.cls-17{fill:#6d1b18;}.cls-18{fill:#fdfcef;}</style></defs><title>Artboard 75</title><g id="line8"><g id="background_round" data-name="background round"><circle class="cls-1" cx="20.75" cy="56.38" r="0.89"/><circle class="cls-1" cx="79.8" cy="31.51" r="0.68"/><circle class="cls-2" cx="77.17" cy="12.48" r="0.89"/><circle class="cls-2" cx="21.24" cy="64.06" r="0.89"/><circle class="cls-3" cx="50.28" cy="49.71" r="37.45"/><circle class="cls-2" cx="82.61" cy="14.63" r="4.01"/><circle class="cls-4" cx="86.62" cy="23.7" r="1.88"/><circle class="cls-5" cx="77.63" cy="76.12" r="1.88"/><circle class="cls-5" cx="14.47" cy="63.17" r="4.01"/><circle class="cls-4" cx="24.71" cy="87.31" r="1.88"/><circle class="cls-1" cx="76.28" cy="30" r="1.8"/><circle class="cls-1" cx="18.21" cy="51.06" r="2.54"/><path class="cls-6" d="M37.67,41.65c.51,1-.31,2.29-1.32,2.86s-2.2.77-3.19,1.37A4.41,4.41,0,0,0,34.89,54a3.47,3.47,0,0,0-2.71,3.9,5,5,0,0,0,3.33,3.77,9.41,9.41,0,0,0,5.21.15,8.48,8.48,0,0,0,9.92,1.24"/><path class="cls-6" d="M63.33,41.65c-.51,1,.31,2.29,1.32,2.86s2.19.77,3.19,1.37A4.41,4.41,0,0,1,66.11,54a3.48,3.48,0,0,1,2.71,3.9,5,5,0,0,1-3.33,3.77,9.41,9.41,0,0,1-5.21.15,8.48,8.48,0,0,1-9.92,1.24"/><path class="cls-7" d="M61.46,41.57c.13-1.51.58-3.27.67-4L61,34.24c-1.33-1.65-2.19-3.13-4-4.31-2-1.29-4.61-.53-6.93-1.11-5.7-1.43-10.91,4.32-12.67,9.71l-.06.1a19.78,19.78,0,0,1,.37,2.94c-1.54,0-2.32.81-1.79,2.43,0,0,.6,2.63,1,3.88a1.5,1.5,0,0,0,1.48,1.21c0,.83,0,1.67,0,2.5a4.52,4.52,0,0,0,.85,2.82c1.51,2.17,9.23,7.2,11.1,7,3,0,9-5.14,10.59-7.7A4,4,0,0,0,61.36,52c0-1,0-2,0-3a1.49,1.49,0,0,0,1.27-1.19c.4-1.25,1-3.86,1-3.88C64.17,42.38,63,41.54,61.46,41.57Z"/><path class="cls-8" d="M66.08,67.14a2.87,2.87,0,0,1-.34-.12l-.58-.24c-1.23-.53-9.26-3.26-9.26-3.26a1.9,1.9,0,0,1-1.22-1.09,8.94,8.94,0,0,1-.23-2.91,22.35,22.35,0,0,1-4.23,1.42c-1.86.19-5.15-2.27-5.15-2.27s-.09,3-.22,3.71a1.69,1.69,0,0,1-1.26,1.14L35.85,66.1a7.61,7.61,0,0,0-2.17.91,7.78,7.78,0,0,0-3.28,4.68h0c0,.1-.05.32-.09.6a5.61,5.61,0,0,0-.14,1.35c0,.46-.09,1-.13,1.51,6.8,7,11.35,11.48,21.89,11.48,4.62,0,14-2.39,18.13-3.93C69.57,73.33,70.34,68.45,66.08,67.14Z"/><line class="cls-9" x1="37.83" y1="41.56" x2="38.65" y2="49.61"/><line class="cls-9" x1="61.65" y1="41.1" x2="61.16" y2="49.17"/><path class="cls-10" d="M30,81c8.13,5.59,13,5.31,23.47,5.31,4.6,0,13-1.78,16.38-4C69.45,73,70.25,68.73,66,67.42c-.83-.25-3.93-1.75-3.93-1.75s-8,4.5-11.53,5.21A69.42,69.42,0,0,1,30.44,72C30.36,72.28,30.17,79.38,30,81Z"/><path class="cls-5" d="M66.49,67.63c-.17-.07-.33-.15-.52-.21-.82-.25-3.93-1.75-3.93-1.75s-8,4.5-11.53,5.21A69.37,69.37,0,0,1,30.41,72c-.08.31-.2,1.58-.33,3.08C52.43,79,63.37,69.3,66.49,67.63Z"/><path class="cls-11" d="M66.12,67.3a3.19,3.19,0,0,1-.34-.13l-.58-.23c-1.23-.53-9.26-3.27-9.26-3.27a1.89,1.89,0,0,1-1.22-1.08,8.27,8.27,0,0,1-.24-2.7,24.25,24.25,0,0,0,6.45-6,4,4,0,0,0,.47-1.68c0-1,0-2,0-3A1.48,1.48,0,0,0,62.68,48c.4-1.25,1-3.86,1-3.88.53-1.62-.64-2.45-2.18-2.42,0-.43,0-1.08.07-1A4.7,4.7,0,0,0,62,39c0-6.24-5.55-11.29-12.4-11.29S37.18,32.76,37.18,39a4.42,4.42,0,0,0,.47,1.64,10.15,10.15,0,0,1,.08,1.08c-1.54,0-2.32.81-1.79,2.43,0,0,.6,2.63,1,3.88a1.49,1.49,0,0,0,1.48,1.21c0,.84,0,1.67,0,2.5a4.5,4.5,0,0,0,.85,2.82c.81,1.17,3.4,3.15,5.93,4.71-.05.74-.18,2.72-.28,3.27a1.68,1.68,0,0,1-1.26,1.13l-7.74,2.58a11,11,0,0,0-2.17.91C29.21,69.46,30.07,80.77,30,81.3c11.19,9.33,35.82,4.3,40,1.4C69.57,73.33,70.38,68.6,66.12,67.3Z"/><path class="cls-12" d="M45.34,59.15s3.43,1.86,5.25,1.71A14.24,14.24,0,0,0,55,59.22"/><circle class="cls-5" cx="45.19" cy="31.71" r="1.48"/><path class="cls-13" d="M37.62,43.3a3.75,3.75,0,0,1,0-.67L36,43l.58,3,.64-.12-.46-2.39Z"/><path class="cls-14" d="M50.17,50.43a2.9,2.9,0,0,0,2.18-1,.15.15,0,0,0,0-.21h0a.15.15,0,0,0-.21,0,2.87,2.87,0,0,1-3.91,0,.16.16,0,0,0-.11,0,.13.13,0,0,0-.1,0,.14.14,0,0,0,0,.21A2.88,2.88,0,0,0,50.17,50.43Z"/><path class="cls-6" d="M47.4,39.7l.53-1a13.74,13.74,0,0,0-7,.22l.67,1A10.89,10.89,0,0,1,47.4,39.7Z"/><path class="cls-6" d="M58.68,39.7l.53-1a13.74,13.74,0,0,0-7,.22l.67,1A10.89,10.89,0,0,1,58.68,39.7Z"/><path class="cls-6" d="M44.16,40.36a1.49,1.49,0,0,0-1.29.9.78.78,0,0,1,.21,0,.9.9,0,0,1,0,1.8.81.81,0,0,1-.4-.12,1.64,1.64,0,0,0,1.48,1.4,2,2,0,0,0,0-3.94Z"/><path class="cls-6" d="M55.94,40.36a1.4,1.4,0,0,0-1.16.68.67.67,0,0,1,.28-.06.9.9,0,0,1,0,1.79.79.79,0,0,1-.66-.39,1.59,1.59,0,1,0,1.54-2Z"/><circle class="cls-15" cx="42.61" cy="48.89" r="2.27"/><circle class="cls-15" cx="57.55" cy="48.89" r="2.27"/><path class="cls-6" d="M51.52,26.73c1.56.49,5.36,2.79,5,5.92-.39,3.41,5.7,3.77,4.23,9.78-.23,1,1.11.7,1.59-.17,3-5.46,2.86-11.24-.14-14.83-2.82-3.37-9.44-3.58-10.54-2.38a.9.9,0,0,0-.22.57C51.43,26,51.35,26.68,51.52,26.73Z"/><path class="cls-6" d="M58.36,26.19c0-1.85-2.21-3.38-4.11-3.58-5.79-.62-13.93,1.58-17.36,6.13s-4.22,13.87-2.2,16.93c2.17,3.27,3.48.44,3.91-1,2.12-7.34,6-6.76,9.54-9,4.71-2.94,2.75-7.32,9.15-4.56C58.89,31.79,58.34,27.89,58.36,26.19Z"/><circle class="cls-4" cx="50.17" cy="36.81" r="0.84"/><circle class="cls-2" cx="49.76" cy="66.59" r="1.04"/><path class="cls-16" d="M54.64,63.7c0,.93-2.18,1.69-4.88,1.69s-4.88-.76-4.88-1.69"/><path class="cls-17" d="M46.79,54a1.84,1.84,0,0,0-.07.47c0,1.4,1.55,2.53,3.45,2.53s3.46-1.13,3.46-2.53a1.84,1.84,0,0,0-.07-.47Z"/><path class="cls-4" d="M52,56.64a2.56,2.56,0,0,0-1.83-.6,2.53,2.53,0,0,0-1.82.6,4.47,4.47,0,0,0,3.65,0Z"/><path class="cls-18" d="M47.78,54a.06.06,0,0,0,0,0v.43c0,.37.49.68,1.09.68h2.63c.6,0,1.09-.31,1.09-.68v-.43a.06.06,0,0,0,0,0Z"/><path class="cls-9" d="M46.79,54a1.84,1.84,0,0,0-.07.47c0,1.4,1.55,2.53,3.45,2.53s3.46-1.13,3.46-2.53a1.84,1.84,0,0,0-.07-.47Z"/></g></g></svg>