<svg xmlns="http://www.w3.org/2000/svg" viewBox="0 0 100 100" width="100" height="100" style="fill: rgb(0, 0, 0);"><defs><style>.cls-1{isolation:isolate;}.cls-2{fill:#fff;}.cls-3{fill:#f1bc19;}.cls-4{fill:#fce0a2;}.cls-5{fill:#ee3e54;}.cls-6{fill:#fbcd59;}.cls-7{fill:#9f8066;}.cls-15,.cls-19,.cls-20,.cls-8{fill:none;stroke-linecap:round;}.cls-10,.cls-15,.cls-19,.cls-20,.cls-8{stroke:#472b29;}.cls-10,.cls-8{stroke-miterlimit:10;}.cls-8{stroke-width:0.9px;}.cls-9{fill:#f6cca4;}.cls-10{fill:#eab436;stroke-width:0.75px;}.cls-11{fill:#edbc94;}.cls-12{opacity:0.3;}.cls-13{opacity:0.8;mix-blend-mode:multiply;}.cls-14{fill:#f4989e;}.cls-15,.cls-19,.cls-20{stroke-linejoin:round;}.cls-15{stroke-width:0.4px;}.cls-16{fill:#fdfcef;}.cls-17,.cls-18{fill:#472b29;}.cls-17{opacity:0.41;}.cls-19{stroke-width:0.5px;}</style></defs><title>Artboard 48</title><g class="cls-1"><g id="line5"><circle class="cls-2" cx="22.06" cy="58.47" r="0.89"/><circle class="cls-2" cx="81.11" cy="33.6" r="0.68"/><circle class="cls-3" cx="78.48" cy="14.57" r="0.89"/><circle class="cls-3" cx="22.56" cy="66.15" r="0.89"/><circle class="cls-4" cx="51.6" cy="51.8" r="37.45"/><circle class="cls-3" cx="83.93" cy="16.72" r="4.01"/><circle class="cls-5" cx="87.93" cy="25.79" r="1.88"/><circle class="cls-6" cx="78.95" cy="78.21" r="1.88"/><circle class="cls-6" cx="15.79" cy="65.26" r="4.01"/><circle class="cls-5" cx="26.02" cy="89.4" r="1.88"/><circle class="cls-2" cx="77.6" cy="32.09" r="1.8"/><circle class="cls-2" cx="19.53" cy="53.15" r="2.54"/><path class="cls-7" d="M33.27,77.88a1.87,1.87,0,0,0,1.43-.14l.12-.07.06.09a2,2,0,0,0,.69.73l.15.11a2.69,2.69,0,0,0,1.28.47l.64,0a1.19,1.19,0,0,0,0,.26,1.93,1.93,0,0,0,.41.88,2,2,0,0,0,.68.69l.15.11a2.57,2.57,0,0,0,1.25.43l.67,0a2.38,2.38,0,0,0,.38-.11v.24a2.16,2.16,0,0,0,.8,1.34,1.63,1.63,0,0,0,.74.35,1.59,1.59,0,0,0,.81.08,1.47,1.47,0,0,0,.74-.26,1.53,1.53,0,0,0,.59-.48l.1-.15a.13.13,0,0,0,0-.05,3,3,0,0,0,1.15,1.2,2.77,2.77,0,0,0,3.58-.76L50,83a3.05,3.05,0,0,0,4.24-.42,3.16,3.16,0,0,0,.5-1.13,2.62,2.62,0,0,0,3-1.08,1.9,1.9,0,0,0,.34-1h.59A2.06,2.06,0,0,0,60,78.61a1.54,1.54,0,0,0,.36-.75,1.52,1.52,0,0,0,.07-.82,1.9,1.9,0,0,0-.15-.53,1.48,1.48,0,0,0,.55,0,1.43,1.43,0,0,0,.74-.33,1.52,1.52,0,0,0,.59-.59A2.07,2.07,0,0,0,62.4,74l-.2-.51s0,0,0,0A1.86,1.86,0,0,0,63,72.8a2.63,2.63,0,0,0,0-3.18,3.16,3.16,0,0,0,.9-.85,3.05,3.05,0,0,0-1-4.14,2.25,2.25,0,0,0-.21-.12,2.81,2.81,0,0,0-.49-3.64,3.06,3.06,0,0,0-1.51-.67l0,0,.1-.15a2.24,2.24,0,0,0,.26-1.5,1.54,1.54,0,0,0-.35-.74,1.51,1.51,0,0,0-.58-.57,2.1,2.1,0,0,0-1.52-.31l-.23.07a2.56,2.56,0,0,0,0-.39l-.19-.64a2.45,2.45,0,0,0-.83-1l-.15-.11a2,2,0,0,0-.88-.41,2,2,0,0,0-1-.09l-.27,0-.19-.61a2.7,2.7,0,0,0-.88-1l-.15-.11a2.12,2.12,0,0,0-.91-.4l-.11,0,0-.14a1.91,1.91,0,0,0-.35-1.4,2,2,0,0,0-1.21-.75l-.41-.07a2,2,0,0,0-1.41.29,1.37,1.37,0,0,0-.41.42,1.12,1.12,0,0,0-.41-.1,1.55,1.55,0,0,0-1.26.27,1.17,1.17,0,0,0-.45.46.83.83,0,0,0-.07.13,2.23,2.23,0,0,0-.73-.89l-.15-.1a1.67,1.67,0,0,0-.79-.33,1.83,1.83,0,0,0-1.56.25,1.48,1.48,0,0,0-.58.53l-.25.49,0,.17a3.11,3.11,0,0,0-1.43-.4,2.65,2.65,0,0,0-1.69.77l-.34.51a2.27,2.27,0,0,0-.17.5,1.94,1.94,0,0,0-.48,0,1.63,1.63,0,0,0-.78.21,1.56,1.56,0,0,0-.67.49l-.31.47a2.36,2.36,0,0,0-.18.74,2.73,2.73,0,0,0-2.55,1.2,2.68,2.68,0,0,0-.51,1.91,2.59,2.59,0,0,0-1.62,1.11,2.74,2.74,0,0,0-.28,2.81,2.09,2.09,0,0,0-.64.42l-.34.45a1.58,1.58,0,0,0-.23.79,1.6,1.6,0,0,0,.06.81,1.7,1.7,0,0,0,.18.44,2.44,2.44,0,0,0-.4.32l-.37.5a2.62,2.62,0,0,0-.16,1.85,1.94,1.94,0,0,0,.47.81,2.07,2.07,0,0,0,.38.4l-.14.1-.38.4a1.62,1.62,0,0,0-.3.73,1.51,1.51,0,0,0,0,.79,1.55,1.55,0,0,0,.32.77,1.71,1.71,0,0,0,.57.63l.15.11a2.17,2.17,0,0,0,1.08.38l-.1.11a1.21,1.21,0,0,0-.28.58,1.19,1.19,0,0,0-.06.65,1.29,1.29,0,0,0,.22.63,1.41,1.41,0,0,0,.24.36,1.34,1.34,0,0,0-.26.52,1.92,1.92,0,0,0,.2,1.42l.2.37A2,2,0,0,0,33.27,77.88Z"/><path class="cls-7" d="M31.12,37.44a1.93,1.93,0,0,0,1.05,1.09l.13.06a.69.69,0,0,1,0,.1,1.93,1.93,0,0,0-.22,1v.18a2.47,2.47,0,0,0,.4,1.32l.43.51a1.34,1.34,0,0,0-.21.2,1.9,1.9,0,0,0-.54.84,1.81,1.81,0,0,0-.19,1v.19a2.44,2.44,0,0,0,.4,1.27l.47.53a2.62,2.62,0,0,0,.34.24l-.22.15a2,2,0,0,0-.7,1.42,1.57,1.57,0,0,0,.15.8,1.62,1.62,0,0,0,.45.72,1.72,1.72,0,0,0,.71.45,1.82,1.82,0,0,0,.83.2h.26a2.65,2.65,0,0,0-.36,1.62,3,3,0,0,0,3,2.5,2,2,0,0,0,0,.24,3.19,3.19,0,0,0,3.12,3.22A4,4,0,0,0,41.7,57a2.93,2.93,0,0,0,2.91,1.82,2.32,2.32,0,0,0,1.11-.29l0,0,.34.46a2.45,2.45,0,0,0,1.58.7,1.88,1.88,0,0,0,.91-.14,1.73,1.73,0,0,0,.79-.42,1.55,1.55,0,0,0,.38-.43,1.59,1.59,0,0,0,.39.43,1.69,1.69,0,0,0,.79.42,1.86,1.86,0,0,0,.91.14A2.43,2.43,0,0,0,53.4,59l.35-.46s0,0,0,0a2.36,2.36,0,0,0,1.12.29A2.91,2.91,0,0,0,57.78,57a4,4,0,0,0,1.36.24A3.21,3.21,0,0,0,62.26,54l0-.24a3,3,0,0,0,3-2.5,2.79,2.79,0,0,0-.36-1.62h.26a1.74,1.74,0,0,0,.82-.2,1.6,1.6,0,0,0,.71-.45,1.62,1.62,0,0,0,.45-.72,1.48,1.48,0,0,0,.16-.8,2,2,0,0,0-.71-1.42l-.21-.15a2.62,2.62,0,0,0,.34-.24l.46-.53a2.45,2.45,0,0,0,.41-1.27v-.19a2.78,2.78,0,0,0-.73-1.79l-.21-.2.43-.51a2.37,2.37,0,0,0,.39-1.32v-.18a1.84,1.84,0,0,0-.22-1,.3.3,0,0,0,0-.1l.14-.06a2,2,0,0,0,1.05-1.09A1.8,1.8,0,0,0,68.28,36l-.2-.38a2.07,2.07,0,0,0-1.17-1,1.83,1.83,0,0,0-.65-.09,1.08,1.08,0,0,0-.17-.4,1.28,1.28,0,0,0-.43-.55A1.45,1.45,0,0,0,65,33.3a1.54,1.54,0,0,0-.71-.11l-.16,0a2.1,2.1,0,0,0,.34-1.11v-.19a1.51,1.51,0,0,0-.21-.83,1.6,1.6,0,0,0-.49-.7,1.78,1.78,0,0,0-.74-.43,1.82,1.82,0,0,0-.86-.17l-.61.08-.18.05a1.69,1.69,0,0,0-.12-.54,1.78,1.78,0,0,0-.44-.85,1.9,1.9,0,0,0-.79-.61,2.16,2.16,0,0,0-1-.33l-.69,0a2.19,2.19,0,0,0-.56.14,1.52,1.52,0,0,0-.28-.4,1.74,1.74,0,0,0-.7-.52,1.85,1.85,0,0,0-.87-.27l-.62,0a2.32,2.32,0,0,0-.79.28,3.15,3.15,0,0,0-2.74-1.39,3.19,3.19,0,0,0-2.07.68,3.42,3.42,0,0,0-4.8.71,2.32,2.32,0,0,0-.79-.28l-.62,0a1.89,1.89,0,0,0-.88.27,2.13,2.13,0,0,0-1,.92,2.09,2.09,0,0,0-.56-.14l-.68,0a2.16,2.16,0,0,0-1,.33,1.93,1.93,0,0,0-.8.61,1.77,1.77,0,0,0-.43.85,1.69,1.69,0,0,0-.12.54l-.18-.05-.61-.08a1.79,1.79,0,0,0-.86.17,1.82,1.82,0,0,0-.75.43,1.69,1.69,0,0,0-.49.7,1.5,1.5,0,0,0-.2.83v.19a2,2,0,0,0,.34,1.11l-.17,0a1.56,1.56,0,0,0-.71.11,1.47,1.47,0,0,0-.62.32,1.3,1.3,0,0,0-.44.55,1.55,1.55,0,0,0-.17.4,1.77,1.77,0,0,0-.64.09,2,2,0,0,0-1.17,1L31.2,36A1.84,1.84,0,0,0,31.12,37.44Z"/><path class="cls-8" d="M68.21,36.17l-.2-.38a2.06,2.06,0,0,0-1.18-1,1.74,1.74,0,0,0-.64-.09,2.17,2.17,0,0,0-.6-.95,1.45,1.45,0,0,0-.63-.32,1.54,1.54,0,0,0-.71-.11l-.16,0a2.1,2.1,0,0,0,.34-1.11v-.19a1.51,1.51,0,0,0-.21-.83,1.55,1.55,0,0,0-.49-.7,1.78,1.78,0,0,0-.74-.43,1.83,1.83,0,0,0-.87-.17l-.61.08-.17.05a1.69,1.69,0,0,0-.12-.54,1.88,1.88,0,0,0-.44-.85,1.93,1.93,0,0,0-.8-.61,2.12,2.12,0,0,0-1-.33l-.69,0a2.19,2.19,0,0,0-.56.14,1.52,1.52,0,0,0-.28-.4,1.81,1.81,0,0,0-.7-.52,1.85,1.85,0,0,0-.87-.27l-.63,0a2.49,2.49,0,0,0-.79.28,3.11,3.11,0,0,0-2.74-1.39,3.18,3.18,0,0,0-2.06.68,3.16,3.16,0,0,0-2.06-.68A3.11,3.11,0,0,0,44.87,27a2.4,2.4,0,0,0-.79-.28l-.63,0a1.85,1.85,0,0,0-.87.27,1.81,1.81,0,0,0-.7.52,1.52,1.52,0,0,0-.28.4,2.19,2.19,0,0,0-.56-.14l-.69,0a2.12,2.12,0,0,0-1,.33,1.93,1.93,0,0,0-.8.61,1.77,1.77,0,0,0-.43.85,1.71,1.71,0,0,0-.13.54L37.83,30l-.61-.08a1.83,1.83,0,0,0-.87.17,1.78,1.78,0,0,0-.74.43,1.63,1.63,0,0,0-.49.7,1.51,1.51,0,0,0-.21.83v.19a2,2,0,0,0,.35,1.11l-.17,0a1.54,1.54,0,0,0-.71.11,1.45,1.45,0,0,0-.63.32,2.17,2.17,0,0,0-.6.95,1.74,1.74,0,0,0-.64.09,2.06,2.06,0,0,0-1.18,1l-.2.38a1.8,1.8,0,0,0-.08,1.42,1.93,1.93,0,0,0,1.05,1.09l.13.06a1,1,0,0,0,0,.1,1.93,1.93,0,0,0-.22,1V40a2.55,2.55,0,0,0,.39,1.32l.43.51-.21.2a2,2,0,0,0-.53.84,1.71,1.71,0,0,0-.19,1V44a2.35,2.35,0,0,0,.4,1.27c.16.17.31.35.47.53a2.08,2.08,0,0,0,.34.24l-.22.15a2,2,0,0,0-.7,1.42,1.39,1.39,0,0,0,.15.8,1.62,1.62,0,0,0,.45.72,1.66,1.66,0,0,0,.71.45,1.77,1.77,0,0,0,.82.2h.27a2.73,2.73,0,0,0-.37,1.62A2.94,2.94,0,0,0,37,53.87l-.11.17a1.92,1.92,0,0,0-.18.74A2.73,2.73,0,0,0,34.11,56a2.68,2.68,0,0,0-.51,1.91A2.59,2.59,0,0,0,32,59a2.76,2.76,0,0,0-.29,2.81,2.17,2.17,0,0,0-.63.42l-.34.45a1.48,1.48,0,0,0-.23.79,1.6,1.6,0,0,0,.06.81,1.7,1.7,0,0,0,.18.44,2.44,2.44,0,0,0-.4.32l-.37.5a1.74,1.74,0,0,0-.25.92,2.2,2.2,0,0,0,.56,1.74,1.6,1.6,0,0,0,.38.4l-.14.1-.38.4a1.43,1.43,0,0,0-.3.73,1.51,1.51,0,0,0,0,.79,1.54,1.54,0,0,0,.31.77,1.83,1.83,0,0,0,.58.63l.15.11a2.17,2.17,0,0,0,1.08.38l-.1.11a1.21,1.21,0,0,0-.28.58,1.19,1.19,0,0,0-.06.65,1.29,1.29,0,0,0,.22.63,1.41,1.41,0,0,0,.24.36,1.34,1.34,0,0,0-.26.52,1.91,1.91,0,0,0,.19,1.42l.21.37a2,2,0,0,0,1.11.88,1.89,1.89,0,0,0,1.44-.14l.12-.07.06.09a2,2,0,0,0,.68.73l.16.11a2.65,2.65,0,0,0,1.28.47l.63,0a2.44,2.44,0,0,0,.06.26,1.93,1.93,0,0,0,.41.88,2,2,0,0,0,.67.69l.16.11a2.53,2.53,0,0,0,1.25.43l.67,0a2.26,2.26,0,0,0,.37-.11v.24A2.16,2.16,0,0,0,42,83a1.6,1.6,0,0,0,.73.35,1.64,1.64,0,0,0,.82.08,1.5,1.5,0,0,0,.74-.26,1.53,1.53,0,0,0,.59-.48l.1-.15,0,0a3.07,3.07,0,0,0,1.14,1.2,2.79,2.79,0,0,0,3.59-.76l.18.16a3.05,3.05,0,0,0,4.25-.43,3.22,3.22,0,0,0,.5-1.12,2.63,2.63,0,0,0,3-1.08,2,2,0,0,0,.34-1h.58a2.06,2.06,0,0,0,1.39-.74,1.54,1.54,0,0,0,.36-.75,1.52,1.52,0,0,0,.06-.82,1.61,1.61,0,0,0-.15-.53,1.45,1.45,0,0,0,.55,0,1.43,1.43,0,0,0,.75-.33,1.59,1.59,0,0,0,.59-.59,2.11,2.11,0,0,0,.24-1.56l-.2-.51,0,0a1.92,1.92,0,0,0,.82-.65,2.63,2.63,0,0,0,0-3.18,3.13,3.13,0,0,0,.89-.85,3.05,3.05,0,0,0-1-4.14,2.39,2.39,0,0,0-.22-.12A2.79,2.79,0,0,0,62.12,61a3.06,3.06,0,0,0-1.52-.67l0,0,.1-.15a2.24,2.24,0,0,0,.26-1.5,1.64,1.64,0,0,0-.35-.74,1.59,1.59,0,0,0-.58-.57l-.21-.11a3.18,3.18,0,0,0,2.32-3.09,1,1,0,0,0,0-.24,3,3,0,0,0,3-2.5,2.79,2.79,0,0,0-.36-1.62h.26a1.77,1.77,0,0,0,.82-.2,1.66,1.66,0,0,0,.71-.45,1.62,1.62,0,0,0,.45-.72,1.39,1.39,0,0,0,.15-.8,2,2,0,0,0-.7-1.42l-.22-.15a2.71,2.71,0,0,0,.35-.24c.15-.18.3-.36.46-.53A2.45,2.45,0,0,0,67.49,44v-.19a1.81,1.81,0,0,0-.2-1,1.88,1.88,0,0,0-.53-.84l-.21-.2.43-.51A2.46,2.46,0,0,0,67.37,40v-.18a1.84,1.84,0,0,0-.22-1,1,1,0,0,0,0-.1l.14-.06a1.92,1.92,0,0,0,1-1.09A1.8,1.8,0,0,0,68.21,36.17Z"/><path class="cls-9" d="M61.77,44c.13-1.52-.33-2.82-.23-3.58h0c-1.34-1.65-2.18-3.59-4-4.77a23.77,23.77,0,0,0-6.78-2.83c-5.7-1.43-11.31,2.74-13.07,8.13a.33.33,0,0,1-.06.1A20.42,20.42,0,0,1,38,44c-1.54,0-2.33.81-1.8,2.43,0,0,.6,2.63,1,3.89a1.48,1.48,0,0,0,1.48,1.2c0,.84,0,1.67,0,2.51a4.44,4.44,0,0,0,.86,2.81C41,59,48.73,64,50.6,63.83c3,0,9-5.14,10.59-7.7a3.86,3.86,0,0,0,.47-1.69c0-1,0-2,0-3a1.51,1.51,0,0,0,1.27-1.19c.4-1.26,1-3.86,1-3.89C64.47,44.78,63.31,44,61.77,44Z"/><path class="cls-10" d="M49.85,30c-6.85,0-12.4,5-12.4,11.29A4.63,4.63,0,0,0,37.88,43c1.52-5.54,8.44-8.19,12-8.19s10.38,2.3,12,8.19a4.63,4.63,0,0,0,.43-1.72C62.26,35,56.7,30,49.85,30Z"/><path class="cls-11" d="M66.38,69.55,66,69.43l-.57-.24c-1.23-.53-9.27-3.27-9.27-3.27A1.89,1.89,0,0,1,55,64.84a9,9,0,0,1-.23-2.92,22.12,22.12,0,0,1-4.22,1.43c-1.87.18-5.15-2.27-5.15-2.27s-.1,3-.23,3.71a1.68,1.68,0,0,1-1.26,1.13L36.15,68.5a8,8,0,0,0-2.17.91,7.76,7.76,0,0,0-3.27,4.68h-.05a4.34,4.34,0,0,0-.09.61A5,5,0,0,0,30.43,76c-.05.47-.09,6-.14,6.52,8,5.58,16.37,6.19,26.9,6.19,4.63,0,9.23-2.64,13-4.54C69.77,74.83,70.64,70.86,66.38,69.55Z"/><g class="cls-12"><g class="cls-13"><ellipse class="cls-14" cx="42.98" cy="52.64" rx="1.97" ry="2"/></g><g class="cls-13"><ellipse class="cls-14" cx="58.1" cy="52.64" rx="1.97" ry="2"/></g></g><line class="cls-15" x1="38.13" y1="43.97" x2="38.92" y2="51.61"/><line class="cls-15" x1="61.95" y1="43.51" x2="61.52" y2="51.61"/><path class="cls-16" d="M41.47,67.05c-.22,8.91,17.68,9.44,16.44-.66l5,1.67,2,18.69a40.14,40.14,0,0,1-29.7-1.31l1-16.67Z"/><path class="cls-17" d="M50.32,54.85a2.66,2.66,0,0,0,2-.9.15.15,0,0,0,0-.2h0a.14.14,0,0,0-.19,0,2.65,2.65,0,0,1-3.59,0,.14.14,0,0,0-.19,0,.15.15,0,0,0,0,.2A2.68,2.68,0,0,0,50.32,54.85Z"/><path class="cls-17" d="M51.21,61.57a.09.09,0,0,0,0-.18H49.44a.09.09,0,0,0,0,.18Z"/><path class="cls-18" d="M48.27,41.93a20.93,20.93,0,0,0-7.42-.77.22.22,0,0,0-.21.19.22.22,0,0,0,.19.2c.05,0,5.08.88,6.65,1.43l.08,0a.3.3,0,0,0,.21-.08l.61-.68a.16.16,0,0,0,0-.17A.26.26,0,0,0,48.27,41.93Z"/><path class="cls-18" d="M52.27,41.74a20.79,20.79,0,0,1,7.45-.39.21.21,0,0,1,.2.2.21.21,0,0,1-.2.19s-5.11.62-6.71,1.09h-.08a.24.24,0,0,1-.2-.09L52.15,42a.18.18,0,0,1,0-.17A.22.22,0,0,1,52.27,41.74Z"/><path class="cls-18" d="M44.73,44.87a1.4,1.4,0,0,0-1.21.83.69.69,0,0,1,.2,0,.83.83,0,0,1,0,1.65.7.7,0,0,1-.37-.11,1.54,1.54,0,0,0,1.38,1.3,1.87,1.87,0,0,0,0-3.64Z"/><path class="cls-18" d="M55.72,44.87a1.35,1.35,0,0,0-1.08.63.6.6,0,0,1,.27-.06.83.83,0,0,1,0,1.65.72.72,0,0,1-.62-.36,1.48,1.48,0,1,0,1.43-1.86Z"/><path class="cls-19" d="M45.64,61.69s3.43,1.71,5.25,1.57a15,15,0,0,0,4.42-1.49"/><path class="cls-18" d="M48.61,44.44c-2.25-2.74-10.72-.8-10.73-.8.16.62.29,1.23.42,1.83.63.07.66,1.48.72,2,.31,2.49,2,4.33,5.5,4.25A4.41,4.41,0,0,0,49,47.38,6.12,6.12,0,0,0,48.61,44.44Zm-.4,3.06a3.68,3.68,0,0,1-3.78,3.66c-.22,0-.44,0-.65,0-3.5,0-4.1-3.07-4.17-5A2.07,2.07,0,0,1,41.48,44a21.08,21.08,0,0,1,2.2-.07c2.61,0,3.75.63,4.06,1.13A4.54,4.54,0,0,1,48.21,47.5Z"/><path class="cls-18" d="M51.09,47.38a4.42,4.42,0,0,0,4.5,4.34c3.52.08,5.19-1.76,5.49-4.25.06-.52.1-1.93.73-2,.12-.6.26-1.21.41-1.83,0,0-8.48-1.94-10.73.8A6.27,6.27,0,0,0,51.09,47.38Zm1.28-2.33c.3-.5,1.44-1.13,4.06-1.13a21.18,21.18,0,0,1,2.2.07,2.06,2.06,0,0,1,1.86,2.17c-.06,1.93-.66,5-4.16,5q-.31,0-.66,0A3.67,3.67,0,0,1,51.9,47.5,4.35,4.35,0,0,1,52.37,45.05Z"/><path class="cls-18" d="M51.57,46.59A2.65,2.65,0,0,0,50,46.13a2.31,2.31,0,0,0-1.46.46c-.15-.43-.3-.85-.46-1.27h4C51.88,45.74,51.73,46.16,51.57,46.59Z"/><path class="cls-18" d="M57,56.75a.16.16,0,0,0,0-.21h0a.16.16,0,0,0-.21,0,10.46,10.46,0,0,1-6.32,1.74,10.44,10.44,0,0,1-6.32-1.74.17.17,0,0,0-.1,0,.13.13,0,0,0-.11,0,.16.16,0,0,0,0,.21,10.58,10.58,0,0,0,6.51,2A10.58,10.58,0,0,0,57,56.75Z"/><path class="cls-20" d="M66.42,69.7l-.34-.12-.57-.24c-1.23-.53-9.27-3.27-9.27-3.27A1.86,1.86,0,0,1,55,65a8,8,0,0,1-.23-2.69,24.34,24.34,0,0,0,6.44-6,3.86,3.86,0,0,0,.47-1.69c0-1,0-2,0-3A1.49,1.49,0,0,0,63,50.44c.4-1.25,1-3.86,1-3.88.53-1.62-.63-2.46-2.17-2.43,0-.43,0-1.08.06-1a4.63,4.63,0,0,0,.43-1.72c0-6.23-5.56-11.29-12.41-11.29s-12.4,5.06-12.4,11.29A4.57,4.57,0,0,0,38,43.05,10.65,10.65,0,0,1,38,44.12c-1.54,0-2.33.82-1.8,2.44,0,0,.6,2.63,1,3.88a1.49,1.49,0,0,0,1.48,1.21c0,.83,0,1.67,0,2.5A4.42,4.42,0,0,0,39.55,57c.8,1.17,3.4,3.15,5.92,4.72,0,.73-.17,2.71-.28,3.26a1.66,1.66,0,0,1-1.26,1.13l-7.74,2.59a10.94,10.94,0,0,0-2.17.91c-4.27,2.17-3.72,11.51-3.69,13a37.39,37.39,0,0,0,39.88,1.68C70,76.37,70.23,70.87,66.42,69.7Z"/></g></g></svg>