<svg xmlns="http://www.w3.org/2000/svg" viewBox="0 0 100 100" width="100" height="100" style="fill: rgb(0, 0, 0);"><defs><style>.cls-1{isolation:isolate;}.cls-2{fill:#fff;}.cls-3{fill:#f1bc19;}.cls-4{fill:#fce0a2;}.cls-5{fill:#ee3e54;}.cls-6{fill:#fbcd59;}.cls-7{fill:#3a2221;}.cls-8{fill:#512c2b;}.cls-9{fill:#d8ad8f;}.cls-10{fill:#b2876b;}.cls-11{fill:#ee8670;}.cls-12{opacity:0.3;}.cls-13{opacity:0.8;mix-blend-mode:multiply;}.cls-14{fill:#f4989e;}.cls-15,.cls-17,.cls-21,.cls-22{fill:none;stroke-linecap:round;stroke-linejoin:round;}.cls-15,.cls-17,.cls-22{stroke:#472b29;}.cls-15{stroke-width:0.4px;}.cls-16,.cls-18{fill:#472b29;}.cls-16{opacity:0.41;}.cls-17{stroke-width:0.5px;}.cls-19{fill:#6d1b18;}.cls-20{fill:#fdfcef;}.cls-21{stroke:#f1bc19;stroke-width:0.8px;}</style></defs><title>Artboard 58</title><g class="cls-1"><g id="line6"><circle class="cls-2" cx="19.71" cy="56.65" r="0.89"/><circle class="cls-2" cx="78.76" cy="31.78" r="0.68"/><circle class="cls-3" cx="76.13" cy="12.74" r="0.89"/><circle class="cls-3" cx="20.21" cy="64.32" r="0.89"/><circle class="cls-4" cx="49.25" cy="49.97" r="37.45"/><circle class="cls-3" cx="81.58" cy="14.9" r="4.01"/><circle class="cls-5" cx="85.58" cy="23.97" r="1.88"/><circle class="cls-6" cx="76.6" cy="76.38" r="1.88"/><circle class="cls-6" cx="13.44" cy="63.44" r="4.01"/><circle class="cls-5" cx="23.67" cy="87.57" r="1.88"/><circle class="cls-2" cx="75.25" cy="30.26" r="1.8"/><circle class="cls-2" cx="17.18" cy="51.33" r="2.54"/><path class="cls-7" d="M58.43,27.28a3.1,3.1,0,0,0-.08-.69,2.75,2.75,0,0,0,.08-.65,3,3,0,0,0-2.22-2.83,3.33,3.33,0,0,0-3.39-3A3.9,3.9,0,0,0,46,19.81a3.42,3.42,0,0,0-.79-.09,3,3,0,0,0-3.18,2.88s0,.1,0,.16a3.36,3.36,0,0,0-2.55,3.16,3.09,3.09,0,0,0,.8,2.06,2.66,2.66,0,0,0-.61,1.68,3,3,0,0,0,3.12,2.83,3.25,3.25,0,0,0,1.26-.24,2.61,2.61,0,0,0,2.71,2.37,3,3,0,0,0,.85-.12,3.89,3.89,0,0,0,3,1.31,3.65,3.65,0,0,0,3.71-2.92,3.32,3.32,0,0,0,2.25-2.76A3.22,3.22,0,0,0,58.43,27.28Z"/><path class="cls-8" d="M49.47,24.81C38,24.81,33.15,33.45,36.58,41.7c.16.38,1.71.06,1.75-.34.44-4.69,3-8.62,11.14-6.63,8.12-2,10.7,1.94,11.15,6.63,0,.4,1.22.41,1.38,0C65.43,33.13,60.93,24.81,49.47,24.81Z"/><path class="cls-9" d="M61.33,42.36c.13-1.51-.32-2.81-.22-3.56h0c-1.33-1.64-2.17-3.58-4-4.75a23.67,23.67,0,0,0-6.74-2.82c-5.68-1.42-11.26,2.73-13,8.1l-.06.1a15.23,15.23,0,0,1,.18,2.92c-1.53,0-2.12.81-1.59,2.42,0,0,.59,2.62,1,3.87a1.48,1.48,0,0,0,1.47,1.2c0,.83,0,1.66,0,2.49a4.45,4.45,0,0,0,.86,2.8c1.49,2.17,9.18,7.17,11,7,3,0,9-5.12,10.54-7.67a3.78,3.78,0,0,0,.47-1.68c0-1,0-2,0-3a1.48,1.48,0,0,0,1.27-1.18c.39-1.25,1-3.85,1-3.87C64,43.16,62.87,42.33,61.33,42.36Z"/><path class="cls-5" d="M49.47,28.4c-6.82,0-12.34,5-12.34,11.24a4.49,4.49,0,0,0,.43,1.72c1.51-5.52,8.4-8.16,11.92-8.16s10.34,2.29,11.92,8.16a4.77,4.77,0,0,0,.42-1.72C61.82,33.44,56.29,28.4,49.47,28.4Z"/><path class="cls-10" d="M65.93,67.81a2.87,2.87,0,0,1-.34-.12L65,67.45c-1.23-.52-9.22-3.25-9.22-3.25a1.86,1.86,0,0,1-1.22-1.08,8.87,8.87,0,0,1-.23-2.9,22.27,22.27,0,0,1-4.2,1.42c-1.86.19-5.13-2.26-5.13-2.26s-.1,3-.22,3.69a1.66,1.66,0,0,1-1.26,1.13l-7.7,2.57a7.91,7.91,0,0,0-2.17.91,7.76,7.76,0,0,0-3.26,4.66h-.05c0,.1-.05.31-.09.6a5.27,5.27,0,0,0-.13,1.34c-.05.46.1,7.28.05,7.82,7.07,4.15,12,5.17,22.48,5.17,4.6,0,13.19-3.71,17.14-5.73C69.37,72.21,70.17,69.12,65.93,67.81Z"/><path class="cls-5" d="M30.19,82.1A36.34,36.34,0,0,0,56,86.82c4.65-.8,9.73-3.75,13.81-5.28-.44-9.33.55-12.11-3.69-13.41-.82-.26-3.93-1.75-3.93-1.75s-8,4.5-11.53,5.21a69.39,69.39,0,0,1-20.1,1.06C30.48,73,30.34,80.44,30.19,82.1Z"/><path class="cls-11" d="M66.6,68.33a3.86,3.86,0,0,0-.51-.2c-.82-.26-3.93-1.75-3.93-1.75s-8,4.5-11.53,5.21a69.39,69.39,0,0,1-20.1,1.06c-.08.31-.21,1.58-.34,3.08C52.54,79.67,63.49,70,66.6,68.33Z"/><g class="cls-12"><g class="cls-13"><ellipse class="cls-14" cx="42.64" cy="50.99" rx="1.96" ry="1.99"/></g><g class="cls-13"><ellipse class="cls-14" cx="57.69" cy="50.99" rx="1.96" ry="1.99"/></g></g><line class="cls-15" x1="37.81" y1="42.35" x2="38.63" y2="50.36"/><line class="cls-15" x1="61.52" y1="41.89" x2="61.03" y2="49.92"/><path class="cls-16" d="M50.83,59.87a.09.09,0,0,0,.08-.09.09.09,0,0,0-.08-.08H49.06a.09.09,0,0,0-.08.08.09.09,0,0,0,.08.09Z"/><path class="cls-17" d="M45.28,59.85s3.41,1.86,5.23,1.7a14,14,0,0,0,4.4-1.62"/><path class="cls-18" d="M47.87,38.93a20.61,20.61,0,0,0-7.23,1.7.22.22,0,0,0-.14.25.23.23,0,0,0,.25.13s5.06-.84,6.71-.83l.09,0a.23.23,0,0,0,.16-.14l.36-.84a.15.15,0,0,0,0-.17A.23.23,0,0,0,47.87,38.93Z"/><path class="cls-18" d="M52.37,38.78a20.77,20.77,0,0,1,7.14,2,.22.22,0,0,1,.13.25.23.23,0,0,1-.26.12s-5-1.07-6.66-1.13l-.09,0a.29.29,0,0,1-.16-.15L52.16,39a.17.17,0,0,1,0-.18A.25.25,0,0,1,52.37,38.78Z"/><path class="cls-18" d="M44.57,42.23a1.37,1.37,0,0,0-1.2.82.64.64,0,0,1,.2,0,.82.82,0,0,1,0,1.64.67.67,0,0,1-.37-.11,1.51,1.51,0,0,0,1.37,1.29,1.85,1.85,0,0,0,0-3.61Z"/><path class="cls-18" d="M55.51,42.23a1.32,1.32,0,0,0-1.07.61.75.75,0,0,1,.26-.05.83.83,0,0,1,0,1.65.75.75,0,0,1-.62-.36,1.64,1.64,0,0,0,1.43,1.76,1.85,1.85,0,0,0,0-3.61Z"/><path class="cls-16" d="M50.22,50.19a1.67,1.67,0,0,0,1.35-.75.29.29,0,0,0,0-.35.17.17,0,0,0-.28,0,1.34,1.34,0,0,1-2.07,0,.18.18,0,0,0-.29,0,.3.3,0,0,0,0,.35A1.67,1.67,0,0,0,50.22,50.19Z"/><path class="cls-19" d="M45.76,53.39a2.16,2.16,0,0,0-.09.62c0,1.82,2,3.3,4.5,3.3s4.5-1.48,4.5-3.3a2.16,2.16,0,0,0-.09-.62Z"/><path class="cls-5" d="M52.54,56.8A3.25,3.25,0,0,0,50.17,56a3.29,3.29,0,0,0-2.38.78,5.79,5.79,0,0,0,4.75,0Z"/><path class="cls-20" d="M47,53.39s0,0,0,.06V54c0,.48.65.88,1.43.88h3.42c.78,0,1.42-.4,1.42-.88v-.56a.13.13,0,0,0,0-.06Z"/><path class="cls-17" d="M45.76,53.39a2.16,2.16,0,0,0-.09.62c0,1.82,2,3.3,4.5,3.3s4.5-1.48,4.5-3.3a2.16,2.16,0,0,0-.09-.62Z"/><path class="cls-21" d="M38,55a3.14,3.14,0,0,1-.11-6.21"/><path class="cls-21" d="M61.61,54.89a3.14,3.14,0,0,0,.11-6.21"/><path class="cls-22" d="M66,68a3.19,3.19,0,0,1-.34-.13l-.57-.23c-1.23-.53-9.22-3.26-9.22-3.26a1.85,1.85,0,0,1-1.22-1.07,7.9,7.9,0,0,1-.23-2.68,24.29,24.29,0,0,0,6.41-6,3.78,3.78,0,0,0,.47-1.68c0-1,0-2,0-3a1.48,1.48,0,0,0,1.27-1.18c.39-1.25,1-3.84,1-3.87.53-1.61-.63-2.44-2.17-2.41,0-.42.05-1.07.07-1a4.76,4.76,0,0,0,.42-1.71c0-6.21-5.53-11.25-12.35-11.25s-12.34,5-12.34,11.25a4.48,4.48,0,0,0,.46,1.63,10.18,10.18,0,0,1,.08,1.07c-1.53,0-2.31.81-1.78,2.42,0,0,.59,2.62,1,3.87A1.48,1.48,0,0,0,38.39,50c0,.83,0,1.66,0,2.49a4.48,4.48,0,0,0,.86,2.81c.8,1.16,3.38,3.13,5.89,4.69,0,.73-.17,2.7-.27,3.25a1.67,1.67,0,0,1-1.26,1.12l-7.7,2.58a10.66,10.66,0,0,0-2.17.9C29.22,70.12,30.09,81.4,30,81.94l.4.37a37.38,37.38,0,0,0,39.27-1C69.54,74.12,69.59,69.08,66,68Z"/></g></g></svg>