<svg xmlns="http://www.w3.org/2000/svg" viewBox="0 0 100 100" width="100" height="100" style="fill: rgb(0, 0, 0);"><defs><style>.cls-1{isolation:isolate;}.cls-2{fill:#fff;}.cls-3{fill:#f1bc19;}.cls-4{fill:#f9dbd2;}.cls-21,.cls-5{fill:#f4989e;}.cls-6{fill:#fbcd59;}.cls-7{fill:#d8ad8f;}.cls-8{fill:#b2876b;}.cls-9{fill:#9f8066;}.cls-10{fill:#6d3c14;opacity:0.34;}.cls-11,.cls-12{fill:#472b29;}.cls-12{opacity:0.41;}.cls-13,.cls-15,.cls-20{fill:none;stroke-linecap:round;stroke-linejoin:round;}.cls-13,.cls-15,.cls-20,.cls-21{stroke:#472b29;}.cls-13{stroke-width:0.5px;}.cls-14{fill:#836f61;}.cls-15{stroke-width:0.6px;}.cls-16{opacity:0.3;}.cls-17,.cls-19{opacity:0.8;mix-blend-mode:multiply;}.cls-18{fill:#ba8964;}.cls-19{fill:#8e7469;}.cls-21{stroke-miterlimit:10;stroke-width:0.75px;}</style></defs><title>Artboard 50</title><g class="cls-1"><g id="line5"><circle class="cls-2" cx="22.06" cy="58.47" r="0.89"/><circle class="cls-2" cx="81.11" cy="33.6" r="0.68"/><circle class="cls-3" cx="78.48" cy="14.57" r="0.89"/><circle class="cls-3" cx="22.56" cy="66.15" r="0.89"/><circle class="cls-4" cx="51.6" cy="51.8" r="37.45"/><circle class="cls-3" cx="83.93" cy="16.72" r="4.01"/><circle class="cls-5" cx="87.93" cy="25.79" r="1.88"/><circle class="cls-6" cx="78.95" cy="78.21" r="1.88"/><circle class="cls-6" cx="15.79" cy="65.26" r="4.01"/><circle class="cls-5" cx="26.02" cy="89.4" r="1.88"/><circle class="cls-2" cx="77.6" cy="32.09" r="1.8"/><circle class="cls-2" cx="19.53" cy="53.15" r="2.54"/><path class="cls-7" d="M66.16,69.89c-.74-.52-10.23-3.8-10.23-3.8a1.46,1.46,0,0,1-1-1.2,19,19,0,0,1-.23-2.75,16.45,16.45,0,0,0,6.12-6,4,4,0,0,0,.47-1.68c0-1,0-2,0-3a1.49,1.49,0,0,0,1.27-1.19c.39-1.24,1-3.84,1-3.86C64,44.84,63.25,44,61.72,44a4.34,4.34,0,0,0,1-1.18h.11c.15,0,.29,0,.44,0,2,.65,5.09.25,5.9-4.49a3.5,3.5,0,0,1-3,1.26,3.06,3.06,0,0,0-.27-1.21,3,3,0,0,0,1-2.21,3.15,3.15,0,0,0-3.21-3.08h0a3.68,3.68,0,0,0,.19-1.2,4,4,0,0,0-4.12-4,4.23,4.23,0,0,0-1.13.16c0-.05,0-.11,0-.16a4.94,4.94,0,0,0-5.15-4.69,5.33,5.33,0,0,0-4.05,1.8A7.17,7.17,0,0,0,45.56,24c-3.41,0-6.17,2.21-6.17,4.94,0,.12,0,.24,0,.35a3.18,3.18,0,0,0-1.69,1.82c-.27.8.61,3,.58,3.1h0a1.85,1.85,0,0,0-1.9,2.35c.1.47.87,7.26,1.28,7.46-1.53,0-2.31.8-1.79,2.42,0,0,.6,2.62,1,3.86a1.49,1.49,0,0,0,1.47,1.21c0,.83,0,1.66,0,2.49a4.52,4.52,0,0,0,.85,2.8,17.68,17.68,0,0,0,5.68,5.27,20.36,20.36,0,0,1-.23,2.8,1.44,1.44,0,0,1-1.05,1.2l-7.75,2.66a7.73,7.73,0,0,0-2.18.94,8.6,8.6,0,0,0-3.56,6.87H69.42A8.48,8.48,0,0,0,66.16,69.89Z"/><path class="cls-8" d="M66.13,69.75a2.87,2.87,0,0,1-.34-.12l-.57-.24C64,68.87,56,66.14,56,66.14a1.86,1.86,0,0,1-1.22-1.08,10.8,10.8,0,0,1-.21-3.25,15.92,15.92,0,0,1-4.22,1.77c-1.86.18-5.06-1.62-5.06-1.62S45.12,64.34,45,65a1.66,1.66,0,0,1-1.26,1.13L36,68.71a8,8,0,0,0-2.17.91,7.76,7.76,0,0,0-3.26,4.66h-.05c0,.11,0,.32-.09.61a5.27,5.27,0,0,0-.13,1.34c-.05.46-.09,6-.14,6.5,7.63,4.25,16,6.18,26.5,6.18,4.61,0,9-2.84,13.12-4.37C69.38,75.2,70.37,71.05,66.13,69.75Z"/><path class="cls-5" d="M41.23,67c1.54,1.26,13,1.85,16.11-.67L62.2,68l1.19,19.36s-14.68,4.52-28-1.47L36,68.71Z"/><path class="cls-9" d="M54.81,39.23a4.27,4.27,0,0,0,3.85,2.29,4.84,4.84,0,0,0,1.21-.16,3.32,3.32,0,0,0,2.56,1.16,3.25,3.25,0,0,0,.44,0c1.89.6,5,1,5.91-3a2.83,2.83,0,0,1-2.67.31,4.64,4.64,0,0,0-.28-1.5,2.94,2.94,0,0,0,1-2.17,3.11,3.11,0,0,0-3.19-3h0a3.84,3.84,0,0,0,.19-1.18A4,4,0,0,0,59.66,28a4.58,4.58,0,0,0-1.12.15s0-.1,0-.15a4.88,4.88,0,0,0-5.12-4.61,5.28,5.28,0,0,0-4,1.77,7.2,7.2,0,0,0-3.78-1c-3.39,0-6.14,2.18-6.14,4.86,0,.12,0,.23,0,.35a3.11,3.11,0,0,0-1.68,1.79c0,.05.49,2.69.56,3a4.81,4.81,0,0,0,2.43,1.62,5.07,5.07,0,0,0,3,0c.75,2.5,3.65,4.37,7.1,4.37A9,9,0,0,0,54.81,39.23Z"/><path class="cls-10" d="M38.7,34.63c-.2,0-.54.17-.69.2a1.19,1.19,0,0,0-1.1,1.25L38,43.35c0-.63.19-6.24,2-7.77A7.93,7.93,0,0,1,38.7,34.63Z"/><path class="cls-11" d="M47.85,43.08a20.83,20.83,0,0,0-7.42-.38.2.2,0,0,0-.19.19.21.21,0,0,0,.2.2s5.09.61,6.68,1.08h.08a.25.25,0,0,0,.2-.09l.58-.71a.15.15,0,0,0,0-.17A.22.22,0,0,0,47.85,43.08Z"/><path class="cls-11" d="M51.84,43.08a20.84,20.84,0,0,1,7.42-.38.21.21,0,0,1,.2.19.22.22,0,0,1-.2.2s-5.09.61-6.68,1.08H52.5a.24.24,0,0,1-.2-.09l-.58-.71a.17.17,0,0,1,0-.17A.24.24,0,0,1,51.84,43.08Z"/><path class="cls-11" d="M44.33,45.34a1.38,1.38,0,0,0-1.2.83.64.64,0,0,1,.2,0,.82.82,0,0,1,0,1.64.67.67,0,0,1-.37-.11A1.51,1.51,0,0,0,44.33,49a1.86,1.86,0,0,0,0-3.62Z"/><path class="cls-11" d="M55.27,45.34A1.31,1.31,0,0,0,54.2,46a.75.75,0,0,1,.26-.05.82.82,0,0,1,0,1.64.74.74,0,0,1-.62-.35,1.47,1.47,0,1,0,1.43-1.86Z"/><path class="cls-12" d="M49.77,54.65a2.89,2.89,0,0,0,2.17-1,.32.32,0,0,0,0-.46.34.34,0,0,0-.47,0,2.5,2.5,0,0,1-3.34,0,.33.33,0,0,0-.5.43A2.93,2.93,0,0,0,49.77,54.65Z"/><path class="cls-13" d="M44.88,61.85s3.55,2,5.42,1.81a14,14,0,0,0,4.53-1.85"/><path class="cls-14" d="M66.11,39.64a4.52,4.52,0,0,0-.28-1.48,2.91,2.91,0,0,0,1-2.15,3.11,3.11,0,0,0-3.19-3h0a3.77,3.77,0,0,0,.19-1.17A4,4,0,0,0,59.66,28a4.15,4.15,0,0,0-1.12.15c0-.05,0-.1,0-.15a4.87,4.87,0,0,0-5.12-4.58A5.46,5.46,0,0,0,50.1,24.5c.42.42.15-.06.42.42a7.1,7.1,0,0,1,5,.61,5.66,5.66,0,0,1,2.26,7.16l-.08.13a3.91,3.91,0,0,1,1.06.4,4,4,0,0,1,1.74,5.34,3.54,3.54,0,0,1-.73.93l0,0a3.18,3.18,0,0,1,1.7,2.75,3.15,3.15,0,0,0,1.33.1c1.89.59,5,1,5.91-3A2.83,2.83,0,0,1,66.11,39.64Z"/><path class="cls-15" d="M38.18,33.83a4.76,4.76,0,0,0,2.62,1.86,5.17,5.17,0,0,0,3.07,0c.75,2.51,3.66,4.37,7.14,4.37a9,9,0,0,0,3.87-.85,4.3,4.3,0,0,0,3.88,2.3A4.78,4.78,0,0,0,60,41.34a3.37,3.37,0,0,0,2.58,1.16,3.15,3.15,0,0,0,.44,0,3.52,3.52,0,0,0,3.28.23"/><g class="cls-16"><g class="cls-17"><ellipse class="cls-18" cx="42.72" cy="53.15" rx="1.96" ry="1.99"/></g><g class="cls-17"><ellipse class="cls-18" cx="57.77" cy="53.15" rx="1.96" ry="1.99"/></g></g><circle class="cls-19" cx="46.75" cy="49.18" r="0.22"/><circle class="cls-19" cx="46.97" cy="50.89" r="0.22"/><circle class="cls-19" cx="48.49" cy="49.96" r="0.22"/><circle class="cls-19" cx="51.68" cy="49.92" r="0.22"/><circle class="cls-19" cx="52.54" cy="51.41" r="0.22"/><circle class="cls-19" cx="53.58" cy="49.94" r="0.22"/><line class="cls-15" x1="37.98" y1="43.97" x2="38.67" y2="51.52"/><line class="cls-15" x1="61.6" y1="44.05" x2="61.15" y2="51.41"/><path class="cls-20" d="M51.6,89.26a37.28,37.28,0,0,0,18.22-4.73l-.39-9.19c-.09-1.46-.07-3.41-3.18-5.45-.75-.5-10.23-3.8-10.23-3.8a1.46,1.46,0,0,1-1-1.2,19,19,0,0,1-.23-2.75,16.53,16.53,0,0,0,6.12-6,4,4,0,0,0,.47-1.68c0-1,0-2,0-3a1.48,1.48,0,0,0,1.26-1.19c.4-1.24,1-3.84,1-3.86.53-1.62-.25-2.45-1.79-2.42a4,4,0,0,0,1-1.18h.11a7.22,7.22,0,0,0,3.39,0c1.84-.6,2.5-1.78,3-4.47a3.51,3.51,0,0,1-3,1.26A3.06,3.06,0,0,0,66,38.4a3,3,0,0,0,1-2.21,3.15,3.15,0,0,0-3.21-3.08h0a4,4,0,0,0,.19-1.2,4,4,0,0,0-4.12-4,4.17,4.17,0,0,0-1.13.16c0-.05,0-.11,0-.16a4.94,4.94,0,0,0-5.16-4.69,5.33,5.33,0,0,0-4,1.8A7.17,7.17,0,0,0,45.66,24c-3.41,0-6.17,2.21-6.17,4.94,0,.12,0,.24,0,.35a3.41,3.41,0,0,0-1.69,1.82c-.56,1.34.58,3.08.57,3.1a1.85,1.85,0,0,0-1.89,2.35c.1.47,1.16,7,1.28,7.46-1.54,0-2.32.8-1.79,2.42,0,0,.6,2.62,1,3.86a1.51,1.51,0,0,0,1.48,1.21c0,.83,0,1.66,0,2.49a4.46,4.46,0,0,0,.85,2.8A17.68,17.68,0,0,0,45,62.09a22.07,22.07,0,0,1-.23,2.8,1.44,1.44,0,0,1-1,1.2l-7.75,2.66a7.73,7.73,0,0,0-2.18.94,7.89,7.89,0,0,0-3.18,4.46h0c-.14.47-.34,6.13-.53,8.27A37.22,37.22,0,0,0,51.6,89.26Z"/><path class="cls-21" d="M56.33,68.87a12.64,12.64,0,0,1-6.91,1.73,13.33,13.33,0,0,1-7-1.73c-1-.52-1.59-.81-1.59-1.81h0a1.71,1.71,0,0,1,1.59-1.8s4.43,1.54,6.91,1.54,7-1.54,7-1.54a1.71,1.71,0,0,1,1.6,1.8h0C57.93,68.06,57.44,68.25,56.33,68.87Z"/><path class="cls-11" d="M56.36,56.53a.14.14,0,0,0,0-.21h0a.14.14,0,0,0-.2,0A10.41,10.41,0,0,1,49.85,58a10.39,10.39,0,0,1-6.32-1.74l-.09,0a.18.18,0,0,0-.12,0,.15.15,0,0,0,0,.21,10.55,10.55,0,0,0,6.5,2A10.56,10.56,0,0,0,56.36,56.53Z"/></g></g></svg>