<svg xmlns="http://www.w3.org/2000/svg" viewBox="0 0 100 100" width="100" height="100" style="fill: rgb(0, 0, 0);"><defs><style>.cls-1{isolation:isolate;}.cls-2{fill:#fff;}.cls-3{fill:#f1bc19;}.cls-4{fill:#f9dbd2;}.cls-5{fill:#ee3e54;}.cls-6{fill:#fbcd59;}.cls-7{fill:#512c2b;}.cls-8{fill:#f6cca4;}.cls-9{fill:#edbc94;}.cls-10{opacity:0.3;}.cls-11{opacity:0.8;mix-blend-mode:multiply;}.cls-12{fill:#f4989e;}.cls-13,.cls-20,.cls-21{fill:none;stroke:#472b29;stroke-linecap:round;stroke-linejoin:round;}.cls-13{stroke-width:0.4px;}.cls-14{fill:#6d1b18;}.cls-15{fill:#fdfcef;}.cls-16{fill:#836f61;}.cls-17{fill:#e6e7e8;}.cls-18,.cls-19{fill:#472b29;}.cls-18{opacity:0.41;}.cls-20{stroke-width:0.5px;}</style></defs><title>Artboard 59</title><g class="cls-1"><g id="line6"><circle class="cls-2" cx="19.71" cy="56.65" r="0.89"/><circle class="cls-2" cx="78.76" cy="31.78" r="0.68"/><circle class="cls-3" cx="76.13" cy="12.74" r="0.89"/><circle class="cls-3" cx="20.21" cy="64.32" r="0.89"/><circle class="cls-4" cx="49.12" cy="49.97" r="37.45"/><circle class="cls-3" cx="81.58" cy="14.9" r="4.01"/><circle class="cls-5" cx="85.58" cy="23.97" r="1.88"/><circle class="cls-6" cx="76.6" cy="76.38" r="1.88"/><circle class="cls-6" cx="13.44" cy="63.44" r="4.01"/><circle class="cls-2" cx="75.25" cy="30.26" r="1.8"/><circle class="cls-2" cx="17.18" cy="51.33" r="2.54"/><circle class="cls-5" cx="23.67" cy="87.57" r="1.88"/><path class="cls-7" d="M64.28,63.52a2.5,2.5,0,0,1-.07.26c-.23.88-.49,1.71-.77,2.47a11.38,11.38,0,0,1-1.67,3.18,4.44,4.44,0,0,1-1,.95,4.75,4.75,0,0,1-2.77.76h-17a4.81,4.81,0,0,1-2.87-.82,5.26,5.26,0,0,1-.94-.89,11.38,11.38,0,0,1-1.67-3.18c-.28-.76-.54-1.59-.77-2.47a2.5,2.5,0,0,1-.07-.26C31.93,53,32.73,34.43,38.78,28.83a14.6,14.6,0,0,1,10.66-4.32,14.18,14.18,0,0,1,9,2.95,19.67,19.67,0,0,1,1.63,1.37,7,7,0,0,1,.6.62C66.2,35.69,66.86,53.39,64.28,63.52Z"/><path class="cls-8" d="M61.46,42.15c.13-1.51-.32-2.82-.22-3.57h0c-1.33-1.64-2.17-3.59-4-4.76A23.37,23.37,0,0,0,50.44,31c-5.7-1.44-11.3,2.74-13.06,8.13l-.06.1a19.78,19.78,0,0,1,.37,2.94c-1.54,0-2.32.81-1.79,2.43,0,0,.6,2.63,1,3.88a1.5,1.5,0,0,0,1.48,1.21c0,.83,0,1.67,0,2.5A4.52,4.52,0,0,0,39.2,55c1.51,2.17,9.23,7.2,11.1,7,3,0,9-5.14,10.59-7.7a4,4,0,0,0,.47-1.69c0-1,0-2,0-3a1.49,1.49,0,0,0,1.27-1.19c.4-1.25,1-3.86,1-3.88C64.17,43,63,42.12,61.46,42.15Z"/><path class="cls-9" d="M66.08,67.72a2.87,2.87,0,0,1-.34-.12l-.58-.24c-1.23-.53-9.26-3.26-9.26-3.26A1.9,1.9,0,0,1,54.68,63a8.94,8.94,0,0,1-.23-2.91,22.35,22.35,0,0,1-4.23,1.42c-1.86.19-5.15-2.27-5.15-2.27s-.09,3-.22,3.71a1.69,1.69,0,0,1-1.26,1.14l-7.74,2.58a7.61,7.61,0,0,0-2.17.91,7.75,7.75,0,0,0-3.28,4.68h0c0,.1-.05.32-.09.6a5.61,5.61,0,0,0-.14,1.35c0,.46-.09,7.41-.13,8,9.41,5.4,13.33,5.1,23.86,5.1,4.63,0,11.9-4.44,16-6C69.4,71.92,70.34,69,66.08,67.72Z"/><g class="cls-10"><g class="cls-11"><ellipse class="cls-12" cx="42.68" cy="50.82" rx="1.97" ry="2"/></g><g class="cls-11"><ellipse class="cls-12" cx="57.8" cy="50.82" rx="1.97" ry="2"/></g></g><line class="cls-13" x1="37.83" y1="42.14" x2="38.65" y2="50.19"/><line class="cls-13" x1="61.65" y1="41.68" x2="61.16" y2="49.75"/><path class="cls-14" d="M46.63,54.9a1.84,1.84,0,0,0-.06.47c0,1.4,1.54,2.53,3.45,2.53s3.45-1.13,3.45-2.53a1.84,1.84,0,0,0-.06-.47Z"/><path class="cls-5" d="M51.84,57.51a3.06,3.06,0,0,0-3.64,0,4.44,4.44,0,0,0,3.64,0Z"/><path class="cls-15" d="M47.62,54.9s0,0,0,0v.43c0,.37.5.68,1.1.68h2.62c.6,0,1.1-.31,1.1-.68v-.43s0,0,0,0Z"/><path class="cls-13" d="M46.63,54.9a1.84,1.84,0,0,0-.06.47c0,1.4,1.54,2.53,3.45,2.53s3.45-1.13,3.45-2.53a1.84,1.84,0,0,0-.06-.47Z"/><path class="cls-16" d="M41.07,64.94c-.11,4.48,8.51,2,8.51,2s8.29,2.54,7.67-2.62L62.13,66l1.44,18.68s-14,5.92-28.38.53l.66-18.49Z"/><polygon class="cls-17" points="49.58 66.89 42.78 64.27 40.82 65.28 44.49 73.09 49.58 66.89"/><polygon class="cls-17" points="49.58 66.89 56.38 64.27 58.44 65.1 54.67 73.09 49.58 66.89"/><path class="cls-18" d="M50,53a2.66,2.66,0,0,0,2-.9.13.13,0,0,0,0-.19h0a.14.14,0,0,0-.19,0,2.61,2.61,0,0,1-3.58,0,.15.15,0,0,0-.11,0,.11.11,0,0,0-.08,0,.13.13,0,0,0,0,.19A2.66,2.66,0,0,0,50,53Z"/><path class="cls-18" d="M50.91,59.75a.09.09,0,0,0,0-.18H49.13a.09.09,0,0,0,0,.18Z"/><path class="cls-7" d="M48,41a21,21,0,0,0-7.43-.77.2.2,0,1,0,0,.39s5.07.88,6.64,1.43l.08,0a.3.3,0,0,0,.21-.08l.61-.68a.16.16,0,0,0,0-.17A.24.24,0,0,0,48,41Z"/><path class="cls-7" d="M52,40.78a20.84,20.84,0,0,1,7.46-.39.21.21,0,0,1,.19.2.21.21,0,0,1-.2.19s-5.11.61-6.71,1.09h-.08a.25.25,0,0,1-.2-.09l-.58-.71a.19.19,0,0,1,0-.18A.26.26,0,0,1,52,40.78Z"/><path class="cls-19" d="M44.43,43.05a1.4,1.4,0,0,0-1.21.83.71.71,0,0,1,.2,0,.83.83,0,1,1-.37,1.55,1.54,1.54,0,0,0,1.38,1.29,1.87,1.87,0,0,0,0-3.63Z"/><path class="cls-19" d="M55.42,43.05a1.33,1.33,0,0,0-1.08.62.76.76,0,0,1,.26-.06.83.83,0,0,1,0,1.66.74.74,0,0,1-.62-.36,1.48,1.48,0,1,0,1.44-1.86Z"/><path class="cls-20" d="M45.34,59.73s3.43,1.86,5.25,1.71A14.24,14.24,0,0,0,55,59.8"/><path class="cls-21" d="M69.87,81.12C69.7,74,69.72,69,66.12,67.88a3.19,3.19,0,0,1-.34-.13l-.58-.23C64,67,55.94,64.25,55.94,64.25a1.89,1.89,0,0,1-1.22-1.08,8.27,8.27,0,0,1-.24-2.7,24.25,24.25,0,0,0,6.45-6,4,4,0,0,0,.47-1.68c0-1,0-2,0-3a1.48,1.48,0,0,0,1.27-1.19c.4-1.25,1-3.86,1-3.88.53-1.62-.64-2.45-2.18-2.42,0-.43,0-1.08.07-1A4.77,4.77,0,0,0,62,39.58c0-6.24-5.55-11.29-12.4-11.29S37.18,33.34,37.18,39.58a4.42,4.42,0,0,0,.47,1.64,10.15,10.15,0,0,1,.08,1.08c-1.54,0-2.32.81-1.79,2.43,0,0,.6,2.63,1,3.88a1.5,1.5,0,0,0,1.48,1.21c0,.84,0,1.67,0,2.5a4.5,4.5,0,0,0,.85,2.82c.81,1.17,3.4,3.15,5.93,4.71-.05.74-.18,2.72-.28,3.27a1.69,1.69,0,0,1-1.26,1.13l-7.74,2.58a11,11,0,0,0-2.17.91c-4,2-3.78,11.86-3.7,14.5a37.38,37.38,0,0,0,39.85-1.12Z"/><path class="cls-7" d="M50.21,26.83c-10.91.24-13.89,9.68-14.41,11.64.29-.32.58-.62.88-.9C36,41.08,38,44,39.53,46.9,38,44,45,36.29,50.23,34.54c-.31.55-.6,1.11-.87,1.67s-1.11,4-1.46,4.11a15.16,15.16,0,0,0,6.6-5.26,5.09,5.09,0,0,0,.76-1.61c-.48,6.45,6.35,9.86,6.13,13.65,2.5-3.56,1.74-7.75.79-11.94C62.17,35.15,59.1,26.64,50.21,26.83Z"/><path class="cls-5" d="M62.06,42.39A6.24,6.24,0,0,0,59.7,42a28,28,0,0,0-3.5.26,18.65,18.65,0,0,0-4.45,1.39,3.3,3.3,0,0,1-3.15,0,18.65,18.65,0,0,0-4.45-1.39A28,28,0,0,0,40.64,42a6.31,6.31,0,0,0-2.35.34c-.46.28-.51.58-.26,1.6a9.35,9.35,0,0,0,1.07,2.55l0,.09a8,8,0,0,0,3.48,3,4.86,4.86,0,0,0,3.58,0,6.44,6.44,0,0,0,2.65-2.44L49,46.9c.22-.42.62-1.19.9-1.21l.28,0,.29,0c.28,0,.68.8.9,1.21l.13.26a6.44,6.44,0,0,0,2.65,2.44,4.63,4.63,0,0,0,1.75.35,5.36,5.36,0,0,0,1.83-.34,8.05,8.05,0,0,0,3.48-3l.06-.09A10.08,10.08,0,0,0,62.32,44C62.57,43,62.52,42.66,62.06,42.39ZM52,45s.3-.82,1.93-1.26a15.8,15.8,0,0,1,3.72-.61h.21c1.15.06,1.84.29,2,.68a3.38,3.38,0,0,1-.25,3.14,5.91,5.91,0,0,1-2.8,1.84,3.84,3.84,0,0,1-3.2-.57A4.88,4.88,0,0,1,52.07,46,1.61,1.61,0,0,1,52,45Zm-5.38,3.23a3.84,3.84,0,0,1-3.2.57,5.91,5.91,0,0,1-2.8-1.84,3.41,3.41,0,0,1-.26-3.14c.21-.39.9-.62,2.05-.68h.21a15.8,15.8,0,0,1,3.72.61c1.63.44,1.93,1.25,1.94,1.27a1.72,1.72,0,0,1,0,1.08A4.78,4.78,0,0,1,46.66,48.18Z"/></g></g></svg>