<svg xmlns="http://www.w3.org/2000/svg" viewBox="0 0 100 100" width="100" height="100" style="fill: rgb(0, 0, 0);"><defs><style>.cls-1{isolation:isolate;}.cls-2{fill:#fff;}.cls-3{fill:#f1bc19;}.cls-4{fill:#f9dbd2;}.cls-5{fill:#ee8670;}.cls-6{fill:#fbcd59;}.cls-21,.cls-7{fill:#472b29;}.cls-8{fill:#d8ad8f;}.cls-9{fill:#b2876b;}.cls-10{opacity:0.3;}.cls-11{opacity:0.8;mix-blend-mode:multiply;}.cls-12{fill:#f4989e;}.cls-13,.cls-23,.cls-24{fill:none;stroke:#472b29;stroke-linecap:round;stroke-linejoin:round;}.cls-13{stroke-width:0.4px;}.cls-14{fill:#6d1b18;}.cls-15{fill:#ee3e54;}.cls-16{fill:#fdfcef;}.cls-17{fill:#eab94e;}.cls-18{fill:#ef8f70;}.cls-19{fill:#ec795a;}.cls-20{fill:#e6e7e8;}.cls-21{opacity:0.41;}.cls-22{fill:#512c2b;}.cls-24{stroke-width:0.5px;}</style></defs><title>Artboard 77</title><g class="cls-1"><g id="line8"><g id="background_round" data-name="background round"><circle class="cls-2" cx="20.75" cy="56.38" r="0.89"/><circle class="cls-2" cx="79.8" cy="31.51" r="0.68"/><circle class="cls-3" cx="77.17" cy="12.48" r="0.89"/><circle class="cls-3" cx="21.24" cy="64.06" r="0.89"/><circle class="cls-4" cx="50.28" cy="49.71" r="37.45"/><circle class="cls-3" cx="82.61" cy="14.63" r="4.01"/><circle class="cls-5" cx="86.62" cy="23.7" r="1.88"/><circle class="cls-6" cx="77.63" cy="76.12" r="1.88"/><circle class="cls-6" cx="14.47" cy="63.17" r="4.01"/><circle class="cls-5" cx="24.71" cy="87.31" r="1.88"/><circle class="cls-2" cx="76.28" cy="30" r="1.8"/><circle class="cls-2" cx="18.21" cy="51.06" r="2.54"/><path class="cls-7" d="M65.63,37.15a19,19,0,0,0-6.12-8.49,14.22,14.22,0,0,0-10-2.82,14.19,14.19,0,0,0-10,2.82,19,19,0,0,0-6.13,8.49,23.94,23.94,0,0,0,1.79,20.23A18,18,0,0,0,48,66a.2.2,0,0,1,0,.08,13.89,13.89,0,0,0,1.58,0,13.78,13.78,0,0,0,1.57,0l0-.08a17.94,17.94,0,0,0,12.77-8.61A23.94,23.94,0,0,0,65.63,37.15ZM49.53,62a43.91,43.91,0,0,1,0-28.66A43.91,43.91,0,0,1,49.53,62Z"/><path class="cls-8" d="M61.55,41.89c.13-1.52-.32-2.82-.23-3.58h0c-1.33-1.65-2.17-3.59-4-4.77a23.77,23.77,0,0,0-6.78-2.83c-5.7-1.43-11.3,2.74-13.07,8.13a.31.31,0,0,1-.05.1,21.6,21.6,0,0,1,.37,2.94c-1.54,0-2.33.81-1.79,2.43,0,0,.59,2.63,1,3.89a1.49,1.49,0,0,0,1.48,1.2c0,.84,0,1.67,0,2.51a4.5,4.5,0,0,0,.86,2.81c1.5,2.18,9.23,7.2,11.09,7,3,0,9-5.14,10.59-7.7a3.87,3.87,0,0,0,.48-1.69c0-1,0-2,0-3a1.51,1.51,0,0,0,1.27-1.19c.39-1.26,1-3.86,1-3.89C64.25,42.69,63.09,41.86,61.55,41.89Z"/><path class="cls-9" d="M66.16,67.46l-.33-.12-.58-.24C64,66.57,56,63.83,56,63.83a1.82,1.82,0,0,1-1.22-1.08,8.72,8.72,0,0,1-.23-2.92,22.05,22.05,0,0,1-4.23,1.43c-1.87.18-5.15-2.27-5.15-2.27s-.1,3-.22,3.71a1.66,1.66,0,0,1-1.27,1.13l-7.73,2.58a8.1,8.1,0,0,0-2.18.91A7.8,7.8,0,0,0,30.49,72h0a4.34,4.34,0,0,0-.09.61A5.51,5.51,0,0,0,30.21,74c0,.47-.05,6.13-.1,6.67,8.41,5.79,12.35,6,22.88,6,4.63,0,13-3,17.11-4.5C69.66,72.76,70.43,68.77,66.16,67.46Z"/><g class="cls-10"><g class="cls-11"><ellipse class="cls-12" cx="42.77" cy="50.55" rx="1.97" ry="2"/></g><g class="cls-11"><ellipse class="cls-12" cx="57.89" cy="50.55" rx="1.97" ry="2"/></g></g><line class="cls-13" x1="37.92" y1="41.88" x2="38.74" y2="49.92"/><line class="cls-13" x1="61.73" y1="41.42" x2="61.24" y2="49.49"/><path class="cls-14" d="M46.72,54.63a1.91,1.91,0,0,0-.06.48c0,1.39,1.54,2.53,3.45,2.53s3.45-1.14,3.45-2.53a1.55,1.55,0,0,0-.07-.48Z"/><path class="cls-15" d="M51.93,57.25a2.47,2.47,0,0,0-1.82-.6,2.51,2.51,0,0,0-1.83.6,4.47,4.47,0,0,0,1.83.39A4.42,4.42,0,0,0,51.93,57.25Z"/><path class="cls-16" d="M47.71,54.63s0,0,0,0v.42c0,.38.49.68,1.1.68h2.62c.6,0,1.09-.3,1.09-.68v-.47Z"/><path class="cls-13" d="M46.72,54.63a1.91,1.91,0,0,0-.06.48c0,1.39,1.54,2.53,3.45,2.53s3.45-1.14,3.45-2.53a1.55,1.55,0,0,0-.07-.48Z"/><path class="cls-17" d="M30.48,80.51l6.05.59.77-14.91s-3.94.52-5.37,2.66C30.07,71.64,30.48,80.51,30.48,80.51Z"/><path class="cls-17" d="M70,80.84l-6.56.6L62,65.7s4.83,1,6.38,3.2C70.41,71.76,70,80.84,70,80.84Z"/><path class="cls-6" d="M41.15,64.67c-.21,9,17.41,9.57,16.19-.66l4.88,1.69,1.46,19a35.5,35.5,0,0,1-27.41-.62l.42-17.74Z"/><path class="cls-18" d="M47.7,87c1.51.39,2.95-.37,4.32-.18l-.44-13.65H48.09Z"/><polygon class="cls-19" points="52.71 71.67 51.56 73.87 48.08 73.87 46.96 71.67 49.84 69.33 52.71 71.67"/><path class="cls-20" d="M49.84,69.32l-3.67,3.87L39,65.86c0-.31,4.78-2.11,4.78-2.11l1.47,1.37Z"/><path class="cls-20" d="M49.84,69.32l3.67,3.87,7.31-7.55-5-1.89-1.47,1.37Z"/><path class="cls-21" d="M50.11,52.76a2.68,2.68,0,0,0,2-.9.15.15,0,0,0,0-.2h0a.14.14,0,0,0-.19,0,2.65,2.65,0,0,1-3.59,0,.12.12,0,0,0-.1,0l-.09,0a.15.15,0,0,0,0,.2A2.66,2.66,0,0,0,50.11,52.76Z"/><path class="cls-21" d="M51,59.48a.09.09,0,0,0,0-.18H49.22a.09.09,0,0,0,0,.18Z"/><path class="cls-22" d="M48.06,40.71a21,21,0,0,0-7.42-.78.22.22,0,0,0-.21.19.23.23,0,0,0,.19.21,66.18,66.18,0,0,1,6.65,1.43h.08a.24.24,0,0,0,.2-.07l.62-.68a.2.2,0,0,0,0-.18A.22.22,0,0,0,48.06,40.71Z"/><path class="cls-22" d="M52.06,40.51a21,21,0,0,1,7.45-.39.2.2,0,0,1,0,.4s-5.11.61-6.71,1.08h-.08a.26.26,0,0,1-.2-.08l-.58-.71a.16.16,0,0,1,0-.18A.22.22,0,0,1,52.06,40.51Z"/><path class="cls-7" d="M44.51,42.78a1.38,1.38,0,0,0-1.2.83.64.64,0,0,1,.2,0,.83.83,0,0,1,0,1.65.67.67,0,0,1-.37-.11,1.52,1.52,0,0,0,1.37,1.3,1.87,1.87,0,0,0,0-3.64Z"/><path class="cls-7" d="M55.51,42.78a1.32,1.32,0,0,0-1.08.63.58.58,0,0,1,.26-.06.83.83,0,0,1,0,1.65.73.73,0,0,1-.62-.36,1.48,1.48,0,1,0,1.44-1.86Z"/><path class="cls-23" d="M66.21,67.61l-.34-.12-.58-.24C64.06,66.72,56,64,56,64a1.82,1.82,0,0,1-1.22-1.08,8.21,8.21,0,0,1-.24-2.69,24.19,24.19,0,0,0,6.44-6,3.87,3.87,0,0,0,.48-1.69c0-1,0-2,0-3a1.49,1.49,0,0,0,1.27-1.19c.39-1.25,1-3.86,1-3.88.53-1.62-.63-2.46-2.17-2.43,0-.42,0-1.08.06-1a4.43,4.43,0,0,0,.43-1.72c0-6.23-5.55-11.29-12.4-11.29S37.27,33.08,37.27,39.31A4.79,4.79,0,0,0,37.73,41,8.32,8.32,0,0,1,37.82,42c-1.54,0-2.33.82-1.79,2.44,0,0,.59,2.63,1,3.88a1.5,1.5,0,0,0,1.48,1.21c0,.83,0,1.67,0,2.5a4.48,4.48,0,0,0,.86,2.81c.81,1.17,3.4,3.15,5.92,4.72,0,.73-.17,2.72-.27,3.26A1.66,1.66,0,0,1,43.71,64L36,66.57a10.78,10.78,0,0,0-2.18.91c-4.51,2.29-3.64,12.6-3.69,13.14,13.51,10.49,32.11,6.06,40,1.51C69.66,72.76,70.47,68.92,66.21,67.61Z"/><path class="cls-24" d="M45.43,59.46s3.42,1.86,5.24,1.71a13.94,13.94,0,0,0,4.42-1.63"/><path class="cls-7" d="M49.41,29c-4-1.28-15.37,4-12.25,12.8.12,0,11.78-6.66,12.25-9,.84,2.39,12.13,9,12.24,9C64.78,33.08,53.4,27.75,49.41,29Z"/><path class="cls-18" d="M51.16,31.58a13.21,13.21,0,0,0-7.81.53,12.42,12.42,0,0,0-6,5.41,12.91,12.91,0,0,1,5.54-6.31,14.6,14.6,0,0,1,8.53-1.61Z"/><path class="cls-19" d="M63.91,31,63.63,31a11.21,11.21,0,0,0-2.09,0,15.34,15.34,0,0,0-1.71.22c-.15,0-.62.07-.69.08a2.45,2.45,0,0,0-.5.17.69.69,0,0,0-.13-.06l-1-.6-1-.57a.74.74,0,0,0-.12-.09,1.61,1.61,0,0,0-.11-.52,6.73,6.73,0,0,0-.26-.65c-.19-.54-.42-1.09-.67-1.63a11.26,11.26,0,0,0-1-1.85,2.53,2.53,0,0,0-.18-.22s-2,.1-3.92,3.57a7.33,7.33,0,0,0-.64,2.69c0,.39,0,.56.35.64a5.39,5.39,0,0,0,1.77.3c.23,0,.47,0,.7.05a14.32,14.32,0,0,0,2.52,0c0,.06,2.27,1.41,2.33,1.4a15.22,15.22,0,0,0,1.3,2.2c.13.2.25.4.39.6a5.48,5.48,0,0,0,1.14,1.41c.23.25.38.19.71,0a7.2,7.2,0,0,0,2-1.9C64.81,32.85,63.9,31.09,63.91,31Z"/><path class="cls-6" d="M48.4,42.35c-2.25-2.74-10.72-.8-10.73-.8.15.62.29,1.23.41,1.83.63.07.67,1.48.73,2,.3,2.49,2,4.34,5.49,4.25a4.42,4.42,0,0,0,4.5-4.34A6.42,6.42,0,0,0,48.4,42.35ZM48,45.41a3.67,3.67,0,0,1-3.77,3.66h-.66c-3.5,0-4.1-3.07-4.17-5a2.07,2.07,0,0,1,1.87-2.17,21.18,21.18,0,0,1,2.2-.07c2.62,0,3.76.63,4.06,1.13A4.44,4.44,0,0,1,48,45.41Z"/><path class="cls-6" d="M50.88,45.29a4.41,4.41,0,0,0,4.49,4.34c3.52.09,5.19-1.76,5.49-4.25.07-.52.1-1.93.73-2,.13-.6.26-1.21.42-1.83,0,0-8.49-1.94-10.73.8A6.12,6.12,0,0,0,50.88,45.29ZM52.15,43c.31-.5,1.44-1.13,4.06-1.13a21.08,21.08,0,0,1,2.2.07,2.07,2.07,0,0,1,1.87,2.17c-.07,1.93-.67,5-4.17,5h-.65a3.68,3.68,0,0,1-3.78-3.66A4.44,4.44,0,0,1,52.15,43Z"/><path class="cls-6" d="M51.36,44.5A2.69,2.69,0,0,0,49.78,44a2.31,2.31,0,0,0-1.46.46c-.16-.43-.31-.85-.47-1.27h4C51.66,43.65,51.51,44.07,51.36,44.5Z"/></g></g></g></svg>