<svg xmlns="http://www.w3.org/2000/svg" viewBox="0 0 100 100" width="100" height="100" style="fill: rgb(0, 0, 0);"><defs><style>.cls-1{isolation:isolate;}.cls-2{fill:#fff;}.cls-3{fill:#f1bc19;}.cls-4{fill:#c0e5e4;}.cls-23,.cls-5{fill:#00a5a5;}.cls-22,.cls-6{fill:#fbcd59;}.cls-7{fill:#d8ad8f;}.cls-8{fill:#b2876b;}.cls-9{opacity:0.3;}.cls-10{opacity:0.8;mix-blend-mode:multiply;}.cls-11{fill:#f4989e;}.cls-12,.cls-19,.cls-20{fill:none;stroke-linecap:round;stroke-linejoin:round;}.cls-12,.cls-19,.cls-20,.cls-21,.cls-22,.cls-23{stroke:#472b29;}.cls-12{stroke-width:0.4px;}.cls-13{fill:#6d1b18;}.cls-14{fill:#ee3e54;}.cls-15{fill:#fdfcef;}.cls-16,.cls-18{fill:#472b29;}.cls-16{opacity:0.41;}.cls-17{fill:#512c2b;}.cls-20{stroke-width:0.5px;}.cls-21{fill:#efba43;}.cls-21,.cls-22,.cls-23{stroke-miterlimit:10;}.cls-23{stroke-width:0.7px;}</style></defs><title>Artboard 76</title><g class="cls-1"><g id="line8"><g id="background_round" data-name="background round"><circle class="cls-2" cx="20.75" cy="56.38" r="0.89"/><circle class="cls-2" cx="79.8" cy="31.51" r="0.68"/><circle class="cls-3" cx="77.17" cy="12.48" r="0.89"/><circle class="cls-3" cx="21.24" cy="64.06" r="0.89"/><circle class="cls-4" cx="50.28" cy="49.71" r="37.45"/><circle class="cls-3" cx="82.61" cy="14.63" r="4.01"/><circle class="cls-5" cx="86.62" cy="23.7" r="1.88"/><circle class="cls-6" cx="77.63" cy="76.12" r="1.88"/><circle class="cls-6" cx="14.47" cy="63.17" r="4.01"/><circle class="cls-5" cx="24.71" cy="87.31" r="1.88"/><circle class="cls-2" cx="76.28" cy="30" r="1.8"/><circle class="cls-2" cx="18.21" cy="51.06" r="2.54"/><path class="cls-7" d="M61.46,41.89c.13-1.52-.32-2.82-.22-3.58h0c-1.33-1.65-2.17-3.59-4-4.77a23.65,23.65,0,0,0-6.78-2.83c-5.7-1.43-11.3,2.74-13.06,8.13l-.06.1a20.1,20.1,0,0,1,.37,2.94c-1.54,0-2.32.81-1.79,2.43,0,0,.6,2.63,1,3.89a1.49,1.49,0,0,0,1.48,1.2c0,.84,0,1.67,0,2.51a4.49,4.49,0,0,0,.85,2.81c1.51,2.18,9.23,7.2,11.1,7,3,0,9-5.14,10.59-7.7a4,4,0,0,0,.47-1.69c0-1,0-2,0-3a1.51,1.51,0,0,0,1.27-1.19c.4-1.26,1-3.86,1-3.89C64.17,42.69,63,41.86,61.46,41.89Z"/><path class="cls-8" d="M66.08,67.46l-.34-.12-.58-.24c-1.23-.53-9.26-3.27-9.26-3.27a1.86,1.86,0,0,1-1.22-1.08,9,9,0,0,1-.23-2.92,22.05,22.05,0,0,1-4.23,1.43c-1.86.18-5.15-2.27-5.15-2.27s-.09,3-.22,3.71a1.66,1.66,0,0,1-1.26,1.13l-7.74,2.58a7.91,7.91,0,0,0-2.17.91A7.78,7.78,0,0,0,30.4,72h0c0,.1-.05.32-.09.61A5.51,5.51,0,0,0,30.12,74c0,.47-.05,6.13-.09,6.67,6.8,7,14,6.53,24.49,6.53,4.63,0,13.07-1.73,15.45-5.28C69.53,72.49,70.34,68.77,66.08,67.46Z"/><g class="cls-9"><g class="cls-10"><ellipse class="cls-11" cx="42.68" cy="50.55" rx="1.97" ry="2"/></g><g class="cls-10"><ellipse class="cls-11" cx="57.8" cy="50.55" rx="1.97" ry="2"/></g></g><line class="cls-12" x1="37.83" y1="41.88" x2="38.65" y2="49.92"/><line class="cls-12" x1="61.65" y1="41.42" x2="61.16" y2="49.49"/><path class="cls-13" d="M46.63,54.63a1.91,1.91,0,0,0-.06.48c0,1.39,1.54,2.53,3.45,2.53s3.45-1.14,3.45-2.53a1.91,1.91,0,0,0-.06-.48Z"/><path class="cls-14" d="M51.84,57.25a3.06,3.06,0,0,0-3.64,0,4.44,4.44,0,0,0,3.64,0Z"/><path class="cls-15" d="M47.62,54.63s0,0,0,0v.42c0,.38.5.68,1.1.68h2.62c.6,0,1.1-.3,1.1-.68v-.42s0,0,0,0Z"/><path class="cls-12" d="M46.63,54.63a1.91,1.91,0,0,0-.06.48c0,1.39,1.54,2.53,3.45,2.53s3.45-1.14,3.45-2.53a1.91,1.91,0,0,0-.06-.48Z"/><path class="cls-16" d="M50,52.76a2.66,2.66,0,0,0,2-.9.14.14,0,0,0,0-.2h0a.14.14,0,0,0-.19,0,2.64,2.64,0,0,1-3.58,0,.16.16,0,0,0-.11,0,.11.11,0,0,0-.08,0,.14.14,0,0,0,0,.2A2.66,2.66,0,0,0,50,52.76Z"/><path class="cls-16" d="M50.91,59.48a.09.09,0,0,0,0-.18H49.13a.09.09,0,0,0,0,.18Z"/><path class="cls-17" d="M48,40.71a21,21,0,0,0-7.43-.78.21.21,0,0,0-.2.19c0,.1.07.18.19.21a66.13,66.13,0,0,1,6.64,1.43h.08a.26.26,0,0,0,.21-.07l.61-.68a.17.17,0,0,0,0-.18A.2.2,0,0,0,48,40.71Z"/><path class="cls-17" d="M52,40.51a21.07,21.07,0,0,1,7.46-.39.22.22,0,0,1,.19.2.21.21,0,0,1-.2.2s-5.11.61-6.71,1.08h-.08a.28.28,0,0,1-.2-.08l-.58-.71a.2.2,0,0,1,0-.18A.24.24,0,0,1,52,40.51Z"/><path class="cls-18" d="M44.43,42.78a1.4,1.4,0,0,0-1.21.83.69.69,0,0,1,.2,0,.83.83,0,0,1,0,1.65.7.7,0,0,1-.37-.11,1.54,1.54,0,0,0,1.38,1.3,1.87,1.87,0,0,0,0-3.64Z"/><path class="cls-18" d="M55.42,42.78a1.34,1.34,0,0,0-1.08.63.58.58,0,0,1,.26-.06.83.83,0,0,1,0,1.65.74.74,0,0,1-.62-.36,1.48,1.48,0,1,0,1.44-1.86Z"/><path class="cls-5" d="M41.31,64.78c1.53,1.21,12.93,1.84,16.11-.55l4.85,1.64,1.5,19.95S49.55,89.51,35.34,84.3l.77-17.89Z"/><path class="cls-19" d="M66.12,67.61l-.34-.12-.58-.24C64,66.72,55.94,64,55.94,64a1.86,1.86,0,0,1-1.22-1.08,8.21,8.21,0,0,1-.24-2.69,24.41,24.41,0,0,0,6.45-6,4,4,0,0,0,.47-1.69c0-1,0-2,0-3a1.49,1.49,0,0,0,1.27-1.19c.4-1.25,1-3.86,1-3.88C64.21,42.85,63,42,61.5,42c0-.42,0-1.08.07-1A4.7,4.7,0,0,0,62,39.31C62,33.08,56.44,28,49.59,28S37.18,33.08,37.18,39.31A4.5,4.5,0,0,0,37.65,41,10.18,10.18,0,0,1,37.73,42c-1.54,0-2.32.82-1.79,2.44,0,0,.6,2.63,1,3.88a1.5,1.5,0,0,0,1.48,1.21c0,.83,0,1.67,0,2.5a4.47,4.47,0,0,0,.85,2.81c.81,1.17,3.4,3.15,5.93,4.72-.05.73-.18,2.72-.28,3.26A1.66,1.66,0,0,1,43.63,64l-7.74,2.59a10.46,10.46,0,0,0-2.17.91c-4.51,2.29-3.65,12.6-3.69,13.14,8.21,9.51,37.18,6.47,40,1.4C69.57,72.64,70.38,68.92,66.12,67.61Z"/><path class="cls-20" d="M45.34,59.46s3.43,1.86,5.25,1.71A14,14,0,0,0,55,59.54"/><path class="cls-21" d="M59,25.82a3.1,3.1,0,0,0-.08-.69,2.76,2.76,0,0,0,.07-.65,3,3,0,0,0-2.21-2.83,3.34,3.34,0,0,0-3.4-3,3.89,3.89,0,0,0-6.77-.27,3.48,3.48,0,0,0-.79-.09,3,3,0,0,0-3.18,2.88v.16a3.37,3.37,0,0,0-2.54,3.16,3.09,3.09,0,0,0,.8,2.06,2.62,2.62,0,0,0-.62,1.68A3,3,0,0,0,43.45,31a3.29,3.29,0,0,0,1.26-.24,2.6,2.6,0,0,0,2.71,2.37,2.89,2.89,0,0,0,.84-.12,3.93,3.93,0,0,0,3,1.31,3.65,3.65,0,0,0,3.71-2.92,3.32,3.32,0,0,0,2.25-2.76A3.22,3.22,0,0,0,59,25.82Z"/><path class="cls-22" d="M49.75,24.9c-11.46,0-15.53,9.73-12.1,19.3a.5.5,0,0,0,1-.1c.45-5.43,3-10,11.15-7.68,8.12-2.32,10.7,2.25,11.15,7.68a.5.5,0,0,0,1,.1C65.28,34.63,61.21,24.9,49.75,24.9Z"/><path class="cls-18" d="M48.28,43c-2.28-2.74-10.88-.8-10.89-.8.16.62.3,1.23.42,1.84.64.06.68,1.47.74,2,.31,2.5,2,4.34,5.57,4.25a4.43,4.43,0,0,0,4.56-4.34A6.34,6.34,0,0,0,48.28,43Zm-.41,3.07A3.7,3.7,0,0,1,44,49.71a4.89,4.89,0,0,1-.66,0c-3.56,0-4.16-3.07-4.23-5A2.07,2.07,0,0,1,41,42.54c.65-.06,1.38-.06,2.23-.06,2.66,0,3.81.62,4.12,1.12A4.44,4.44,0,0,1,47.87,46.06Z"/><path class="cls-18" d="M50.79,45.93a4.44,4.44,0,0,0,4.56,4.34c3.57.09,5.26-1.75,5.57-4.25.07-.52.1-1.93.74-2,.13-.61.26-1.22.42-1.84,0,0-8.6-1.94-10.88.8A6.11,6.11,0,0,0,50.79,45.93Zm1.3-2.33c.3-.5,1.46-1.12,4.11-1.12.85,0,1.59,0,2.24.06a2.08,2.08,0,0,1,1.89,2.17c-.07,1.94-.68,5-4.23,5a4.89,4.89,0,0,1-.66,0,3.69,3.69,0,0,1-3.83-3.65A4.35,4.35,0,0,1,52.09,43.6Z"/><path class="cls-18" d="M51.28,45.14a2.76,2.76,0,0,0-1.6-.45,2.37,2.37,0,0,0-1.48.45c-.16-.42-.32-.85-.47-1.27h4C51.59,44.29,51.43,44.72,51.28,45.14Z"/><path class="cls-23" d="M57,67.15a28,28,0,0,1-7,.71,28,28,0,0,1-7-.71,1.71,1.71,0,0,1-1.6-1.8h0A1.72,1.72,0,0,1,43,63.54s4.37.53,6.85.53S57,63.54,57,63.54a1.72,1.72,0,0,1,1.6,1.81h0A1.71,1.71,0,0,1,57,67.15Z"/></g></g></g></svg>